<?xml version="1.0" encoding="UTF-8"?>
<svg height="128px" viewBox="0 0 128 128" width="128px" xmlns="http://www.w3.org/2000/svg" xmlns:xlink="http://www.w3.org/1999/xlink">
    <linearGradient id="a" gradientUnits="userSpaceOnUse" x1="12" x2="116" y1="64" y2="64">
        <stop offset="0" stop-color="#77767b"/>
        <stop offset="0.0500001" stop-color="#c0bfbc"/>
        <stop offset="0.099807" stop-color="#9a9996"/>
        <stop offset="0.900001" stop-color="#9a9996"/>
        <stop offset="0.950001" stop-color="#c0bfbc"/>
        <stop offset="1" stop-color="#77767b"/>
    </linearGradient>
    <linearGradient id="b" gradientUnits="userSpaceOnUse" x1="-61.608391" x2="-61.608391" y1="137.74353" y2="196.74353">
        <stop offset="0" stop-color="#333333"/>
        <stop offset="1" stop-color="#111111"/>
    </linearGradient>
    <path d="m 21.964844 12 h 84.070312 c 5.503906 0 9.964844 4.460938 9.964844 9.964844 v 84.070312 c 0 5.503906 -4.460938 9.964844 -9.964844 9.964844 h -84.070312 c -5.503906 0 -9.964844 -4.460938 -9.964844 -9.964844 v -84.070312 c 0 -5.503906 4.460938 -9.964844 9.964844 -9.964844 z m 0 0" fill="url(#a)"/>
    <path d="m 22 185.625 h 84 c 4.625 0 8.375 3.75 8.375 8.375 v 75.875 c 0 4.625 -3.75 8.375 -8.375 8.375 h -84 c -4.625 0 -8.375 -3.75 -8.375 -8.375 v -75.875 c 0 -4.625 3.75 -8.375 8.375 -8.375 z m 0 0" fill="url(#b)" stroke="#dddddd" stroke-width="2.2981" transform="matrix(1 0 0 1 0 -172)"/>
    <path d="m 71.613281 67.332031 c 3.710938 -3.484375 4.972657 -4.226562 -7.175781 -12.6875 c -4.136719 2.949219 -6.875 7.832031 -7.6875 12.847657 c 4.9375 2.1875 10.941406 3.523437 14.863281 -0.160157 z m 0 0" fill="#ffffff"/>
    <path d="m 64 29.875 c -7.503906 -0.105469 -14.777344 4.585938 -17.78125 11.460938 c -3.316406 7.164062 -1.722656 16.257812 3.9375 21.789062 c 1.714844 1.730469 3.757812 3.132812 5.988281 4.109375 c 0.816407 -5.015625 4.15625 -9.640625 8.292969 -12.589844 c 4.144531 2.9375 6.609375 7.574219 7.410156 12.59375 c 7.214844 -3.054687 12.058594 -10.796875 11.636719 -18.621093 c -0.179687 -7.566407 -5.246094 -14.707032 -12.320313 -17.394532 c -2.273437 -0.894531 -4.71875 -1.351562 -7.164062 -1.347656 z m 0 0" fill="#e01b24"/>
    <path d="m 64 86.355469 c 5.933594 4.519531 14.621094 4.851562 20.890625 0.828125 c 6.265625 -3.828125 9.816406 -11.421875 9.011719 -18.683594 c -0.632813 -7.414062 -5.863282 -14.257812 -12.980469 -16.554688 c -5.636719 -1.910156 -11.726563 -0.882812 -16.484375 2.699219 c 6.023438 4.34375 8.089844 12.277344 7.121094 19.554688 c -0.878906 4.808593 -3.601563 9.265625 -7.558594 12.15625 z m 0 0" fill="#3584e4"/>
    <path d="m 64 86.355469 c -5.933594 4.519531 -14.183594 4.851562 -20.453125 0.828125 c -6.265625 -3.828125 -9.816406 -11.421875 -9.011719 -18.683594 c 0.632813 -7.414062 5.863282 -14.257812 12.980469 -16.554688 c 5.636719 -1.910156 12.164063 -0.882812 16.921875 2.699219 c -6.09375 4.390625 -9.039062 12.484375 -7.511719 19.792969 c 0.921875 4.71875 3.183594 9.078125 7.074219 11.917969 z m 0 0" fill="#33d17a"/>
    <path d="m 83.191406 52.871094 s -9.941406 -5.425782 -18.753906 1.773437 c 0 0 5.429688 4.558594 7.175781 12.6875 c 0 0 6.875 -1.867187 11.578125 -14.460937 z m 0 0" fill="#9141ac"/>
    <path d="m 44.847656 53.074219 s 10.449219 -6.292969 19.589844 1.570312 c 0 0 -6.328125 4.355469 -7.675781 12.878907 c 0 0 -7.066407 -1.375 -11.914063 -14.449219 z m 0 0" fill="#f6d32d"/>
    <path d="m 64.347656 86.242188 s 9.308594 -6.472657 7.265625 -18.910157 c 0 0 -7.261719 3.109375 -14.863281 0.160157 c 0 0 -3.484375 10.5625 7.25 18.863281 z m 0 0" fill="#35e4dc"/>
</svg>
