<svg width="128" height="128" viewBox="0 0 128 128" fill="none" xmlns="http://www.w3.org/2000/svg">
<g filter="url(#filter0_ii_1136_3)">
<g filter="url(#filter1_ii_1136_3)">
<rect x="12" y="12" width="104" height="104" rx="24" fill="url(#paint0_linear_1136_3)"/>
</g>
<rect x="17" y="17" width="94" height="94" rx="19" stroke="url(#paint1_linear_1136_3)" stroke-width="10"/>
<mask id="mask0_1136_3" style="mask-type:luminance" maskUnits="userSpaceOnUse" x="32" y="32" width="64" height="64">
<path d="M96 32H32V96H96V32Z" fill="white"/>
</mask>
<g mask="url(#mask0_1136_3)">
<g filter="url(#filter2_ii_1136_3)">
<path d="M63.7208 32.0012C63.9256 31.9994 64.1304 31.9995 64.3352 32.0017L64.0001 64L63.7208 32.0012Z" fill="#FF0000"/>
<path d="M64.2793 32.0012C64.4841 32.003 64.6888 32.0068 64.8935 32.0125L64 64L64.2793 32.0012Z" fill="#FF0400"/>
<path d="M64.8376 32.011C65.0423 32.0163 65.247 32.0236 65.4516 32.033L64 64L64.8376 32.011Z" fill="#FF0900"/>
<path d="M65.3958 32.0304C65.6004 32.0393 65.8049 32.0502 66.0093 32.0631L64 64L65.3958 32.0304Z" fill="#FF0D00"/>
<path d="M65.9536 32.0597C66.1579 32.0722 66.3622 32.0867 66.5664 32.1031L64 64L65.9536 32.0597Z" fill="#FF1100"/>
<path d="M66.5107 32.0987C66.7148 32.1147 66.9188 32.1328 67.1227 32.1527L64 64L66.5107 32.0987Z" fill="#FF1500"/>
<path d="M67.0671 32.1473C67.2709 32.1669 67.4746 32.1885 67.678 32.2121L64 64L67.0671 32.1473Z" fill="#FF1A00"/>
<path d="M67.6225 32.2057C67.826 32.2289 68.0292 32.254 68.2322 32.2811L64 64L67.6225 32.2057Z" fill="#FF1E00"/>
<path d="M68.1769 32.2737C68.3798 32.3004 68.5827 32.3291 68.7851 32.3597L64 64L68.1769 32.2737Z" fill="#FF2200"/>
<path d="M68.7299 32.3514C68.9324 32.3817 69.1347 32.4139 69.3366 32.448L64 64L68.7299 32.3514Z" fill="#FF2600"/>
<path d="M69.2816 32.4388C69.4835 32.4727 69.6852 32.5084 69.8864 32.5461L64 64L69.2816 32.4388Z" fill="#FF2B00"/>
<path d="M69.8315 32.5358C70.0329 32.5731 70.2339 32.6124 70.4345 32.6535L64 64L69.8315 32.5358Z" fill="#FF2F00"/>
<path d="M70.3798 32.6425C70.5804 32.6833 70.7807 32.726 70.9806 32.7707L64 64L70.3798 32.6425Z" fill="#FF3300"/>
<path d="M70.9261 32.7584C71.126 32.8028 71.3255 32.8491 71.5246 32.8971L64 63.9999L70.9261 32.7584Z" fill="#FF3700"/>
<path d="M71.4703 32.8842C71.6694 32.932 71.868 32.9817 72.0662 33.0333L64 64L71.4703 32.8842Z" fill="#FF3C00"/>
<path d="M72.0122 33.0192C72.2104 33.0705 72.4082 33.1237 72.6054 33.1788L64 64L72.0122 33.0192Z" fill="#FF4000"/>
<path d="M72.5516 33.1639C72.749 33.2186 72.9458 33.2752 73.1421 33.3337L64 64L72.5516 33.1639Z" fill="#FF4400"/>
<path d="M73.0885 33.3177C73.2848 33.3759 73.4806 33.4359 73.6758 33.4978L64 64L73.0885 33.3177Z" fill="#FF4800"/>
<path d="M73.6226 33.4811C73.8179 33.5427 74.0126 33.6061 74.2067 33.6714L64 64L73.6226 33.4811Z" fill="#FF4D00"/>
<path d="M74.1538 33.6536C74.3479 33.7187 74.5415 33.7854 74.7344 33.8542L64 64L74.1538 33.6536Z" fill="#FF5100"/>
<path d="M74.6819 33.8354C74.8749 33.9038 75.0672 33.974 75.2589 34.046L64 63.9999L74.6819 33.8354Z" fill="#FF5500"/>
<path d="M75.2067 34.0265C75.3985 34.0982 75.5896 34.1718 75.78 34.2472L64 64L75.2067 34.0265Z" fill="#FF5900"/>
<path d="M75.728 34.2266C75.9186 34.3016 76.1084 34.3785 76.2974 34.4572L64 64L75.728 34.2266Z" fill="#FF5E00"/>
<path d="M76.2459 34.4359C76.4351 34.5142 76.6235 34.5944 76.8112 34.6764L64 64L76.2459 34.4359Z" fill="#FF6200"/>
<path d="M76.76 34.6541C76.9478 34.7358 77.1348 34.8192 77.321 34.9045L64 64L76.76 34.6541Z" fill="#FF6600"/>
<path d="M77.2701 34.8812C77.4565 34.9661 77.642 35.0528 77.8268 35.1413L64 64L77.2701 34.8812Z" fill="#FF6A00"/>
<path d="M77.7763 35.1172C77.9612 35.2054 78.1452 35.2953 78.3283 35.387L64 64L77.7763 35.1172Z" fill="#FF6F00"/>
<path d="M78.2783 35.3621C78.4616 35.4535 78.644 35.5466 78.8255 35.6415L64 64L78.2783 35.3621Z" fill="#FF7300"/>
<path d="M78.776 35.6157C78.9576 35.7102 79.1383 35.8065 79.3181 35.9045L64 64L78.776 35.6157Z" fill="#FF7700"/>
<path d="M79.2691 35.8778C79.4491 35.9755 79.6281 36.0749 79.8061 36.1761L64 63.9999L79.2691 35.8778Z" fill="#FF7B00"/>
<path d="M79.7576 36.1486C79.9358 36.2494 80.113 36.352 80.2893 36.4562L64 64L79.7576 36.1486Z" fill="#FF8000"/>
<path d="M80.2412 36.4279C80.4176 36.5318 80.5931 36.6374 80.7676 36.7447L64 64L80.2412 36.4279Z" fill="#FF8400"/>
<path d="M80.7199 36.7155C80.8945 36.8224 81.0681 36.9312 81.2407 37.0415L64 64L80.7199 36.7155Z" fill="#FF8800"/>
<path d="M81.1936 37.0115C81.3663 37.1215 81.538 37.2332 81.7085 37.3465L64 64L81.1936 37.0115Z" fill="#FF8C00"/>
<path d="M81.662 37.3156C81.8327 37.4287 82.0024 37.5433 82.171 37.6597L64 64L81.662 37.3156Z" fill="#FF9100"/>
<path d="M82.125 37.6279C82.2938 37.7438 82.4614 37.8615 82.628 37.9807L64 63.9999L82.125 37.6279Z" fill="#FF9500"/>
<path d="M82.5825 37.9483C82.7492 38.0672 82.9148 38.1878 83.0792 38.3098L64 64L82.5825 37.9483Z" fill="#FF9900"/>
<path d="M83.0343 38.2766C83.199 38.3983 83.3624 38.5217 83.5247 38.6467L64 64L83.0343 38.2766Z" fill="#FF9D00"/>
<path d="M83.4804 38.6127C83.6428 38.7374 83.8041 38.8636 83.9642 38.9913L64 64L83.4804 38.6127Z" fill="#FFA200"/>
<path d="M83.9204 38.9565C84.0807 39.084 84.2397 39.213 84.3976 39.3435L64 63.9999L83.9204 38.9565Z" fill="#FFA600"/>
<path d="M84.3545 39.308C84.5125 39.4382 84.6693 39.57 84.8247 39.7033L64 64L84.3545 39.308Z" fill="#FFAA00"/>
<path d="M84.7824 39.6671C84.938 39.8001 85.0925 39.9346 85.2457 40.0705L64 64L84.7824 39.6671Z" fill="#FFAE00"/>
<path d="M85.2038 40.0333C85.3572 40.169 85.5093 40.3062 85.66 40.4448L64 63.9999L85.2038 40.0333Z" fill="#FFB300"/>
<path d="M85.6189 40.4071C85.7699 40.5455 85.9195 40.6852 86.0678 40.8265L64 64L85.6189 40.4071Z" fill="#FFB700"/>
<path d="M86.0273 40.788C86.1759 40.9289 86.3231 41.0714 86.4689 41.2151L64 64L86.0273 40.788Z" fill="#FFBB00"/>
<path d="M86.0273 40.788C86.1759 40.9289 86.3231 41.0714 86.4689 41.2151L64 64L86.0273 40.788Z" fill="#FFBB00"/>
<path d="M86.4291 41.1759C86.5751 41.3195 86.7198 41.4644 86.8631 41.6107L64 63.9999L86.4291 41.1759Z" fill="#FFBF00"/>
<path d="M86.824 41.5709C86.9675 41.7169 87.1097 41.8644 87.2504 42.0132L64 64L86.824 41.5709Z" fill="#FFC400"/>
<path d="M87.2119 41.9727C87.3529 42.1212 87.4925 42.271 87.6305 42.4223L64 64L87.2119 41.9727Z" fill="#FFC800"/>
<path d="M87.5929 42.3811C87.7312 42.532 87.8681 42.6843 88.0035 42.838L64 64L87.5929 42.3811Z" fill="#FFCC00"/>
<path d="M87.9666 42.7962C88.1023 42.9495 88.2365 43.1042 88.3692 43.2602L64 64L87.9666 42.7962Z" fill="#FFD000"/>
<path d="M88.333 43.2177C88.466 43.3734 88.5975 43.5304 88.7274 43.6887L64 64L88.333 43.2177Z" fill="#FFD500"/>
<path d="M88.692 43.6454C88.8222 43.8035 88.951 43.9628 89.0782 44.1232L64 64L88.692 43.6454Z" fill="#FFD900"/>
<path d="M89.0435 44.0795C89.1709 44.2398 89.2969 44.4013 89.4212 44.564L64 64L89.0435 44.0795Z" fill="#FFDD00"/>
<path d="M89.3873 44.5196C89.512 44.6821 89.6351 44.8457 89.7566 45.0106L64 64L89.3873 44.5196Z" fill="#FFE100"/>
<path d="M89.7234 44.9656C89.8453 45.1302 89.9655 45.296 90.0841 45.463L64 64L89.7234 44.9656Z" fill="#FFE600"/>
<path d="M90.0517 45.4175C90.1706 45.5842 90.2879 45.752 90.4036 45.921L64 64L90.0517 45.4175Z" fill="#FFEA00"/>
<path d="M90.3721 45.875C90.488 46.0437 90.6024 46.2136 90.7152 46.3846L64 64L90.3721 45.875Z" fill="#FFEE00"/>
<path d="M90.6844 46.338C90.7974 46.5088 90.9087 46.6806 91.0185 46.8535L64 64L90.6844 46.338Z" fill="#FFF200"/>
<path d="M90.9885 46.8064C91.0985 46.9791 91.2069 47.1529 91.3136 47.3276L64 64L90.9885 46.8064Z" fill="#FFF700"/>
<path d="M91.2845 47.2801C91.3915 47.4546 91.4968 47.6303 91.6004 47.807L64 64L91.2845 47.2801Z" fill="#FFFB00"/>
<path d="M91.5722 47.7587C91.676 47.9352 91.7783 48.1126 91.8788 48.291L64 63.9999L91.5722 47.7587Z" fill="#FFFF00"/>
<path d="M91.8514 48.2424C91.9523 48.4206 92.0514 48.5998 92.1488 48.78L64 63.9999L91.8514 48.2424Z" fill="#FBFF00"/>
<path d="M92.1221 48.7309C92.2198 48.9109 92.3158 49.0918 92.4101 49.2736L64 64L92.1221 48.7309Z" fill="#F7FF00"/>
<path d="M92.3843 49.224C92.4789 49.4056 92.5717 49.5882 92.6627 49.7716L64 64L92.3843 49.224Z" fill="#F2FF00"/>
<path d="M92.6379 49.7216C92.7293 49.9049 92.8189 50.089 92.9067 50.274L64 63.9999L92.6379 49.7216Z" fill="#EEFF00"/>
<path d="M92.8828 50.2236C92.9709 50.4084 93.0573 50.5941 93.1419 50.7805L64 63.9999L92.8828 50.2236Z" fill="#EAFF00"/>
<path d="M93.1188 50.7297C93.2037 50.9161 93.2868 51.1033 93.3681 51.2912L64 64L93.1188 50.7297Z" fill="#E6FF00"/>
<path d="M93.3459 51.2401C93.4275 51.4278 93.5075 51.6164 93.5855 51.8058L64 64L93.3459 51.2401Z" fill="#E1FF00"/>
<path d="M93.5642 51.7541C93.6426 51.9433 93.7191 52.1332 93.7938 52.3239L64 64L93.5642 51.7541Z" fill="#DDFF00"/>
<path d="M93.7734 52.272C93.8485 52.4625 93.9216 52.6537 93.993 52.8456L64 64L93.7734 52.272Z" fill="#D9FF00"/>
<path d="M93.9735 52.7933C94.0452 52.9852 94.1151 53.1777 94.1831 53.3708L64 64L93.9735 52.7933Z" fill="#D5FF00"/>
<path d="M94.1645 53.3181C94.2329 53.5112 94.2994 53.7049 94.364 53.8992L64 64L94.1645 53.3181Z" fill="#D0FF00"/>
<path d="M94.3464 53.8463C94.4113 54.0405 94.4745 54.2353 94.5357 54.4307L64 64L94.3464 53.8463Z" fill="#CCFF00"/>
<path d="M94.5189 54.3774C94.5805 54.5727 94.6403 54.7686 94.698 54.9651L64 64L94.5189 54.3774Z" fill="#C8FF00"/>
<path d="M94.6822 54.9115C94.7404 55.1079 94.7966 55.3048 94.851 55.5022L64 64L94.6822 54.9115Z" fill="#C4FF00"/>
<path d="M94.8361 55.4484C94.8909 55.6457 94.9437 55.8435 94.9947 56.0419L64 64L94.8361 55.4484Z" fill="#BFFF00"/>
<path d="M94.9807 55.9878C95.032 56.1861 95.0813 56.3849 95.1288 56.584L64 64L94.9807 55.9878Z" fill="#BBFF00"/>
<path d="M95.1158 56.5297C95.1637 56.7288 95.2095 56.9284 95.2536 57.1285L64 64L95.1158 56.5297Z" fill="#B7FF00"/>
<path d="M95.2415 57.0739C95.2856 57.2739 95.328 57.4743 95.3686 57.675L64 64L95.2415 57.0739Z" fill="#B3FF00"/>
<path d="M95.3574 57.6202C95.3981 57.8209 95.437 58.022 95.4742 58.2234L64 64L95.3574 57.6202Z" fill="#AEFF00"/>
<path d="M95.4638 58.1685C95.5018 58.3698 95.5364 58.5715 95.5702 58.7735L64 64L95.4638 58.1685Z" fill="#AAFF00"/>
<path d="M95.5615 58.7184C95.5952 58.9205 95.6264 59.1228 95.6566 59.3253L64 64L95.5615 58.7184Z" fill="#A6FF00"/>
<path d="M95.6489 59.2701C95.6791 59.4727 95.7068 59.6755 95.7336 59.8786L64 64L95.6489 59.2701Z" fill="#A2FF00"/>
<path d="M95.7258 59.8231C95.7526 60.0262 95.7777 60.2294 95.8002 60.4329L64 64L95.7258 59.8231Z" fill="#9EFF00"/>
<path d="M95.7942 60.3775C95.8175 60.581 95.8391 60.7847 95.8582 60.9885L64 64L95.7942 60.3775Z" fill="#99FF00"/>
<path d="M95.853 60.9329C95.872 61.1368 95.8902 61.3408 95.9057 61.545L64 64L95.853 60.9329Z" fill="#95FF00"/>
<path d="M95.9014 61.4893C95.9178 61.6935 95.9317 61.8978 95.9438 62.1022L64 64L95.9014 61.4893Z" fill="#91FF00"/>
<path d="M95.9403 62.0464C95.9524 62.2508 95.9637 62.4553 95.9723 62.6599L64 63.9999L95.9403 62.0464Z" fill="#8CFF00"/>
<path d="M95.9697 62.6042C95.9784 62.8087 95.9853 63.0134 95.9905 63.2182L64 64L95.9697 62.6042Z" fill="#88FF00"/>
<path d="M95.9888 63.1622C95.9948 63.367 95.9974 63.5717 95.9991 63.7765L64 63.9999L95.9888 63.1622Z" fill="#84FF00"/>
<path d="M95.9992 63.7207C96.0009 63.9255 96.0009 64.1303 95.9983 64.3351L64.0001 64L95.9992 63.7207Z" fill="#80FF00"/>
<path d="M95.9991 64.2793C95.9974 64.4841 95.9931 64.6888 95.9879 64.8935L64 64L95.9991 64.2793Z" fill="#7BFF00"/>
<path d="M95.9888 64.8376C95.9836 65.0424 95.9766 65.247 95.9671 65.4516L64 64L95.9888 64.8376Z" fill="#77FF00"/>
<path d="M95.9697 65.3958C95.9602 65.6004 95.9498 65.8049 95.9369 66.0093L64 64L95.9697 65.3958Z" fill="#73FF00"/>
<path d="M95.9403 65.9536C95.9282 66.1579 95.9135 66.3622 95.8971 66.5664L64 64L95.9403 65.9536Z" fill="#6FFF00"/>
<path d="M95.9014 66.5107C95.885 66.7148 95.8677 66.9188 95.8469 67.1227L64 64L95.9014 66.5107Z" fill="#6AFF00"/>
<path d="M95.853 67.0671C95.8331 67.2709 95.8115 67.4746 95.7881 67.678L64 64L95.853 67.0671Z" fill="#66FF00"/>
<path d="M95.7942 67.6225C95.7708 67.826 95.7457 68.0292 95.7189 68.2322L64 64L95.7942 67.6225Z" fill="#62FF00"/>
<path d="M95.7258 68.1769C95.6999 68.3798 95.6705 68.5827 95.6402 68.7851L64 64L95.7258 68.1769Z" fill="#5EFF00"/>
<path d="M95.6489 68.7299C95.6186 68.9324 95.5857 69.1347 95.552 69.3366L64 64L95.6489 68.7299Z" fill="#59FF00"/>
<path d="M95.5615 69.2816C95.5278 69.4835 95.4915 69.6852 95.4543 69.8864L64 64L95.5615 69.2816Z" fill="#55FF00"/>
<path d="M95.4638 69.8315C95.4266 70.0329 95.3877 70.2339 95.3462 70.4345L64 64L95.4638 69.8315Z" fill="#51FF00"/>
<path d="M95.3574 70.3798C95.3168 70.5804 95.2744 70.7807 95.2294 70.9806L64 64L95.3574 70.3798Z" fill="#4DFF00"/>
<path d="M95.2415 70.9261C95.1974 71.126 95.1507 71.3255 95.1028 71.5246L64 64L95.2415 70.9261Z" fill="#48FF00"/>
<path d="M95.1158 71.4703C95.068 71.6694 95.0183 71.868 94.9667 72.0662L64 64L95.1158 71.4703Z" fill="#44FF00"/>
<path d="M94.9808 72.0122C94.9295 72.2104 94.8763 72.4082 94.8212 72.6054L64 64L94.9808 72.0122Z" fill="#40FF00"/>
<path d="M94.8361 72.5516C94.7815 72.749 94.7248 72.9458 94.6663 73.1421L64 64L94.8361 72.5516Z" fill="#3CFF00"/>
<path d="M94.6822 73.0885C94.6241 73.2848 94.5641 73.4806 94.5021 73.6758L64 64L94.6822 73.0885Z" fill="#37FF00"/>
<path d="M94.5189 73.6226C94.4573 73.8179 94.3939 74.0126 94.3286 74.2067L64 64L94.5189 73.6226Z" fill="#33FF00"/>
<path d="M94.3464 74.1538C94.2813 74.3479 94.2145 74.5415 94.1458 74.7344L64 64L94.3464 74.1538Z" fill="#2FFF00"/>
<path d="M94.1645 74.6819C94.0962 74.8749 94.0259 75.0672 93.9539 75.2589L64 64L94.1645 74.6819Z" fill="#2BFF00"/>
<path d="M93.9735 75.2067C93.9018 75.3985 93.8282 75.5896 93.7528 75.78L64 64L93.9735 75.2067Z" fill="#26FF00"/>
<path d="M93.7733 75.728C93.6982 75.9186 93.6214 76.1084 93.5427 76.2974L64 64L93.7733 75.728Z" fill="#22FF00"/>
<path d="M93.5641 76.2459C93.4858 76.4351 93.4056 76.6235 93.3236 76.8112L64 64L93.5641 76.2459Z" fill="#1EFF00"/>
<path d="M93.3459 76.76C93.2643 76.9478 93.1808 77.1348 93.0955 77.321L64 64L93.3459 76.76Z" fill="#1AFF00"/>
<path d="M93.1188 77.2701C93.0339 77.4565 92.9471 77.642 92.8586 77.8268L64 64L93.1188 77.2701Z" fill="#15FF00"/>
<path d="M92.8827 77.7763C92.7946 77.9612 92.7046 78.1452 92.6129 78.3283L64 64L92.8827 77.7763Z" fill="#11FF00"/>
<path d="M92.6379 78.2783C92.5465 78.4616 92.4534 78.644 92.3585 78.8255L64 64L92.6379 78.2783Z" fill="#0DFF00"/>
<path d="M92.3843 78.776C92.2898 78.9576 92.1935 79.1383 92.0955 79.3181L64 64L92.3843 78.776Z" fill="#09FF00"/>
<path d="M92.1222 79.2691C92.0245 79.4491 91.925 79.6281 91.8238 79.8061L64 64L92.1222 79.2691Z" fill="#04FF00"/>
<path d="M91.8514 79.7576C91.7506 79.9358 91.648 80.113 91.5438 80.2893L64 64L91.8514 79.7576Z" fill="#00FF00"/>
<path d="M91.5722 80.2412C91.4682 80.4176 91.3626 80.5931 91.2553 80.7676L64 64L91.5722 80.2412Z" fill="#00FF04"/>
<path d="M91.2845 80.7199C91.1775 80.8945 91.0688 81.0681 90.9585 81.2407L64 64L91.2845 80.7199Z" fill="#00FF09"/>
<path d="M90.9885 81.1936C90.8785 81.3663 90.7668 81.538 90.6535 81.7085L64 64L90.9885 81.1936Z" fill="#00FF0D"/>
<path d="M90.6844 81.662C90.5713 81.8327 90.4566 82.0024 90.3404 82.171L64 64L90.6844 81.662Z" fill="#00FF11"/>
<path d="M90.3721 82.125C90.256 82.2938 90.1385 82.4614 90.0192 82.628L64 64L90.3721 82.125Z" fill="#00FF15"/>
<path d="M90.0517 82.5825C89.9328 82.7492 89.8122 82.9148 89.6901 83.0792L64 64L90.0517 82.5825Z" fill="#00FF1A"/>
<path d="M89.7234 83.0343C89.6016 83.199 89.4782 83.3624 89.3533 83.5247L64 64L89.7234 83.0343Z" fill="#00FF1E"/>
<path d="M89.3873 83.4804C89.2626 83.6428 89.1364 83.8041 89.0087 83.9642L64 64L89.3873 83.4804Z" fill="#00FF22"/>
<path d="M89.0435 83.9204C88.916 84.0807 88.7869 84.2397 88.6564 84.3976L64 64L89.0435 83.9204Z" fill="#00FF26"/>
<path d="M88.692 84.3545C88.5617 84.5125 88.4299 84.6693 88.2967 84.8247L64 64L88.692 84.3545Z" fill="#00FF2B"/>
<path d="M88.333 84.7824C88.2 84.938 88.0655 85.0925 87.9295 85.2457L64 64L88.333 84.7824Z" fill="#00FF2F"/>
<path d="M87.9666 85.2038C87.8309 85.3572 87.6938 85.5093 87.5551 85.66L64 64L87.9666 85.2038Z" fill="#00FF33"/>
<path d="M87.5929 85.6189C87.4545 85.7699 87.3147 85.9195 87.1735 86.0678L64 64L87.5929 85.6189Z" fill="#00FF37"/>
<path d="M87.2119 86.0273C87.071 86.1759 86.9286 86.3231 86.7849 86.4689L64 64L87.2119 86.0273Z" fill="#00FF3C"/>
<path d="M86.824 86.4291C86.6805 86.5751 86.5355 86.7198 86.3893 86.8631L64 64L86.824 86.4291Z" fill="#00FF40"/>
<path d="M86.4291 86.824C86.2831 86.9675 86.1356 87.1097 85.9868 87.2504L64 64L86.4291 86.824Z" fill="#00FF44"/>
<path d="M86.0273 87.2119C85.8788 87.3529 85.7289 87.4925 85.5777 87.6305L64 64L86.0273 87.2119Z" fill="#00FF48"/>
<path d="M85.6189 87.5929C85.4679 87.7312 85.3156 87.8681 85.1619 88.0035L64 64L85.6189 87.5929Z" fill="#00FF4D"/>
<path d="M85.2038 87.9666C85.0505 88.1023 84.8958 88.2365 84.7398 88.3692L64 64L85.2038 87.9666Z" fill="#00FF51"/>
<path d="M84.7824 88.333C84.6266 88.466 84.4696 88.5975 84.3114 88.7274L64 64L84.7824 88.333Z" fill="#00FF55"/>
<path d="M84.3545 88.692C84.1965 88.8222 84.0372 88.951 83.8768 89.0782L64 64L84.3545 88.692Z" fill="#00FF59"/>
<path d="M83.9204 89.0435C83.7602 89.1709 83.5987 89.2969 83.436 89.4212L64 64L83.9204 89.0435Z" fill="#00FF5E"/>
<path d="M83.4804 89.3873C83.3179 89.512 83.1542 89.6351 82.9894 89.7566L64 64L83.4804 89.3873Z" fill="#00FF62"/>
<path d="M83.0343 89.7234C82.8697 89.8453 82.7039 89.9655 82.537 90.0841L64 64L83.0343 89.7234Z" fill="#00FF66"/>
<path d="M82.5825 90.0517C82.4157 90.1706 82.2479 90.2879 82.079 90.4036L64 64L82.5825 90.0517Z" fill="#00FF6A"/>
<path d="M82.125 90.3721C81.9562 90.488 81.7864 90.6024 81.6154 90.7152L64 64L82.125 90.3721Z" fill="#00FF6F"/>
<path d="M81.662 90.6844C81.4912 90.7974 81.3194 90.9087 81.1465 91.0185L64 64L81.662 90.6844Z" fill="#00FF73"/>
<path d="M81.1936 90.9885C81.0209 91.0985 80.8471 91.2069 80.6723 91.3136L64 64L81.1936 90.9885Z" fill="#00FF77"/>
<path d="M80.7199 91.2845C80.5454 91.3915 80.3697 91.4968 80.193 91.6004L64 64L80.7199 91.2845Z" fill="#00FF7B"/>
<path d="M80.2412 91.5722C80.0648 91.676 79.8873 91.7783 79.7089 91.8788L64 64L80.2412 91.5722Z" fill="#00FF80"/>
<path d="M79.7576 91.8514C79.5793 91.9523 79.4001 92.0514 79.22 92.1488L64 64L79.7576 91.8514Z" fill="#00FF84"/>
<path d="M79.2691 92.1221C79.0891 92.2198 78.9082 92.3158 78.7264 92.4101L64 64L79.2691 92.1221Z" fill="#00FF88"/>
<path d="M78.776 92.3843C78.5943 92.4789 78.4118 92.5717 78.2283 92.6627L64 64L78.776 92.3843Z" fill="#00FF8C"/>
<path d="M78.2783 92.6379C78.0951 92.7293 77.9109 92.8189 77.7259 92.9067L64 64L78.2783 92.6379Z" fill="#00FF91"/>
<path d="M77.7763 92.8828C77.5915 92.9709 77.4058 93.0573 77.2194 93.1419L64 64L77.7763 92.8828Z" fill="#00FF95"/>
<path d="M77.2702 93.1188C77.0838 93.2037 76.8967 93.2868 76.7088 93.3681L64 64L77.2702 93.1188Z" fill="#00FF99"/>
<path d="M76.76 93.3459C76.5722 93.4275 76.3836 93.5075 76.1943 93.5855L64 64L76.76 93.3459Z" fill="#00FF9D"/>
<path d="M76.2459 93.5642C76.0566 93.6426 75.8667 93.7191 75.676 93.7938L64 64L76.2459 93.5642Z" fill="#00FFA2"/>
<path d="M75.728 93.7734C75.5375 93.8485 75.3462 93.9216 75.1543 93.9931L64 64L75.728 93.7734Z" fill="#00FFA6"/>
<path d="M75.2067 93.9735C75.0148 94.0452 74.8223 94.1151 74.6292 94.1831L64 64L75.2067 93.9735Z" fill="#00FFAA"/>
<path d="M74.6819 94.1645C74.4888 94.2329 74.2951 94.2994 74.1008 94.364L64 64L74.6819 94.1645Z" fill="#00FFAE"/>
<path d="M74.1538 94.3464C73.9595 94.4113 73.7648 94.4745 73.5693 94.5357L64 64L74.1538 94.3464Z" fill="#00FFB3"/>
<path d="M73.6226 94.5189C73.4273 94.5805 73.2314 94.6403 73.0349 94.698L64 64L73.6226 94.5189Z" fill="#00FFB7"/>
<path d="M73.0885 94.6822C72.8921 94.7404 72.6953 94.7966 72.4978 94.851L64 64L73.0885 94.6822Z" fill="#00FFBB"/>
<path d="M72.5516 94.8361C72.3543 94.8909 72.1565 94.9437 71.9581 94.9947L64 64L72.5516 94.8361Z" fill="#00FFBF"/>
<path d="M72.0122 94.9807C71.8139 95.032 71.6151 95.0813 71.416 95.1288L64 64L72.0122 94.9807Z" fill="#00FFC4"/>
<path d="M71.4703 95.1158C71.2711 95.1637 71.0716 95.2095 70.8715 95.2536L64 64L71.4703 95.1158Z" fill="#00FFC8"/>
<path d="M70.9261 95.2415C70.7261 95.2856 70.5258 95.328 70.325 95.3686L64 64L70.9261 95.2415Z" fill="#00FFCC"/>
<path d="M70.3798 95.3574C70.1791 95.3981 69.978 95.437 69.7766 95.4742L64 64L70.3798 95.3574Z" fill="#00FFD0"/>
<path d="M69.8315 95.4638C69.6302 95.5018 69.4285 95.5364 69.2265 95.5702L64 64L69.8315 95.4638Z" fill="#00FFD5"/>
<path d="M69.2816 95.5615C69.0795 95.5952 68.8772 95.6264 68.6747 95.6566L64 64L69.2816 95.5615Z" fill="#00FFD9"/>
<path d="M68.7299 95.6489C68.5274 95.6791 68.3246 95.7068 68.1214 95.7336L64 64L68.7299 95.6489Z" fill="#00FFDD"/>
<path d="M68.1769 95.7258C67.9738 95.7526 67.7706 95.7777 67.567 95.8002L64 64L68.1769 95.7258Z" fill="#00FFE1"/>
<path d="M67.6225 95.7942C67.4191 95.8175 67.2153 95.8391 67.0115 95.8582L64 64L67.6225 95.7942Z" fill="#00FFE6"/>
<path d="M67.0671 95.853C66.8632 95.872 66.6592 95.8902 66.455 95.9057L64 64L67.0671 95.853Z" fill="#00FFEA"/>
<path d="M66.5107 95.9014C66.3065 95.9178 66.1022 95.9317 65.8978 95.9438L64 64L66.5107 95.9014Z" fill="#00FFEE"/>
<path d="M65.9536 95.9403C65.7492 95.9524 65.5446 95.9637 65.34 95.9723L64 64L65.9536 95.9403Z" fill="#00FFF2"/>
<path d="M65.3958 95.9697C65.1913 95.9784 64.9866 95.9853 64.7818 95.9905L64 64L65.3958 95.9697Z" fill="#00FFF7"/>
<path d="M64.8376 95.9888C64.6329 95.9948 64.4282 95.9974 64.2234 95.9991L64 64L64.8376 95.9888Z" fill="#00FFFB"/>
<path d="M64.2794 95.9991C64.0746 96.0008 63.8698 96 63.665 95.9982L64.0001 64.0001L64.2794 95.9991Z" fill="#00FFFF"/>
<path d="M63.7208 95.9991C63.5161 95.9974 63.3113 95.9931 63.1066 95.9879L64.0001 64L63.7208 95.9991Z" fill="#00FBFF"/>
<path d="M63.1624 95.9888C62.9577 95.9836 62.753 95.9766 62.5485 95.9671L64 64L63.1624 95.9888Z" fill="#00F7FF"/>
<path d="M62.6043 95.9697C62.3997 95.9602 62.1952 95.9498 61.9908 95.9369L64.0001 64L62.6043 95.9697Z" fill="#00F2FF"/>
<path d="M62.0465 95.9403C61.8421 95.9282 61.6378 95.9135 61.4337 95.8971L64 64L62.0465 95.9403Z" fill="#00EEFF"/>
<path d="M61.4893 95.9014C61.2851 95.885 61.0812 95.8677 60.8773 95.8469L64 64L61.4893 95.9014Z" fill="#00EAFF"/>
<path d="M60.933 95.853C60.7291 95.8331 60.5254 95.8115 60.322 95.7881L64 64L60.933 95.853Z" fill="#00E6FF"/>
<path d="M60.3776 95.7942C60.1741 95.7708 59.9708 95.7457 59.7678 95.7189L64 64L60.3776 95.7942Z" fill="#00E1FF"/>
<path d="M59.8233 95.7258C59.6202 95.6999 59.4174 95.6705 59.215 95.6402L64.0001 64L59.8233 95.7258Z" fill="#00DDFF"/>
<path d="M59.2702 95.6489C59.0676 95.6186 58.8654 95.5857 58.6635 95.552L64 64L59.2702 95.6489Z" fill="#00D9FF"/>
<path d="M58.7185 95.5615C58.5165 95.5278 58.3149 95.4915 58.1135 95.4543L64 64L58.7185 95.5615Z" fill="#00D5FF"/>
<path d="M58.1685 95.4638C57.9672 95.4266 57.7662 95.3877 57.5656 95.3462L64.0001 64L58.1685 95.4638Z" fill="#00D0FF"/>
<path d="M57.6202 95.3574C57.4196 95.3168 57.2193 95.2744 57.0194 95.2294L64 64L57.6202 95.3574Z" fill="#00CCFF"/>
<path d="M57.0738 95.2415C56.874 95.1974 56.6744 95.1507 56.4753 95.1028L63.9999 64L57.0738 95.2415Z" fill="#00C8FF"/>
<path d="M56.5298 95.1158C56.3307 95.068 56.1321 95.0183 55.9338 94.9667L64.0001 64L56.5298 95.1158Z" fill="#00C4FF"/>
<path d="M55.988 94.9808C55.7896 94.9295 55.5918 94.8763 55.3947 94.8212L64.0001 64L55.988 94.9808Z" fill="#00BFFF"/>
<path d="M55.4485 94.8361C55.2511 94.7814 55.0544 94.7248 54.858 94.6663L64.0001 64L55.4485 94.8361Z" fill="#00BBFF"/>
<path d="M54.9115 94.6822C54.7152 94.6241 54.5194 94.5641 54.3242 94.5021L64.0001 64L54.9115 94.6822Z" fill="#00B7FF"/>
<path d="M54.3773 94.5189C54.1821 94.4573 53.9873 94.3939 53.7932 94.3286L63.9999 64L54.3773 94.5189Z" fill="#00B3FF"/>
<path d="M53.8464 94.3464C53.6521 94.2813 53.4586 94.2145 53.2656 94.1458L64.0001 64L53.8464 94.3464Z" fill="#00AEFF"/>
<path d="M53.3182 94.1645C53.1252 94.0962 52.9327 94.0259 52.7411 93.9539L64 64L53.3182 94.1645Z" fill="#00AAFF"/>
<path d="M52.7934 93.9735C52.6016 93.9018 52.4104 93.8282 52.22 93.7528L64 64L52.7934 93.9735Z" fill="#00A6FF"/>
<path d="M52.2721 93.7733C52.0815 93.6983 51.8917 93.6214 51.7026 93.5427L64.0001 64L52.2721 93.7733Z" fill="#00A2FF"/>
<path d="M51.7541 93.5641C51.565 93.4858 51.3765 93.4056 51.1888 93.3236L64 64L51.7541 93.5641Z" fill="#009DFF"/>
<path d="M51.2401 93.3459C51.0524 93.2643 50.8653 93.1808 50.6791 93.0955L64.0001 64L51.2401 93.3459Z" fill="#0099FF"/>
<path d="M50.7298 93.1188C50.5435 93.0339 50.358 92.9471 50.1732 92.8586L64 64L50.7298 93.1188Z" fill="#0095FF"/>
<path d="M50.2237 92.8827C50.0389 92.7946 49.8548 92.7046 49.6718 92.6129L64.0001 64L50.2237 92.8827Z" fill="#0091FF"/>
<path d="M49.7217 92.6379C49.5384 92.5465 49.356 92.4534 49.1746 92.3585L64 64L49.7217 92.6379Z" fill="#008CFF"/>
<path d="M49.2241 92.3843C49.0424 92.2898 48.8617 92.1935 48.6819 92.0955L64 64L49.2241 92.3843Z" fill="#0088FF"/>
<path d="M48.731 92.1222C48.551 92.0245 48.372 91.925 48.194 91.8238L64.0001 64L48.731 92.1222Z" fill="#0084FF"/>
<path d="M48.2424 91.8514C48.0642 91.7506 47.887 91.648 47.7107 91.5438L64 64L48.2424 91.8514Z" fill="#0080FF"/>
<path d="M47.7589 91.5722C47.5825 91.4682 47.407 91.3626 47.2325 91.2553L64.0001 64L47.7589 91.5722Z" fill="#007BFF"/>
<path d="M47.2801 91.2845C47.1055 91.1775 46.9319 91.0688 46.7594 90.9584L64 64L47.2801 91.2845Z" fill="#0077FF"/>
<path d="M46.8064 90.9885C46.6337 90.8785 46.4621 90.7668 46.2915 90.6535L64 64L46.8064 90.9885Z" fill="#0072FF"/>
<path d="M46.3382 90.6844C46.1674 90.5713 45.9977 90.4566 45.8291 90.3404L64.0001 64L46.3382 90.6844Z" fill="#006FFF"/>
<path d="M45.8751 90.3721C45.7063 90.256 45.5387 90.1385 45.3722 90.0192L64.0001 64L45.8751 90.3721Z" fill="#006AFF"/>
<path d="M45.4175 90.0517C45.2507 89.9328 45.0852 89.8122 44.9208 89.6901L64 64L45.4175 90.0517Z" fill="#0066FF"/>
<path d="M44.9656 89.7234C44.801 89.6016 44.6376 89.4782 44.4753 89.3533L63.9999 64L44.9656 89.7234Z" fill="#0062FF"/>
<path d="M44.5196 89.3873C44.3572 89.2626 44.1959 89.1364 44.0359 89.0087L64 64L44.5196 89.3873Z" fill="#005EFF"/>
<path d="M44.0796 89.0435C43.9192 88.916 43.7603 88.7869 43.6024 88.6564L64 64L44.0796 89.0435Z" fill="#0059FF"/>
<path d="M43.6455 88.692C43.4875 88.5617 43.3307 88.4299 43.1753 88.2967L64 64L43.6455 88.692Z" fill="#0055FF"/>
<path d="M43.2176 88.333C43.0619 88.2 42.9075 88.0655 42.7544 87.9295L64 64L43.2176 88.333Z" fill="#0051FF"/>
<path d="M42.7963 87.9666C42.6429 87.8309 42.4908 87.6938 42.3401 87.5551L64.0001 64L42.7963 87.9666Z" fill="#004DFF"/>
<path d="M42.3812 87.5929C42.2302 87.4545 42.0805 87.3147 41.9323 87.1735L64.0001 64L42.3812 87.5929Z" fill="#0048FF"/>
<path d="M41.9727 87.2119C41.8241 87.071 41.6769 86.9286 41.5311 86.7849L64.0001 64L41.9727 87.2119Z" fill="#0044FF"/>
<path d="M41.571 86.824C41.425 86.6805 41.2803 86.5355 41.137 86.3893L64.0001 64L41.571 86.824Z" fill="#0040FF"/>
<path d="M41.176 86.4291C41.0325 86.2831 40.8903 86.1356 40.7496 85.9868L64.0001 64L41.176 86.4291Z" fill="#003CFF"/>
<path d="M40.7881 86.0273C40.6471 85.8788 40.5075 85.7289 40.3695 85.5777L64 64L40.7881 86.0273Z" fill="#0037FF"/>
<path d="M40.4072 85.6189C40.2688 85.4679 40.1319 85.3156 39.9965 85.1619L64 64L40.4072 85.6189Z" fill="#0033FF"/>
<path d="M40.0333 85.2038C39.8976 85.0505 39.7635 84.8958 39.6307 84.7398L63.9999 64L40.0333 85.2038Z" fill="#002FFF"/>
<path d="M39.667 84.7824C39.534 84.6266 39.4026 84.4696 39.2726 84.3114L64 64L39.667 84.7824Z" fill="#002BFF"/>
<path d="M39.308 84.3545C39.1778 84.1965 39.049 84.0372 38.9219 83.8768L64 64L39.308 84.3545Z" fill="#0026FF"/>
<path d="M38.9565 83.9204C38.829 83.7602 38.7031 83.5987 38.5787 83.436L64 64L38.9565 83.9204Z" fill="#0022FF"/>
<path d="M38.6127 83.4804C38.4881 83.3179 38.3649 83.1542 38.2434 82.9894L64 64L38.6127 83.4804Z" fill="#001EFF"/>
<path d="M38.2765 83.0344C38.1548 82.8697 38.0345 82.7039 37.9159 82.537L64 64L38.2765 83.0344Z" fill="#001AFF"/>
<path d="M37.9484 82.5825C37.8294 82.4157 37.7122 82.248 37.5964 82.079L64.0001 64L37.9484 82.5825Z" fill="#0015FF"/>
<path d="M37.628 82.125C37.512 81.9562 37.3977 81.7864 37.2849 81.6154L64.0001 64L37.628 82.125Z" fill="#0011FF"/>
<path d="M37.3157 81.662C37.2027 81.4912 37.0913 81.3194 36.9816 81.1465L64 64L37.3157 81.662Z" fill="#000DFF"/>
<path d="M37.0114 81.1936C36.9014 81.0209 36.793 80.8471 36.6863 80.6723L63.9999 64L37.0114 81.1936Z" fill="#0009FF"/>
<path d="M36.7156 80.7199C36.6086 80.5454 36.5033 80.3697 36.3997 80.193L64.0001 64L36.7156 80.7199Z" fill="#0004FF"/>
<path d="M36.4279 80.2412C36.324 80.0648 36.2217 79.8873 36.1212 79.7089L64.0001 64L36.4279 80.2412Z" fill="#0000FF"/>
<path d="M36.1487 79.7576C36.0478 79.5793 35.9487 79.4001 35.8513 79.22L64.0001 64L36.1487 79.7576Z" fill="#0400FF"/>
<path d="M35.878 79.2691C35.7802 79.0891 35.6842 78.9082 35.59 78.7264L64.0001 64L35.878 79.2691Z" fill="#0900FF"/>
<path d="M35.6157 78.776C35.5212 78.5943 35.4284 78.4118 35.3373 78.2283L64 64L35.6157 78.776Z" fill="#0D00FF"/>
<path d="M35.3622 78.2783C35.2709 78.0951 35.1813 77.9109 35.0934 77.7259L64.0001 64L35.3622 78.2783Z" fill="#1100FF"/>
<path d="M35.1174 77.7763C35.0291 77.5915 34.9427 77.4058 34.8582 77.2194L64 64L35.1174 77.7763Z" fill="#1500FF"/>
<path d="M34.8812 77.2702C34.7963 77.0838 34.7131 76.8967 34.6318 76.7088L64 64L34.8812 77.2702Z" fill="#1A00FF"/>
<path d="M34.6541 76.76C34.5725 76.5722 34.4926 76.3836 34.4146 76.1943L64 64L34.6541 76.76Z" fill="#1E00FF"/>
<path d="M34.4359 76.2459C34.3574 76.0566 34.2809 75.8667 34.2062 75.676L64 64L34.4359 76.2459Z" fill="#2200FF"/>
<path d="M34.2268 75.728C34.1517 75.5375 34.0784 75.3462 34.0071 75.1543L64.0001 64L34.2268 75.728Z" fill="#2600FF"/>
<path d="M34.0265 75.2067C33.9548 75.0148 33.8849 74.8223 33.8169 74.6292L64 64L34.0265 75.2067Z" fill="#2B00FF"/>
<path d="M33.8355 74.6819C33.7671 74.4887 33.7006 74.2951 33.636 74.1008L64 64L33.8355 74.6819Z" fill="#2F00FF"/>
<path d="M33.6537 74.1538C33.5887 73.9595 33.5256 73.7648 33.4644 73.5693L64.0001 64L33.6537 74.1538Z" fill="#3300FF"/>
<path d="M33.4811 73.6226C33.4195 73.4273 33.3599 73.2314 33.302 73.0349L64 64L33.4811 73.6226Z" fill="#3700FF"/>
<path d="M33.3177 73.0885C33.2595 72.8921 33.2033 72.6953 33.1489 72.4978L64 64L33.3177 73.0885Z" fill="#3C00FF"/>
<path d="M33.1639 72.5516C33.1092 72.3543 33.0563 72.1565 33.0054 71.9581L64.0001 64L33.1639 72.5516Z" fill="#4000FF"/>
<path d="M33.0193 72.0122C32.9681 71.8139 32.9187 71.6151 32.8712 71.416L64 64L33.0193 72.0122Z" fill="#4400FF"/>
<path d="M32.8841 71.4703C32.8363 71.2711 32.7905 71.0716 32.7465 70.8715L64 64L32.8841 71.4703Z" fill="#4800FF"/>
<path d="M32.7586 70.9261C32.7142 70.7261 32.6718 70.5258 32.6313 70.325L64 64L32.7586 70.9261Z" fill="#4D00FF"/>
<path d="M32.6424 70.3798C32.6016 70.1791 32.5627 69.978 32.5256 69.7766L64 64L32.6424 70.3798Z" fill="#5100FF"/>
<path d="M32.5359 69.8315C32.4985 69.6302 32.4632 69.4285 32.4297 69.2265L64 64L32.5359 69.8315Z" fill="#5500FF"/>
<path d="M32.439 69.2816C32.4052 69.0795 32.3733 68.8772 32.3434 68.6747L64.0001 64L32.439 69.2816Z" fill="#5900FF"/>
<path d="M32.3515 68.7299C32.3213 68.5274 32.293 68.3245 32.2666 68.1214L64.0001 64L32.3515 68.7299Z" fill="#5E00FF"/>
<path d="M32.2738 68.1769C32.247 67.9738 32.2223 67.7706 32.1995 67.567L64 64L32.2738 68.1769Z" fill="#6200FF"/>
<path d="M32.2056 67.6225C32.1824 67.4191 32.1613 67.2153 32.142 67.0115L64 64L32.2056 67.6225Z" fill="#6600FF"/>
<path d="M32.1474 67.0671C32.1277 66.8632 32.11 66.6592 32.0944 66.455L64 64L32.1474 67.0671Z" fill="#6A00FF"/>
<path d="M32.0988 66.5107C32.0827 66.3065 32.0686 66.1022 32.0564 65.8978L64.0001 64L32.0988 66.5107Z" fill="#6F00FF"/>
<path d="M32.0598 65.9536C32.0473 65.7492 32.0368 65.5446 32.0282 65.34L64.0001 64L32.0598 65.9536Z" fill="#7300FF"/>
<path d="M32.0305 65.3958C32.0215 65.1913 32.0145 64.9866 32.0095 64.7818L64 64L32.0305 65.3958Z" fill="#7700FF"/>
<path d="M32.0111 64.8376C32.0057 64.6329 32.0023 64.4282 32.0009 64.2234L64.0001 64L32.0111 64.8376Z" fill="#7B00FF"/>
<path d="M32.0012 64.2793C31.9994 64.0745 31.9996 63.8697 32.0018 63.6649L64 64L32.0012 64.2793Z" fill="#8000FF"/>
<path d="M32.0012 63.7207C32.003 63.5159 32.0068 63.3112 32.0125 63.1065L64 64L32.0012 63.7207Z" fill="#8400FF"/>
<path d="M32.011 63.1623C32.0163 62.9576 32.0237 62.7529 32.033 62.5484L64 64L32.011 63.1623Z" fill="#8800FF"/>
<path d="M32.0305 62.6042C32.0394 62.3996 32.0503 62.1951 32.0632 61.9907L64.0001 64L32.0305 62.6042Z" fill="#8C00FF"/>
<path d="M32.0598 62.0464C32.0724 61.8421 32.0868 61.6378 32.1032 61.4336L64.0001 64L32.0598 62.0464Z" fill="#9100FF"/>
<path d="M32.0988 61.4893C32.1148 61.2851 32.1328 61.0812 32.1528 60.8773L64.0001 64L32.0988 61.4893Z" fill="#9500FF"/>
<path d="M32.1472 60.9329C32.1668 60.7291 32.1885 60.5254 32.212 60.322L63.9999 64L32.1472 60.9329Z" fill="#9900FF"/>
<path d="M32.2058 60.3774C32.229 60.1739 32.2541 59.9707 32.2811 59.7677L64.0001 63.9999L32.2058 60.3774Z" fill="#9D00FF"/>
<path d="M32.2738 59.8231C32.3005 59.6201 32.3292 59.4173 32.3598 59.2148L64 64L32.2738 59.8231Z" fill="#A200FF"/>
<path d="M32.3516 59.2702C32.3818 59.0676 32.4141 58.8653 32.4483 58.6635L64.0001 64L32.3516 59.2702Z" fill="#A600FF"/>
<path d="M32.4388 58.7184C32.4727 58.5165 32.5084 58.3148 32.5461 58.1135L64 64L32.4388 58.7184Z" fill="#AA00FF"/>
<path d="M32.5359 58.1685C32.5732 57.9671 32.6124 57.7661 32.6536 57.5655L64 64L32.5359 58.1685Z" fill="#AE00FF"/>
<path d="M32.6423 57.6202C32.6832 57.4195 32.7259 57.2193 32.7706 57.0194L63.9999 64L32.6423 57.6202Z" fill="#B300FF"/>
<path d="M32.7585 57.0739C32.8029 56.874 32.8492 56.6745 32.8973 56.4754L64.0001 64L32.7585 57.0739Z" fill="#B700FF"/>
<path d="M32.8842 56.5297C32.932 56.3306 32.9817 56.1319 33.0333 55.9337L64 64L32.8842 56.5297Z" fill="#BB00FF"/>
<path d="M33.0193 55.9878C33.0705 55.7896 33.1237 55.5918 33.1788 55.3946L64 64L33.0193 55.9878Z" fill="#BF00FF"/>
<path d="M33.1638 55.4484C33.2186 55.2511 33.2751 55.0542 33.3337 54.858L64 64L33.1638 55.4484Z" fill="#C400FF"/>
<path d="M33.3177 54.9114C33.3759 54.7151 33.436 54.5193 33.4979 54.3241L64 63.9999L33.3177 54.9114Z" fill="#C800FF"/>
<path d="M33.4811 54.3774C33.5427 54.182 33.6061 53.9873 33.6714 53.7933L64 64L33.4811 54.3774Z" fill="#CC00FF"/>
<path d="M33.6536 53.8462C33.7186 53.652 33.7855 53.4585 33.8541 53.2655L63.9999 63.9999L33.6536 53.8462Z" fill="#D000FF"/>
<path d="M33.8356 53.3181C33.9039 53.1251 33.9741 52.9327 34.0462 52.7411L64.0001 64L33.8356 53.3181Z" fill="#D500FF"/>
<path d="M34.0265 52.7934C34.0983 52.6015 34.1718 52.4105 34.2472 52.22L64 64L34.0265 52.7934Z" fill="#D900FF"/>
<path d="M34.2267 52.2719C34.3017 52.0813 34.3786 51.8916 34.4573 51.7025L64 63.9999L34.2267 52.2719Z" fill="#DD00FF"/>
<path d="M34.4359 51.7541C34.5143 51.5649 34.5944 51.3765 34.6764 51.1888L64 64L34.4359 51.7541Z" fill="#E100FF"/>
<path d="M34.6541 51.2401C34.7357 51.0522 34.8192 50.8652 34.9044 50.679L64 64L34.6541 51.2401Z" fill="#E600FF"/>
<path d="M34.8813 50.7298C34.9662 50.5435 35.0529 50.358 35.1414 50.1732L64.0001 64L34.8813 50.7298Z" fill="#EA00FF"/>
<path d="M35.1173 50.2236C35.2055 50.0387 35.2955 49.8548 35.3871 49.6717L64.0001 64L35.1173 50.2236Z" fill="#EE00FF"/>
<path d="M35.3622 49.7216C35.4535 49.5384 35.5467 49.356 35.6415 49.1744L64 64L35.3622 49.7216Z" fill="#F200FF"/>
<path d="M35.6157 49.224C35.7103 49.0424 35.8066 48.8616 35.9046 48.6818L64.0001 64L35.6157 49.224Z" fill="#F700FF"/>
<path d="M35.8779 48.7309C35.9756 48.5509 36.075 48.3719 36.1762 48.1939L64 64L35.8779 48.7309Z" fill="#FB00FF"/>
<path d="M36.1487 48.2424C36.2495 48.0642 36.3521 47.887 36.4563 47.7107L64.0001 64L36.1487 48.2424Z" fill="#FF00FF"/>
<path d="M36.428 47.7588C36.5319 47.5823 36.6375 47.4069 36.7449 47.2324L64.0001 64L36.428 47.7588Z" fill="#FF00FB"/>
<path d="M36.7156 47.28C36.8226 47.1055 36.9313 46.9319 37.0416 46.7593L64.0001 64L36.7156 47.28Z" fill="#FF00F7"/>
<path d="M37.0115 46.8064C37.1215 46.6337 37.2332 46.462 37.3465 46.2914L64 64L37.0115 46.8064Z" fill="#FF00F2"/>
<path d="M37.3157 46.338C37.4287 46.1672 37.5434 45.9975 37.6597 45.829L64 64L37.3157 46.338Z" fill="#FF00EE"/>
<path d="M37.6279 45.875C37.7439 45.7061 37.8615 45.5385 37.9808 45.3719L64 63.9999L37.6279 45.875Z" fill="#FF00EA"/>
<path d="M37.9482 45.4175C38.0672 45.2507 38.1877 45.0852 38.3098 44.9208L64 64L37.9482 45.4175Z" fill="#FF00E6"/>
<path d="M38.2766 44.9657C38.3984 44.801 38.5218 44.6375 38.6468 44.4753L64 64L38.2766 44.9657Z" fill="#FF00E1"/>
<path d="M38.6128 44.5196C38.7375 44.3572 38.8637 44.1959 38.9915 44.0359L64.0001 64L38.6128 44.5196Z" fill="#FF00DD"/>
<path d="M38.9567 44.0796C39.0841 43.9192 39.2132 43.7603 39.3437 43.6024L64.0001 64L38.9567 44.0796Z" fill="#FF00D9"/>
<path d="M39.3081 43.6455C39.4384 43.4874 39.5702 43.3306 39.7034 43.1752L64.0001 64L39.3081 43.6455Z" fill="#FF00D5"/>
<path d="M39.667 43.2176C39.8 43.062 39.9345 42.9075 40.0705 42.7543L64 64L39.667 43.2176Z" fill="#FF00D0"/>
<path d="M40.0334 42.7962C40.1691 42.6428 40.3063 42.4907 40.4449 42.34L64.0001 64L40.0334 42.7962Z" fill="#FF00CC"/>
<path d="M40.4072 42.3811C40.5455 42.2301 40.6854 42.0804 40.8266 41.9322L64.0001 64L40.4072 42.3811Z" fill="#FF00C8"/>
<path d="M40.7881 41.9727C40.9291 41.8241 41.0714 41.6769 41.2152 41.5311L64 64L40.7881 41.9727Z" fill="#FF00C4"/>
<path d="M41.176 41.5708C41.3196 41.4248 41.4645 41.2801 41.6109 41.1368L64.0001 64L41.176 41.5708Z" fill="#FF00BF"/>
<path d="M41.5709 41.176C41.717 41.0325 41.8644 40.8903 42.0132 40.7496L64 64L41.5709 41.176Z" fill="#FF00BB"/>
<path d="M41.9727 40.7879C42.1212 40.6469 42.2711 40.5074 42.4223 40.3693L64 63.9999L41.9727 40.7879Z" fill="#FF00B7"/>
<path d="M42.3812 40.407C42.5322 40.2687 42.6845 40.1318 42.8381 39.9964L64.0001 63.9999L42.3812 40.407Z" fill="#FF00B3"/>
<path d="M42.7963 40.0333C42.9496 39.8976 43.1042 39.7634 43.2603 39.6307L64.0001 63.9999L42.7963 40.0333Z" fill="#FF00AE"/>
<path d="M43.2177 39.667C43.3734 39.534 43.5304 39.4026 43.6887 39.2726L64 64L43.2177 39.667Z" fill="#FF00AA"/>
<path d="M43.6455 39.308C43.8035 39.1778 43.9628 39.049 44.1233 38.9218L64 64L43.6455 39.308Z" fill="#FF00A6"/>
<path d="M44.0796 38.9565C44.2398 38.829 44.4013 38.7031 44.564 38.5787L64 64L44.0796 38.9565Z" fill="#FF00A2"/>
<path d="M44.5197 38.6126C44.6822 38.488 44.8458 38.3649 45.0106 38.2433L64 64L44.5197 38.6126Z" fill="#FF009D"/>
<path d="M44.9657 38.2765C45.1304 38.1548 45.2962 38.0345 45.4631 37.9159L64.0001 64L44.9657 38.2765Z" fill="#FF0099"/>
<path d="M45.4176 37.9482C45.5843 37.8293 45.7522 37.712 45.9211 37.5963L64.0001 63.9999L45.4176 37.9482Z" fill="#FF0095"/>
<path d="M45.8751 37.6279C46.0439 37.512 46.2137 37.3976 46.3847 37.2849L64.0001 64L45.8751 37.6279Z" fill="#FF0091"/>
<path d="M46.3381 37.3157C46.5089 37.2026 46.6808 37.0912 46.8537 36.9816L64.0001 64L46.3381 37.3157Z" fill="#FF008C"/>
<path d="M46.8064 37.0114C46.9791 36.9014 47.1529 36.7931 47.3277 36.6863L64 64L46.8064 37.0114Z" fill="#FF0088"/>
<path d="M47.28 36.7155C47.4546 36.6085 47.6302 36.5031 47.8069 36.3995L63.9999 64L47.28 36.7155Z" fill="#FF0084"/>
<path d="M47.7589 36.4278C47.9353 36.3239 48.1128 36.2217 48.2912 36.1212L64.0001 64L47.7589 36.4278Z" fill="#FF0080"/>
<path d="M48.2424 36.1486C48.4207 36.0478 48.5999 35.9486 48.78 35.8513L64 64L48.2424 36.1486Z" fill="#FF007B"/>
<path d="M48.7308 35.8778C48.9108 35.7801 49.0917 35.6841 49.2735 35.5898L63.9999 64L48.7308 35.8778Z" fill="#FF0077"/>
<path d="M49.224 35.6157C49.4056 35.5212 49.5882 35.4283 49.7716 35.3373L64 64L49.224 35.6157Z" fill="#FF0073"/>
<path d="M49.7217 35.3621C49.9049 35.2707 50.0891 35.181 50.2741 35.0933L64 64L49.7217 35.3621Z" fill="#FF006F"/>
<path d="M50.2238 35.1172C50.4086 35.0291 50.5943 34.9427 50.7808 34.8581L64.0001 64L50.2238 35.1172Z" fill="#FF006A"/>
<path d="M50.7299 34.8812C50.9162 34.7963 51.1034 34.7132 51.2913 34.6319L64.0001 64L50.7299 34.8812Z" fill="#FF0066"/>
<path d="M51.24 34.6541C51.4278 34.5724 51.6164 34.4925 51.8057 34.4145L63.9999 64L51.24 34.6541Z" fill="#FF0062"/>
<path d="M51.7542 34.4359C51.9434 34.3574 52.1333 34.2809 52.324 34.2062L64 64L51.7542 34.4359Z" fill="#FF005E"/>
<path d="M52.2721 34.2265C52.4626 34.1516 52.6538 34.0783 52.8458 34.007L64.0001 64L52.2721 34.2265Z" fill="#FF0059"/>
<path d="M52.7933 34.0265C52.9852 33.9548 53.1777 33.8849 53.3708 33.8169L64 64L52.7933 34.0265Z" fill="#FF0055"/>
<path d="M53.3181 33.8355C53.5112 33.7671 53.7049 33.7006 53.8992 33.636L64 64L53.3181 33.8355Z" fill="#FF0051"/>
<path d="M53.8463 33.6536C54.0406 33.5886 54.2353 33.5255 54.4308 33.4642L64.0001 63.9999L53.8463 33.6536Z" fill="#FF004D"/>
<path d="M54.3774 33.4811C54.5727 33.4195 54.7686 33.3597 54.9651 33.3019L64 64L54.3774 33.4811Z" fill="#FF0048"/>
<path d="M54.9116 33.3178C55.1079 33.2596 55.3049 33.2033 55.5022 33.149L64.0001 64L54.9116 33.3178Z" fill="#FF0044"/>
<path d="M55.4484 33.1638C55.6457 33.109 55.8435 33.0562 56.0419 33.0052L64 63.9999L55.4484 33.1638Z" fill="#FF0040"/>
<path d="M55.988 33.0192C56.1863 32.968 56.385 32.9186 56.5843 32.8712L64.0001 64L55.988 33.0192Z" fill="#FF003C"/>
<path d="M56.5298 32.8841C56.729 32.8363 56.9285 32.7905 57.1285 32.7465L64.0001 64L56.5298 32.8841Z" fill="#FF0037"/>
<path d="M57.074 32.7585C57.2739 32.7142 57.4743 32.6718 57.6751 32.6313L64.0001 64L57.074 32.7585Z" fill="#FF0033"/>
<path d="M57.6202 32.6424C57.8209 32.6016 58.022 32.5627 58.2234 32.5256L64 64L57.6202 32.6424Z" fill="#FF002F"/>
<path d="M58.1685 32.5358C58.3698 32.4985 58.5715 32.4631 58.7735 32.4296L64 64L58.1685 32.5358Z" fill="#FF002B"/>
<path d="M58.7185 32.4388C58.9205 32.405 59.1228 32.3731 59.3254 32.3432L64.0001 63.9999L58.7185 32.4388Z" fill="#FF0026"/>
<path d="M59.2701 32.3514C59.4727 32.3211 59.6755 32.2929 59.8786 32.2665L64 63.9999L59.2701 32.3514Z" fill="#FF0022"/>
<path d="M59.8231 32.2737C60.0262 32.247 60.2294 32.2222 60.4329 32.1994L64 64L59.8231 32.2737Z" fill="#FF001E"/>
<path d="M60.3776 32.2056C60.5811 32.1824 60.7847 32.1613 60.9886 32.142L64 64L60.3776 32.2056Z" fill="#FF001A"/>
<path d="M60.933 32.1473C61.1368 32.1276 61.3409 32.11 61.545 32.0942L64.0001 64L60.933 32.1473Z" fill="#FF0015"/>
<path d="M61.4894 32.0987C61.6936 32.0826 61.8979 32.0685 62.1023 32.0563L64.0001 64L61.4894 32.0987Z" fill="#FF0011"/>
<path d="M62.0465 32.0596C62.251 32.0472 62.4554 32.0366 62.66 32.0281L64.0001 64L62.0465 32.0596Z" fill="#FF000D"/>
<path d="M62.6042 32.0305C62.8088 32.0215 63.0135 32.0145 63.2182 32.0095L64.0001 64L62.6042 32.0305Z" fill="#FF0009"/>
<path d="M63.1624 32.0109C63.3671 32.0056 63.5718 32.0022 63.7766 32.0007L64 64L63.1624 32.0109Z" fill="#FF0004"/>
<path d="M64 96C81.6732 96 96 81.6731 96 64C96 46.3268 81.6732 32 64 32C46.3269 32 32 46.3268 32 64C32 81.6731 46.3269 96 64 96Z" fill="url(#paint2_radial_1136_3)"/>
</g>
</g>
</g>
<defs>
<filter id="filter0_ii_1136_3" x="0" y="0" width="128" height="129" filterUnits="userSpaceOnUse" color-interpolation-filters="sRGB">
<feFlood flood-opacity="0" result="BackgroundImageFix"/>
<feBlend mode="normal" in="SourceGraphic" in2="BackgroundImageFix" result="shape"/>
<feColorMatrix in="SourceAlpha" type="matrix" values="0 0 0 0 0 0 0 0 0 0 0 0 0 0 0 0 0 0 127 0" result="hardAlpha"/>
<feOffset dy="-4"/>
<feComposite in2="hardAlpha" operator="arithmetic" k2="-1" k3="1"/>
<feColorMatrix type="matrix" values="0 0 0 0 0 0 0 0 0 0 0 0 0 0 0 0 0 0 0.25 0"/>
<feBlend mode="normal" in2="shape" result="effect1_innerShadow_1136_3"/>
<feColorMatrix in="SourceAlpha" type="matrix" values="0 0 0 0 0 0 0 0 0 0 0 0 0 0 0 0 0 0 127 0" result="hardAlpha"/>
<feMorphology radius="1" operator="erode" in="SourceAlpha" result="effect2_innerShadow_1136_3"/>
<feOffset dy="2"/>
<feComposite in2="hardAlpha" operator="arithmetic" k2="-1" k3="1"/>
<feColorMatrix type="matrix" values="0 0 0 0 1 0 0 0 0 1 0 0 0 0 1 0 0 0 0.25 0"/>
<feBlend mode="normal" in2="effect1_innerShadow_1136_3" result="effect2_innerShadow_1136_3"/>
</filter>
<filter id="filter1_ii_1136_3" x="12" y="12" width="104" height="105" filterUnits="userSpaceOnUse" color-interpolation-filters="sRGB">
<feFlood flood-opacity="0" result="BackgroundImageFix"/>
<feBlend mode="normal" in="SourceGraphic" in2="BackgroundImageFix" result="shape"/>
<feColorMatrix in="SourceAlpha" type="matrix" values="0 0 0 0 0 0 0 0 0 0 0 0 0 0 0 0 0 0 127 0" result="hardAlpha"/>
<feOffset dy="-4"/>
<feComposite in2="hardAlpha" operator="arithmetic" k2="-1" k3="1"/>
<feColorMatrix type="matrix" values="0 0 0 0 0 0 0 0 0 0 0 0 0 0 0 0 0 0 0.25 0"/>
<feBlend mode="normal" in2="shape" result="effect1_innerShadow_1136_3"/>
<feColorMatrix in="SourceAlpha" type="matrix" values="0 0 0 0 0 0 0 0 0 0 0 0 0 0 0 0 0 0 127 0" result="hardAlpha"/>
<feMorphology radius="1" operator="erode" in="SourceAlpha" result="effect2_innerShadow_1136_3"/>
<feOffset dy="2"/>
<feComposite in2="hardAlpha" operator="arithmetic" k2="-1" k3="1"/>
<feColorMatrix type="matrix" values="0 0 0 0 1 0 0 0 0 1 0 0 0 0 1 0 0 0 0.25 0"/>
<feBlend mode="normal" in2="effect1_innerShadow_1136_3" result="effect2_innerShadow_1136_3"/>
</filter>
<filter id="filter2_ii_1136_3" x="32" y="29.9999" width="64.0004" height="70.0001" filterUnits="userSpaceOnUse" color-interpolation-filters="sRGB">
<feFlood flood-opacity="0" result="BackgroundImageFix"/>
<feBlend mode="normal" in="SourceGraphic" in2="BackgroundImageFix" result="shape"/>
<feColorMatrix in="SourceAlpha" type="matrix" values="0 0 0 0 0 0 0 0 0 0 0 0 0 0 0 0 0 0 127 0" result="hardAlpha"/>
<feOffset dy="4"/>
<feGaussianBlur stdDeviation="2"/>
<feComposite in2="hardAlpha" operator="arithmetic" k2="-1" k3="1"/>
<feColorMatrix type="matrix" values="0 0 0 0 0 0 0 0 0 0 0 0 0 0 0 0 0 0 0.25 0"/>
<feBlend mode="normal" in2="shape" result="effect1_innerShadow_1136_3"/>
<feColorMatrix in="SourceAlpha" type="matrix" values="0 0 0 0 0 0 0 0 0 0 0 0 0 0 0 0 0 0 127 0" result="hardAlpha"/>
<feMorphology radius="1" operator="erode" in="SourceAlpha" result="effect2_innerShadow_1136_3"/>
<feOffset dy="-2"/>
<feGaussianBlur stdDeviation="1"/>
<feComposite in2="hardAlpha" operator="arithmetic" k2="-1" k3="1"/>
<feColorMatrix type="matrix" values="0 0 0 0 1 0 0 0 0 1 0 0 0 0 1 0 0 0 0.25 0"/>
<feBlend mode="normal" in2="effect1_innerShadow_1136_3" result="effect2_innerShadow_1136_3"/>
</filter>
<linearGradient id="paint0_linear_1136_3" x1="34.75" y1="12" x2="91.625" y2="116" gradientUnits="userSpaceOnUse">
<stop/>
<stop offset="1" stop-color="#484848"/>
</linearGradient>
<linearGradient id="paint1_linear_1136_3" x1="27.4375" y1="12" x2="100.563" y2="116" gradientUnits="userSpaceOnUse">
<stop stop-color="#D9D9D9"/>
<stop offset="1" stop-color="#828292"/>
</linearGradient>
<radialGradient id="paint2_radial_1136_3" cx="0" cy="0" r="1" gradientUnits="userSpaceOnUse" gradientTransform="translate(64 64) scale(32)">
<stop stop-color="white"/>
<stop offset="1" stop-color="white" stop-opacity="0"/>
</radialGradient>
</defs>
</svg>
