<svg width="128" height="128" viewBox="0 0 128 128" fill="none" xmlns="http://www.w3.org/2000/svg">
<g clip-path="url(#clip0_1136_3)" filter="url(#filter0_ii_1136_3)">
<path d="M30.7692 5H97.2308C111.463 5 123 16.5373 123 30.7692V97.2308C123 111.463 111.463 123 97.2308 123H30.7692C16.5373 123 5 111.463 5 97.2308V30.7692C5 16.5373 16.5373 5 30.7692 5Z" fill="url(#paint0_linear_1136_3)" stroke="url(#paint1_linear_1136_3)" stroke-width="10"/>
<mask id="mask0_1136_3" style="mask-type:luminance" maskUnits="userSpaceOnUse" x="24" y="24" width="80" height="80">
<path d="M104 24H24V104H104V24Z" fill="white"/>
</mask>
<g mask="url(#mask0_1136_3)">
<g filter="url(#filter1_ii_1136_3)">
<path d="M63.651 24.0015C63.907 23.9992 64.163 23.9994 64.419 24.0021L64.0001 64L63.651 24.0015Z" fill="#FF0000"/>
<path d="M64.3491 24.0015C64.6051 24.0038 64.861 24.0084 65.1169 24.0156L64 64L64.3491 24.0015Z" fill="#FF0400"/>
<path d="M65.047 24.0137C65.3029 24.0204 65.5588 24.0295 65.8145 24.0412L64 64L65.047 24.0137Z" fill="#FF0900"/>
<path d="M65.7448 24.038C66.0005 24.0492 66.2561 24.0628 66.5116 24.0789L64 64L65.7448 24.038Z" fill="#FF0D00"/>
<path d="M66.4419 24.0746C66.6974 24.0903 66.9528 24.1083 67.208 24.1289L64 64L66.4419 24.0746Z" fill="#FF1100"/>
<path d="M67.1384 24.1234C67.3935 24.1434 67.6485 24.1659 67.9034 24.1909L64 64L67.1384 24.1234Z" fill="#FF1500"/>
<path d="M67.8338 24.1841C68.0887 24.2086 68.3432 24.2356 68.5975 24.2651L64 64L67.8338 24.1841Z" fill="#FF1A00"/>
<path d="M68.5281 24.2571C68.7825 24.2861 69.0365 24.3175 69.2903 24.3514L64 64L68.5281 24.2571Z" fill="#FF1E00"/>
<path d="M69.2211 24.3421C69.4748 24.3755 69.7283 24.4114 69.9814 24.4497L64 63.9999L69.2211 24.3421Z" fill="#FF2200"/>
<path d="M69.9123 24.4393C70.1655 24.4772 70.4184 24.5174 70.6707 24.5601L64 64L69.9123 24.4393Z" fill="#FF2600"/>
<path d="M70.6019 24.5485C70.8544 24.5908 71.1065 24.6354 71.3581 24.6826L64 64L70.6019 24.5485Z" fill="#FF2B00"/>
<path d="M71.2894 24.6698C71.5411 24.7164 71.7923 24.7655 72.0431 24.8169L64 64L71.2894 24.6698Z" fill="#FF2F00"/>
<path d="M71.9747 24.803C72.2255 24.8541 72.4759 24.9075 72.7257 24.9634L64 64L71.9747 24.803Z" fill="#FF3300"/>
<path d="M72.6576 24.9481C72.9075 25.0035 73.1569 25.0614 73.4057 25.1215L64 64L72.6576 24.9481Z" fill="#FF3700"/>
<path d="M73.3378 25.1052C73.5867 25.1649 73.835 25.2271 74.0828 25.2916L64 64L73.3378 25.1052Z" fill="#FF3C00"/>
<path d="M74.0152 25.274C74.263 25.3382 74.5103 25.4046 74.7568 25.4735L64 64L74.0152 25.274Z" fill="#FF4000"/>
<path d="M74.6895 25.4548C74.9362 25.5233 75.1823 25.594 75.4276 25.6672L64 64L74.6895 25.4548Z" fill="#FF4400"/>
<path d="M75.3606 25.6472C75.6061 25.7199 75.8508 25.7949 76.0948 25.8723L64 64L75.3606 25.6472Z" fill="#FF4800"/>
<path d="M76.0282 25.8513C76.2723 25.9283 76.5158 26.0075 76.7584 26.0893L64 64L76.0282 25.8513Z" fill="#FF4D00"/>
<path d="M76.6922 26.067C76.9349 26.1483 77.1769 26.2318 77.4181 26.3177L64 64L76.6922 26.067Z" fill="#FF5100"/>
<path d="M77.3523 26.2943C77.5936 26.3797 77.8341 26.4675 78.0736 26.5576L64 63.9999L77.3523 26.2943Z" fill="#FF5500"/>
<path d="M78.0083 26.5331C78.2481 26.6227 78.487 26.7147 78.725 26.809L64 64L78.0083 26.5331Z" fill="#FF5900"/>
<path d="M78.66 26.7832C78.8983 26.877 79.1355 26.9731 79.3718 27.0715L64 64L78.66 26.7832Z" fill="#FF5E00"/>
<path d="M79.3074 27.0448C79.5439 27.1427 79.7793 27.243 80.0139 27.3454L64 63.9999L79.3074 27.0448Z" fill="#FF6200"/>
<path d="M79.9499 27.3176C80.1848 27.4197 80.4185 27.524 80.6512 27.6306L64 64L79.9499 27.3176Z" fill="#FF6600"/>
<path d="M80.5877 27.6014C80.8206 27.7076 81.0525 27.816 81.2835 27.9266L64 63.9999L80.5877 27.6014Z" fill="#FF6A00"/>
<path d="M81.2204 27.8965C81.4515 28.0068 81.6815 28.1192 81.9104 28.2338L64 63.9999L81.2204 27.8965Z" fill="#FF6F00"/>
<path d="M81.8479 28.2026C82.077 28.3168 82.305 28.4333 82.5319 28.5519L64 64L81.8479 28.2026Z" fill="#FF7300"/>
<path d="M82.4699 28.5196C82.697 28.6378 82.9229 28.7582 83.1477 28.8807L64 64L82.4699 28.5196Z" fill="#FF7700"/>
<path d="M83.0864 28.8473C83.3114 28.9693 83.5351 29.0937 83.7576 29.2202L64 63.9999L83.0864 28.8473Z" fill="#FF7B00"/>
<path d="M83.697 29.1857C83.9198 29.3117 84.1413 29.4399 84.3616 29.5702L64 63.9999L83.697 29.1857Z" fill="#FF8000"/>
<path d="M84.3015 29.5348C84.5221 29.6647 84.7414 29.7967 84.9595 29.9309L64 64L84.3015 29.5348Z" fill="#FF8400"/>
<path d="M84.8999 29.8943C85.1182 30.0281 85.3351 30.164 85.5508 30.3019L64 64L84.8999 29.8943Z" fill="#FF8800"/>
<path d="M85.492 30.2643C85.7079 30.4019 85.9225 30.5415 86.1357 30.6832L64 64L85.492 30.2643Z" fill="#FF8C00"/>
<path d="M86.0775 30.6445C86.2909 30.7858 86.503 30.9292 86.7137 31.0746L64 64L86.0775 30.6445Z" fill="#FF9100"/>
<path d="M86.6562 31.0349C86.8672 31.1798 87.0768 31.3268 87.285 31.4759L64 63.9999L86.6562 31.0349Z" fill="#FF9500"/>
<path d="M87.2281 31.4354C87.4365 31.584 87.6435 31.7347 87.849 31.8873L64 64L87.2281 31.4354Z" fill="#FF9900"/>
<path d="M87.7929 31.8457C87.9987 31.9979 88.203 32.1522 88.4058 32.3084L64 64L87.7929 31.8457Z" fill="#FF9D00"/>
<path d="M88.3505 32.2658C88.5535 32.4217 88.7551 32.5794 88.9552 32.7391L64 64L88.3505 32.2658Z" fill="#FFA200"/>
<path d="M88.9005 32.6956C89.1009 32.855 89.2997 33.0163 89.497 33.1794L64 63.9999L88.9005 32.6956Z" fill="#FFA600"/>
<path d="M89.4431 33.135C89.6406 33.2978 89.8366 33.4626 90.0309 33.6292L64 64L89.4431 33.135Z" fill="#FFAA00"/>
<path d="M89.9779 33.5838C90.1725 33.7501 90.3656 33.9182 90.5571 34.0881L64 64L89.9779 33.5838Z" fill="#FFAE00"/>
<path d="M90.5048 34.0417C90.6965 34.2113 90.8866 34.3828 91.075 34.5561L64 64L90.5048 34.0417Z" fill="#FFB300"/>
<path d="M91.0236 34.5089C91.2123 34.6818 91.3994 34.8565 91.5848 35.0331L64 64L91.0236 34.5089Z" fill="#FFB700"/>
<path d="M91.5342 34.9849C91.7199 35.1611 91.9039 35.3392 92.0862 35.5189L64 64L91.5342 34.9849Z" fill="#FFBB00"/>
<path d="M91.5342 34.9849C91.7199 35.1611 91.9039 35.3392 92.0862 35.5189L64 64L91.5342 34.9849Z" fill="#FFBB00"/>
<path d="M92.0363 35.4699C92.2189 35.6494 92.3998 35.8306 92.5789 36.0134L64 64L92.0363 35.4699Z" fill="#FFBF00"/>
<path d="M92.5301 35.9636C92.7094 36.1462 92.8871 36.3305 93.063 36.5164L64 64L92.5301 35.9636Z" fill="#FFC400"/>
<path d="M93.0149 36.4658C93.1911 36.6514 93.3656 36.8388 93.5382 37.0279L64 64L93.0149 36.4658Z" fill="#FFC800"/>
<path d="M93.4911 36.9764C93.664 37.165 93.8351 37.3554 94.0044 37.5475L64 63.9999L93.4911 36.9764Z" fill="#FFCC00"/>
<path d="M93.9583 37.4952C94.1279 37.6869 94.2957 37.8802 94.4615 38.0752L64 64L93.9583 37.4952Z" fill="#FFD000"/>
<path d="M94.4162 38.022C94.5825 38.2167 94.7468 38.413 94.9093 38.6108L64 64L94.4162 38.022Z" fill="#FFD500"/>
<path d="M94.865 38.5568C95.0278 38.7543 95.1888 38.9535 95.3478 39.154L64 64L94.865 38.5568Z" fill="#FFD900"/>
<path d="M95.3043 39.0993C95.4637 39.2997 95.6211 39.5016 95.7765 39.7049L64 64L95.3043 39.0993Z" fill="#FFDD00"/>
<path d="M95.7342 39.6495C95.89 39.8526 96.0439 40.0572 96.1958 40.2632L64 64L95.7342 39.6495Z" fill="#FFE100"/>
<path d="M96.1543 40.207C96.3066 40.4128 96.4569 40.6201 96.6051 40.8287L64 63.9999L96.1543 40.207Z" fill="#FFE600"/>
<path d="M96.5646 40.7719C96.7133 40.9803 96.8599 41.19 97.0045 41.4013L64 64L96.5646 40.7719Z" fill="#FFEA00"/>
<path d="M96.9651 41.3438C97.1101 41.5547 97.253 41.767 97.3939 41.9807L64 64L96.9651 41.3438Z" fill="#FFEE00"/>
<path d="M97.3555 41.9224C97.4968 42.1359 97.6359 42.3507 97.7731 42.5669L64 63.9999L97.3555 41.9224Z" fill="#FFF200"/>
<path d="M97.7357 42.508C97.8732 42.7239 98.0086 42.9411 98.1421 43.1596L64 64L97.7357 42.508Z" fill="#FFF700"/>
<path d="M98.1056 43.1001C98.2393 43.3183 98.371 43.5378 98.5005 43.7587L64 64L98.1056 43.1001Z" fill="#FFFB00"/>
<path d="M98.4652 43.6984C98.595 43.919 98.7229 44.1408 98.8485 44.3637L64 63.9999L98.4652 43.6984Z" fill="#FFFF00"/>
<path d="M98.8143 44.303C98.9403 44.5258 99.0642 44.7498 99.1859 44.975L64 64L98.8143 44.303Z" fill="#FBFF00"/>
<path d="M99.1526 44.9136C99.2748 45.1386 99.3948 45.3648 99.5126 45.592L64 64L99.1526 44.9136Z" fill="#F7FF00"/>
<path d="M99.4804 45.53C99.5986 45.7571 99.7146 45.9853 99.8284 46.2146L64 64L99.4804 45.53Z" fill="#F2FF00"/>
<path d="M99.7974 46.152C99.9116 46.3811 100.024 46.6113 100.133 46.8425L64 63.9999L99.7974 46.152Z" fill="#EEFF00"/>
<path d="M100.103 46.7795C100.214 47.0105 100.322 47.2426 100.427 47.4757L64 63.9999L100.103 46.7795Z" fill="#EAFF00"/>
<path d="M100.398 47.4122C100.505 47.6451 100.609 47.8791 100.71 48.114L64 64L100.398 47.4122Z" fill="#E6FF00"/>
<path d="M100.682 48.05C100.784 48.2848 100.884 48.5205 100.982 48.7572L64 64L100.682 48.05Z" fill="#E1FF00"/>
<path d="M100.955 48.6926C101.053 48.9292 101.149 49.1666 101.242 49.4048L64 64L100.955 48.6926Z" fill="#DDFF00"/>
<path d="M101.217 49.34C101.311 49.5781 101.402 49.8172 101.491 50.057L64 64L101.217 49.34Z" fill="#D9FF00"/>
<path d="M101.467 49.9917C101.557 50.2315 101.644 50.4721 101.729 50.7135L64 64L101.467 49.9917Z" fill="#D5FF00"/>
<path d="M101.706 50.6476C101.791 50.8889 101.874 51.1311 101.955 51.374L64 64L101.706 50.6476Z" fill="#D0FF00"/>
<path d="M101.933 51.3078C102.014 51.5506 102.093 51.7941 102.17 52.0384L64 64L101.933 51.3078Z" fill="#CCFF00"/>
<path d="M102.149 51.9718C102.226 52.2159 102.3 52.4608 102.373 52.7064L64 64L102.149 51.9718Z" fill="#C8FF00"/>
<path d="M102.353 52.6393C102.426 52.8849 102.496 53.1309 102.564 53.3777L64 64L102.353 52.6393Z" fill="#C4FF00"/>
<path d="M102.545 53.3105C102.614 53.5572 102.68 53.8044 102.743 54.0524L64 64L102.545 53.3105Z" fill="#BFFF00"/>
<path d="M102.726 53.9847C102.79 54.2326 102.852 54.4811 102.911 54.73L64 64L102.726 53.9847Z" fill="#BBFF00"/>
<path d="M102.895 54.6622C102.955 54.911 103.012 55.1605 103.067 55.4106L64 64L102.895 54.6622Z" fill="#B7FF00"/>
<path d="M103.052 55.3424C103.107 55.5924 103.16 55.8428 103.211 56.0938L64 64L103.052 55.3424Z" fill="#B3FF00"/>
<path d="M103.197 56.0253C103.248 56.2761 103.296 56.5274 103.343 56.7792L64 64L103.197 56.0253Z" fill="#AEFF00"/>
<path d="M103.33 56.7106C103.377 56.9622 103.421 57.2144 103.463 57.4669L64 64L103.33 56.7106Z" fill="#AAFF00"/>
<path d="M103.452 57.3981C103.494 57.6506 103.533 57.9035 103.571 58.1567L64 64L103.452 57.3981Z" fill="#A6FF00"/>
<path d="M103.561 58.0876C103.599 58.3408 103.634 58.5943 103.667 58.8482L64 64L103.561 58.0876Z" fill="#A2FF00"/>
<path d="M103.657 58.7789C103.691 59.0327 103.722 59.2868 103.75 59.5411L64 63.9999L103.657 58.7789Z" fill="#9EFF00"/>
<path d="M103.743 59.4719C103.772 59.7262 103.799 59.9808 103.823 60.2356L64 64L103.743 59.4719Z" fill="#99FF00"/>
<path d="M103.816 60.1661C103.84 60.4209 103.863 60.676 103.882 60.9312L64 64L103.816 60.1661Z" fill="#95FF00"/>
<path d="M103.877 60.8616C103.897 61.1169 103.915 61.3722 103.93 61.6278L64 64L103.877 60.8616Z" fill="#91FF00"/>
<path d="M103.925 61.558C103.941 61.8136 103.955 62.0691 103.965 62.3249L64 63.9999L103.925 61.558Z" fill="#8CFF00"/>
<path d="M103.962 62.2552C103.973 62.5109 103.982 62.7668 103.988 63.0227L64 64L103.962 62.2552Z" fill="#88FF00"/>
<path d="M103.986 62.9528C103.994 63.2088 103.997 63.4647 103.999 63.7207L64 64L103.986 62.9528Z" fill="#84FF00"/>
<path d="M103.999 63.6509C104.001 63.9069 104.001 64.1629 103.998 64.4189L64.0001 64L103.999 63.6509Z" fill="#80FF00"/>
<path d="M103.999 64.3491C103.997 64.6051 103.991 64.861 103.985 65.1169L64 64L103.999 64.3491Z" fill="#7BFF00"/>
<path d="M103.986 65.047C103.979 65.303 103.971 65.5588 103.959 65.8145L64 64L103.986 65.047Z" fill="#77FF00"/>
<path d="M103.962 65.7448C103.95 66.0005 103.937 66.2561 103.921 66.5116L64 64L103.962 65.7448Z" fill="#73FF00"/>
<path d="M103.925 66.4419C103.91 66.6974 103.892 66.9528 103.871 67.208L64 64L103.925 66.4419Z" fill="#6FFF00"/>
<path d="M103.877 67.1384C103.856 67.3935 103.835 67.6485 103.809 67.9034L64 64L103.877 67.1384Z" fill="#6AFF00"/>
<path d="M103.816 67.8338C103.791 68.0887 103.764 68.3432 103.735 68.5975L64 64L103.816 67.8338Z" fill="#66FF00"/>
<path d="M103.743 68.5281C103.714 68.7825 103.682 69.0365 103.649 69.2903L64 64L103.743 68.5281Z" fill="#62FF00"/>
<path d="M103.657 69.2211C103.625 69.4748 103.588 69.7283 103.55 69.9814L64 64L103.657 69.2211Z" fill="#5EFF00"/>
<path d="M103.561 69.9123C103.523 70.1655 103.482 70.4184 103.44 70.6707L64 64L103.561 69.9123Z" fill="#59FF00"/>
<path d="M103.452 70.6019C103.41 70.8544 103.364 71.1065 103.318 71.3581L64 64L103.452 70.6019Z" fill="#55FF00"/>
<path d="M103.33 71.2894C103.283 71.5411 103.235 71.7923 103.183 72.0431L64 64L103.33 71.2894Z" fill="#51FF00"/>
<path d="M103.197 71.9747C103.146 72.2255 103.093 72.4759 103.037 72.7257L64 64L103.197 71.9747Z" fill="#4DFF00"/>
<path d="M103.052 72.6576C102.997 72.9075 102.938 73.1569 102.878 73.4057L64 64L103.052 72.6576Z" fill="#48FF00"/>
<path d="M102.895 73.3378C102.835 73.5867 102.773 73.835 102.708 74.0828L64 64L102.895 73.3378Z" fill="#44FF00"/>
<path d="M102.726 74.0152C102.662 74.263 102.595 74.5103 102.526 74.7568L64 64L102.726 74.0152Z" fill="#40FF00"/>
<path d="M102.545 74.6895C102.477 74.9362 102.406 75.1823 102.333 75.4276L64 64L102.545 74.6895Z" fill="#3CFF00"/>
<path d="M102.353 75.3606C102.28 75.6061 102.205 75.8508 102.128 76.0948L64 64L102.353 75.3606Z" fill="#37FF00"/>
<path d="M102.149 76.0282C102.072 76.2723 101.992 76.5158 101.911 76.7584L64 64L102.149 76.0282Z" fill="#33FF00"/>
<path d="M101.933 76.6922C101.852 76.9349 101.768 77.1769 101.682 77.4181L64 64L101.933 76.6922Z" fill="#2FFF00"/>
<path d="M101.706 77.3523C101.62 77.5936 101.532 77.8341 101.442 78.0736L64 64L101.706 77.3523Z" fill="#2BFF00"/>
<path d="M101.467 78.0083C101.377 78.2481 101.285 78.487 101.191 78.725L64 64L101.467 78.0083Z" fill="#26FF00"/>
<path d="M101.217 78.66C101.123 78.8983 101.027 79.1355 100.928 79.3718L64 64L101.217 78.66Z" fill="#22FF00"/>
<path d="M100.955 79.3074C100.857 79.5439 100.757 79.7793 100.654 80.0139L64 64L100.955 79.3074Z" fill="#1EFF00"/>
<path d="M100.682 79.9499C100.58 80.1848 100.476 80.4185 100.369 80.6512L64 64L100.682 79.9499Z" fill="#1AFF00"/>
<path d="M100.398 80.5877C100.292 80.8206 100.184 81.0525 100.073 81.2835L64 64L100.398 80.5877Z" fill="#15FF00"/>
<path d="M100.103 81.2204C99.9932 81.4515 99.8808 81.6815 99.7662 81.9104L64 64L100.103 81.2204Z" fill="#11FF00"/>
<path d="M99.7974 81.8479C99.6831 82.077 99.5667 82.305 99.4481 82.5319L64 64L99.7974 81.8479Z" fill="#0DFF00"/>
<path d="M99.4804 82.4699C99.3623 82.697 99.2418 82.9229 99.1194 83.1477L64 64L99.4804 82.4699Z" fill="#09FF00"/>
<path d="M99.1528 83.0864C99.0306 83.3114 98.9063 83.5351 98.7798 83.7576L64 64L99.1528 83.0864Z" fill="#04FF00"/>
<path d="M98.8143 83.697C98.6882 83.9198 98.56 84.1413 98.4297 84.3616L64 64L98.8143 83.697Z" fill="#00FF00"/>
<path d="M98.4652 84.3015C98.3352 84.5221 98.2032 84.7414 98.0691 84.9595L64 64L98.4652 84.3015Z" fill="#00FF04"/>
<path d="M98.1056 84.8999C97.9719 85.1182 97.836 85.3351 97.6982 85.5508L64 64L98.1056 84.8999Z" fill="#00FF09"/>
<path d="M97.7357 85.492C97.5982 85.7079 97.4585 85.9225 97.3169 86.1357L64 64L97.7357 85.492Z" fill="#00FF0D"/>
<path d="M97.3555 86.0775C97.2142 86.2909 97.0708 86.503 96.9255 86.7137L64 64L97.3555 86.0775Z" fill="#00FF11"/>
<path d="M96.9651 86.6562C96.82 86.8672 96.6731 87.0768 96.524 87.285L64 64L96.9651 86.6562Z" fill="#00FF15"/>
<path d="M96.5646 87.2281C96.416 87.4365 96.2653 87.6435 96.1126 87.849L64 64L96.5646 87.2281Z" fill="#00FF1A"/>
<path d="M96.1543 87.7929C96.0021 87.9987 95.8478 88.203 95.6916 88.4058L64 64L96.1543 87.7929Z" fill="#00FF1E"/>
<path d="M95.7342 88.3505C95.5783 88.5535 95.4205 88.7551 95.2609 88.9552L64 64L95.7342 88.3505Z" fill="#00FF22"/>
<path d="M95.3043 88.9005C95.145 89.1009 94.9837 89.2997 94.8205 89.497L64 64L95.3043 88.9005Z" fill="#00FF26"/>
<path d="M94.865 89.4431C94.7022 89.6406 94.5374 89.8366 94.3708 90.0309L64 64L94.865 89.4431Z" fill="#00FF2B"/>
<path d="M94.4162 89.9779C94.2499 90.1725 94.0818 90.3656 93.9119 90.5571L64 64L94.4162 89.9779Z" fill="#00FF2F"/>
<path d="M93.9583 90.5048C93.7887 90.6965 93.6172 90.8866 93.4439 91.075L64 64L93.9583 90.5048Z" fill="#00FF33"/>
<path d="M93.4911 91.0236C93.3182 91.2123 93.1434 91.3994 92.9669 91.5848L64 64L93.4911 91.0236Z" fill="#00FF37"/>
<path d="M93.0149 91.5342C92.8388 91.7199 92.6608 91.9039 92.4811 92.0862L64 64L93.0149 91.5342Z" fill="#00FF3C"/>
<path d="M92.53 92.0363C92.3506 92.2189 92.1694 92.3998 91.9866 92.5789L64 64L92.53 92.0363Z" fill="#00FF40"/>
<path d="M92.0363 92.5301C91.8538 92.7094 91.6695 92.8871 91.4835 93.063L64 64L92.0363 92.5301Z" fill="#00FF44"/>
<path d="M91.5342 93.0149C91.3485 93.1911 91.1611 93.3656 90.9721 93.5382L64 64L91.5342 93.0149Z" fill="#00FF48"/>
<path d="M91.0236 93.4911C90.8349 93.664 90.6445 93.8351 90.4524 94.0044L64 64L91.0236 93.4911Z" fill="#00FF4D"/>
<path d="M90.5048 93.9583C90.3131 94.1279 90.1198 94.2956 89.9248 94.4615L64 64L90.5048 93.9583Z" fill="#00FF51"/>
<path d="M89.9779 94.4162C89.7832 94.5825 89.587 94.7468 89.3892 94.9093L64 64L89.9779 94.4162Z" fill="#00FF55"/>
<path d="M89.4431 94.865C89.2456 95.0278 89.0465 95.1888 88.8459 95.3478L64 64L89.4431 94.865Z" fill="#00FF59"/>
<path d="M88.9005 95.3043C88.7002 95.4637 88.4984 95.6211 88.295 95.7765L64 64L88.9005 95.3043Z" fill="#00FF5E"/>
<path d="M88.3505 95.7342C88.1474 95.89 87.9428 96.0439 87.7368 96.1958L64 64L88.3505 95.7342Z" fill="#00FF62"/>
<path d="M87.7929 96.1543C87.5871 96.3066 87.3799 96.4569 87.1712 96.6051L64 64L87.7929 96.1543Z" fill="#00FF66"/>
<path d="M87.2281 96.5646C87.0197 96.7133 86.8098 96.8599 86.5987 97.0045L64 64L87.2281 96.5646Z" fill="#00FF6A"/>
<path d="M86.6562 96.9651C86.4453 97.1101 86.233 97.253 86.0192 97.3939L64 64L86.6562 96.9651Z" fill="#00FF6F"/>
<path d="M86.0775 97.3555C85.864 97.4968 85.6492 97.6359 85.4331 97.7731L64 64L86.0775 97.3555Z" fill="#00FF73"/>
<path d="M85.492 97.7357C85.2761 97.8732 85.0589 98.0086 84.8404 98.1421L64 64L85.492 97.7357Z" fill="#00FF77"/>
<path d="M84.8999 98.1056C84.6817 98.2393 84.4622 98.371 84.2413 98.5005L64 64L84.8999 98.1056Z" fill="#00FF7B"/>
<path d="M84.3015 98.4652C84.081 98.595 83.8591 98.7229 83.6361 98.8485L64 64L84.3015 98.4652Z" fill="#00FF80"/>
<path d="M83.697 98.8143C83.4742 98.9403 83.2502 99.0642 83.025 99.1859L64 64L83.697 98.8143Z" fill="#00FF84"/>
<path d="M83.0864 99.1526C82.8614 99.2748 82.6352 99.3948 82.408 99.5126L64 64L83.0864 99.1526Z" fill="#00FF88"/>
<path d="M82.4699 99.4804C82.2429 99.5986 82.0147 99.7146 81.7854 99.8284L64 64L82.4699 99.4804Z" fill="#00FF8C"/>
<path d="M81.8479 99.7974C81.6188 99.9116 81.3886 100.024 81.1574 100.133L64 64L81.8479 99.7974Z" fill="#00FF91"/>
<path d="M81.2204 100.103C80.9894 100.214 80.7573 100.322 80.5242 100.427L64 64L81.2204 100.103Z" fill="#00FF95"/>
<path d="M80.5878 100.398C80.3548 100.505 80.1209 100.609 79.8859 100.71L64 64L80.5878 100.398Z" fill="#00FF99"/>
<path d="M79.9499 100.682C79.7152 100.784 79.4795 100.884 79.2428 100.982L64 64L79.9499 100.682Z" fill="#00FF9D"/>
<path d="M79.3074 100.955C79.0708 101.053 78.8334 101.149 78.595 101.242L64 64L79.3074 100.955Z" fill="#00FFA2"/>
<path d="M78.66 101.217C78.4218 101.311 78.1828 101.402 77.9429 101.491L64 64L78.66 101.217Z" fill="#00FFA6"/>
<path d="M78.0083 101.467C77.7685 101.557 77.5279 101.644 77.2865 101.729L64 64L78.0083 101.467Z" fill="#00FFAA"/>
<path d="M77.3523 101.706C77.111 101.791 76.8689 101.874 76.6259 101.955L64 64L77.3523 101.706Z" fill="#00FFAE"/>
<path d="M76.6922 101.933C76.4494 102.014 76.2059 102.093 75.9616 102.17L64 64L76.6922 101.933Z" fill="#00FFB3"/>
<path d="M76.0282 102.149C75.7841 102.226 75.5392 102.3 75.2936 102.373L64 64L76.0282 102.149Z" fill="#00FFB7"/>
<path d="M75.3606 102.353C75.1151 102.426 74.8691 102.496 74.6223 102.564L64 64L75.3606 102.353Z" fill="#00FFBB"/>
<path d="M74.6895 102.545C74.4428 102.614 74.1956 102.68 73.9476 102.743L64 64L74.6895 102.545Z" fill="#00FFBF"/>
<path d="M74.0152 102.726C73.7674 102.79 73.5189 102.852 73.2699 102.911L64 64L74.0152 102.726Z" fill="#00FFC4"/>
<path d="M73.3378 102.895C73.0889 102.955 72.8395 103.012 72.5894 103.067L64 64L73.3378 102.895Z" fill="#00FFC8"/>
<path d="M72.6576 103.052C72.4077 103.107 72.1572 103.16 71.9063 103.211L64 64L72.6576 103.052Z" fill="#00FFCC"/>
<path d="M71.9747 103.197C71.7239 103.248 71.4725 103.296 71.2208 103.343L64 64L71.9747 103.197Z" fill="#00FFD0"/>
<path d="M71.2894 103.33C71.0377 103.377 70.7856 103.421 70.5331 103.463L64 64L71.2894 103.33Z" fill="#00FFD5"/>
<path d="M70.6019 103.452C70.3494 103.494 70.0965 103.533 69.8433 103.571L64 64L70.6019 103.452Z" fill="#00FFD9"/>
<path d="M69.9124 103.561C69.6592 103.599 69.4057 103.634 69.1518 103.667L64 64L69.9124 103.561Z" fill="#00FFDD"/>
<path d="M69.2211 103.657C68.9672 103.691 68.7132 103.722 68.4587 103.75L64 64L69.2211 103.657Z" fill="#00FFE1"/>
<path d="M68.5281 103.743C68.2738 103.772 68.0191 103.799 67.7643 103.823L64 64L68.5281 103.743Z" fill="#00FFE6"/>
<path d="M67.8338 103.816C67.579 103.84 67.324 103.863 67.0688 103.882L64 64L67.8338 103.816Z" fill="#00FFEA"/>
<path d="M67.1384 103.877C66.8831 103.897 66.6278 103.915 66.3722 103.93L64 64L67.1384 103.877Z" fill="#00FFEE"/>
<path d="M66.4419 103.925C66.1865 103.941 65.9308 103.955 65.675 103.965L64 64L66.4419 103.925Z" fill="#00FFF2"/>
<path d="M65.7448 103.962C65.4891 103.973 65.2332 103.982 64.9773 103.988L64 64L65.7448 103.962Z" fill="#00FFF7"/>
<path d="M65.047 103.986C64.7911 103.994 64.5352 103.997 64.2792 103.999L64 64L65.047 103.986Z" fill="#00FFFB"/>
<path d="M64.3492 103.999C64.0932 104.001 63.8373 104 63.5813 103.998L64.0001 64.0001L64.3492 103.999Z" fill="#00FFFF"/>
<path d="M63.651 103.999C63.3951 103.997 63.1391 103.991 62.8832 103.985L64 64L63.651 103.999Z" fill="#00FBFF"/>
<path d="M62.953 103.986C62.6971 103.979 62.4412 103.971 62.1855 103.959L64 64L62.953 103.986Z" fill="#00F7FF"/>
<path d="M62.2553 103.962C61.9996 103.95 61.744 103.937 61.4885 103.921L64.0001 64L62.2553 103.962Z" fill="#00F2FF"/>
<path d="M61.5581 103.925C61.3026 103.91 61.0472 103.892 60.7921 103.871L64 64L61.5581 103.925Z" fill="#00EEFF"/>
<path d="M60.8617 103.877C60.6064 103.856 60.3515 103.835 60.0967 103.809L64 64L60.8617 103.877Z" fill="#00EAFF"/>
<path d="M60.1661 103.816C59.9113 103.791 59.6567 103.764 59.4025 103.735L64 64L60.1661 103.816Z" fill="#00E6FF"/>
<path d="M59.472 103.743C59.2176 103.714 58.9636 103.682 58.7098 103.649L64.0001 64L59.472 103.743Z" fill="#00E1FF"/>
<path d="M58.7791 103.657C58.5253 103.625 58.2718 103.588 58.0187 103.55L64.0001 64L58.7791 103.657Z" fill="#00DDFF"/>
<path d="M58.0877 103.561C57.8345 103.523 57.5818 103.482 57.3293 103.44L64 64L58.0877 103.561Z" fill="#00D9FF"/>
<path d="M57.3982 103.452C57.1456 103.41 56.8936 103.364 56.642 103.318L64 64L57.3982 103.452Z" fill="#00D5FF"/>
<path d="M56.7106 103.33C56.459 103.283 56.2077 103.235 55.9569 103.183L64 64L56.7106 103.33Z" fill="#00D0FF"/>
<path d="M56.0253 103.197C55.7745 103.146 55.5241 103.093 55.2743 103.037L64 64L56.0253 103.197Z" fill="#00CCFF"/>
<path d="M55.3423 103.052C55.0925 102.997 54.8431 102.938 54.5942 102.878L64 64L55.3423 103.052Z" fill="#00C8FF"/>
<path d="M54.6622 102.895C54.4133 102.835 54.165 102.773 53.9172 102.708L64 64L54.6622 102.895Z" fill="#00C4FF"/>
<path d="M53.9849 102.726C53.737 102.662 53.4898 102.595 53.2433 102.526L64 64L53.9849 102.726Z" fill="#00BFFF"/>
<path d="M53.3106 102.545C53.0639 102.477 52.8179 102.406 52.5725 102.333L64.0001 64L53.3106 102.545Z" fill="#00BBFF"/>
<path d="M52.6394 102.353C52.394 102.28 52.1493 102.205 51.9053 102.128L64.0001 64L52.6394 102.353Z" fill="#00B7FF"/>
<path d="M51.9717 102.149C51.7276 102.072 51.4842 101.992 51.2416 101.911L64 64L51.9717 102.149Z" fill="#00B3FF"/>
<path d="M51.308 101.933C51.0652 101.852 50.8232 101.768 50.582 101.682L64.0001 64L51.308 101.933Z" fill="#00AEFF"/>
<path d="M50.6478 101.706C50.4065 101.62 50.166 101.532 49.9264 101.442L64 64L50.6478 101.706Z" fill="#00AAFF"/>
<path d="M49.9918 101.467C49.752 101.377 49.5131 101.285 49.275 101.191L64 64L49.9918 101.467Z" fill="#00A6FF"/>
<path d="M49.3401 101.217C49.1019 101.123 48.8646 101.027 48.6283 100.928L64.0001 64L49.3401 101.217Z" fill="#00A2FF"/>
<path d="M48.6927 100.955C48.4562 100.857 48.2207 100.757 47.9861 100.654L64 64L48.6927 100.955Z" fill="#009DFF"/>
<path d="M48.0502 100.682C47.8155 100.58 47.5816 100.476 47.3489 100.369L64.0001 64L48.0502 100.682Z" fill="#0099FF"/>
<path d="M47.4123 100.398C47.1794 100.292 46.9475 100.184 46.7166 100.073L64 64L47.4123 100.398Z" fill="#0095FF"/>
<path d="M46.7797 100.103C46.5486 99.9932 46.3186 99.8808 46.0897 99.7662L64.0001 64L46.7797 100.103Z" fill="#0091FF"/>
<path d="M46.1522 99.7974C45.9231 99.6831 45.6951 99.5667 45.4683 99.4481L64 64L46.1522 99.7974Z" fill="#008CFF"/>
<path d="M45.5301 99.4804C45.3031 99.3623 45.0772 99.2418 44.8524 99.1194L64.0001 64L45.5301 99.4804Z" fill="#0088FF"/>
<path d="M44.9137 99.1528C44.6887 99.0306 44.4649 98.9063 44.2424 98.7798L64.0001 64L44.9137 99.1528Z" fill="#0084FF"/>
<path d="M44.3031 98.8143C44.0803 98.6882 43.8588 98.56 43.6384 98.4297L64 64L44.3031 98.8143Z" fill="#0080FF"/>
<path d="M43.6986 98.4652C43.4781 98.3352 43.2587 98.2032 43.0406 98.0691L64.0001 64L43.6986 98.4652Z" fill="#007BFF"/>
<path d="M43.1001 98.1056C42.8819 97.9719 42.6649 97.836 42.4492 97.6981L64 64L43.1001 98.1056Z" fill="#0077FF"/>
<path d="M42.5081 97.7357C42.2922 97.5982 42.0776 97.4585 41.8644 97.3169L64.0001 64L42.5081 97.7357Z" fill="#0072FF"/>
<path d="M41.9227 97.3555C41.7092 97.2142 41.4971 97.0708 41.2864 96.9255L64.0001 64L41.9227 97.3555Z" fill="#006FFF"/>
<path d="M41.3439 96.9651C41.1328 96.82 40.9233 96.6731 40.7152 96.524L64.0001 64L41.3439 96.9651Z" fill="#006AFF"/>
<path d="M40.7719 96.5646C40.5634 96.416 40.3565 96.2653 40.151 96.1126L64 64L40.7719 96.5646Z" fill="#0066FF"/>
<path d="M40.2071 96.1543C40.0013 96.0021 39.797 95.8478 39.5942 95.6916L64 64L40.2071 96.1543Z" fill="#0062FF"/>
<path d="M39.6496 95.7342C39.4465 95.5783 39.2449 95.4205 39.0449 95.2609L64.0001 64L39.6496 95.7342Z" fill="#005EFF"/>
<path d="M39.0995 95.3043C38.8991 95.145 38.7003 94.9837 38.5031 94.8205L64 64L39.0995 95.3043Z" fill="#0059FF"/>
<path d="M38.5569 94.865C38.3594 94.7022 38.1634 94.5374 37.9691 94.3708L64 64L38.5569 94.865Z" fill="#0055FF"/>
<path d="M38.022 94.4162C37.8274 94.2499 37.6343 94.0818 37.443 93.9119L64 64L38.022 94.4162Z" fill="#0051FF"/>
<path d="M37.4953 93.9583C37.3035 93.7887 37.1135 93.6172 36.925 93.4439L64.0001 64L37.4953 93.9583Z" fill="#004DFF"/>
<path d="M36.9765 93.4911C36.7877 93.3182 36.6006 93.1434 36.4153 92.9669L64 64L36.9765 93.4911Z" fill="#0048FF"/>
<path d="M36.4659 93.0149C36.2802 92.8388 36.0962 92.6608 35.9139 92.4811L64.0001 64L36.4659 93.0149Z" fill="#0044FF"/>
<path d="M35.9637 92.53C35.7811 92.3506 35.6003 92.1694 35.4211 91.9866L64.0001 64L35.9637 92.53Z" fill="#0040FF"/>
<path d="M35.47 92.0364C35.2906 91.8538 35.1129 91.6695 34.937 91.4835L64 64L35.47 92.0364Z" fill="#003CFF"/>
<path d="M34.9852 91.5342C34.8089 91.3485 34.6345 91.1611 34.4619 90.9721L64.0001 64L34.9852 91.5342Z" fill="#0037FF"/>
<path d="M34.509 91.0236C34.336 90.8349 34.1649 90.6445 33.9956 90.4524L64 64L34.509 91.0236Z" fill="#0033FF"/>
<path d="M34.0417 90.5048C33.8721 90.3131 33.7044 90.1198 33.5385 89.9248L64 64L34.0417 90.5048Z" fill="#002FFF"/>
<path d="M33.5838 89.9779C33.4175 89.7832 33.2532 89.587 33.0907 89.3892L64 64L33.5838 89.9779Z" fill="#002BFF"/>
<path d="M33.135 89.4431C32.9722 89.2456 32.8113 89.0465 32.6523 88.8459L64 64L33.135 89.4431Z" fill="#0026FF"/>
<path d="M32.6956 88.9005C32.5363 88.7002 32.3788 88.4984 32.2234 88.295L63.9999 64L32.6956 88.9005Z" fill="#0022FF"/>
<path d="M32.2659 88.3505C32.1102 88.1474 31.9562 87.9428 31.8043 87.7368L64.0001 64L32.2659 88.3505Z" fill="#001EFF"/>
<path d="M31.8457 87.793C31.6935 87.5871 31.5431 87.3799 31.3949 87.1712L64 64L31.8457 87.793Z" fill="#001AFF"/>
<path d="M31.4354 87.2281C31.2867 87.0197 31.1401 86.8099 30.9955 86.5987L64 64L31.4354 87.2281Z" fill="#0015FF"/>
<path d="M31.0349 86.6562C30.89 86.4453 30.7471 86.233 30.6061 86.0192L64 64L31.0349 86.6562Z" fill="#0011FF"/>
<path d="M30.6445 86.0775C30.5034 85.864 30.3641 85.6492 30.2269 85.4331L64 64L30.6445 86.0775Z" fill="#000DFF"/>
<path d="M30.2643 85.492C30.1268 85.2761 29.9913 85.0589 29.8579 84.8404L64 64L30.2643 85.492Z" fill="#0009FF"/>
<path d="M29.8944 84.8999C29.7607 84.6817 29.629 84.4622 29.4995 84.2413L64 64L29.8944 84.8999Z" fill="#0004FF"/>
<path d="M29.5348 84.3015C29.405 84.081 29.2771 83.8591 29.1515 83.6361L64 64L29.5348 84.3015Z" fill="#0000FF"/>
<path d="M29.1858 83.697C29.0597 83.4742 28.9358 83.2502 28.8141 83.025L64 64L29.1858 83.697Z" fill="#0400FF"/>
<path d="M28.8474 83.0864C28.7253 82.8614 28.6053 82.6352 28.4874 82.408L64.0001 64L28.8474 83.0864Z" fill="#0900FF"/>
<path d="M28.5196 82.4699C28.4015 82.2429 28.2855 82.0147 28.1716 81.7854L64.0001 64L28.5196 82.4699Z" fill="#0D00FF"/>
<path d="M28.2027 81.8479C28.0885 81.6188 27.9765 81.3886 27.8667 81.1574L64.0001 64L28.2027 81.8479Z" fill="#1100FF"/>
<path d="M27.8966 81.2204C27.7864 80.9894 27.6784 80.7573 27.5726 80.5242L64 64L27.8966 81.2204Z" fill="#1500FF"/>
<path d="M27.6015 80.5878C27.4954 80.3548 27.3914 80.1209 27.2898 79.8859L64 64L27.6015 80.5878Z" fill="#1A00FF"/>
<path d="M27.3176 79.9499C27.2156 79.7152 27.1157 79.4795 27.0182 79.2428L64 64L27.3176 79.9499Z" fill="#1E00FF"/>
<path d="M27.0448 79.3074C26.9468 79.0708 26.8511 78.8334 26.7577 78.595L64 64L27.0448 79.3074Z" fill="#2200FF"/>
<path d="M26.7834 78.66C26.6895 78.4218 26.598 78.1828 26.5088 77.9429L64 64L26.7834 78.66Z" fill="#2600FF"/>
<path d="M26.5331 78.0083C26.4434 77.7685 26.3561 77.5279 26.2711 77.2865L64 64L26.5331 78.0083Z" fill="#2B00FF"/>
<path d="M26.2943 77.3523C26.2088 77.1109 26.1257 76.8689 26.0449 76.6259L63.9999 64L26.2943 77.3523Z" fill="#2F00FF"/>
<path d="M26.0671 76.6922C25.9859 76.4494 25.907 76.2059 25.8304 75.9616L64.0001 64L26.0671 76.6922Z" fill="#3300FF"/>
<path d="M25.8515 76.0282C25.7745 75.7841 25.6999 75.5392 25.6276 75.2936L64.0001 64L25.8515 76.0282Z" fill="#3700FF"/>
<path d="M25.6472 75.3606C25.5744 75.1151 25.5042 74.8691 25.4362 74.6223L63.9999 64L25.6472 75.3606Z" fill="#3C00FF"/>
<path d="M25.4549 74.6895C25.3864 74.4428 25.3204 74.1956 25.2567 73.9476L64.0001 64L25.4549 74.6895Z" fill="#4000FF"/>
<path d="M25.2741 74.0152C25.2101 73.7674 25.1483 73.5189 25.089 73.2699L64 64L25.2741 74.0152Z" fill="#4400FF"/>
<path d="M25.1052 73.3378C25.0454 73.0889 24.9881 72.8395 24.9331 72.5894L64 64L25.1052 73.3378Z" fill="#4800FF"/>
<path d="M24.9482 72.6576C24.8928 72.4077 24.8398 72.1572 24.7892 71.9063L64 64L24.9482 72.6576Z" fill="#4D00FF"/>
<path d="M24.8031 71.9747C24.752 71.7239 24.7034 71.4725 24.6571 71.2208L64 64L24.8031 71.9747Z" fill="#5100FF"/>
<path d="M24.6699 71.2894C24.6232 71.0377 24.5789 70.7856 24.5371 70.5331L64 64L24.6699 71.2894Z" fill="#5500FF"/>
<path d="M24.5488 70.6019C24.5065 70.3494 24.4666 70.0965 24.4292 69.8433L64.0001 64L24.5488 70.6019Z" fill="#5900FF"/>
<path d="M24.4394 69.9124C24.4016 69.6592 24.3662 69.4056 24.3333 69.1518L64.0001 64L24.4394 69.9124Z" fill="#5E00FF"/>
<path d="M24.3421 69.2211C24.3087 68.9672 24.2778 68.7132 24.2493 68.4587L64 64L24.3421 69.2211Z" fill="#6200FF"/>
<path d="M24.2571 68.5281C24.2281 68.2738 24.2016 68.0191 24.1775 67.7643L64 64L24.2571 68.5281Z" fill="#6600FF"/>
<path d="M24.1842 67.8338C24.1596 67.579 24.1375 67.324 24.1179 67.0688L64 64L24.1842 67.8338Z" fill="#6A00FF"/>
<path d="M24.1234 67.1384C24.1033 66.8831 24.0857 66.6278 24.0704 66.3722L64.0001 64L24.1234 67.1384Z" fill="#6F00FF"/>
<path d="M24.0747 66.4419C24.0592 66.1865 24.046 65.9308 24.0353 65.675L64.0001 64L24.0747 66.4419Z" fill="#7300FF"/>
<path d="M24.038 65.7448C24.0269 65.4891 24.0181 65.2332 24.0118 64.9773L63.9999 64L24.038 65.7448Z" fill="#7700FF"/>
<path d="M24.0139 65.047C24.0072 64.7911 24.0029 64.5352 24.0011 64.2792L64.0001 64L24.0139 65.047Z" fill="#7B00FF"/>
<path d="M24.0016 64.3491C23.9993 64.0931 23.9995 63.8371 24.0022 63.5811L64 64L24.0016 64.3491Z" fill="#8000FF"/>
<path d="M24.0016 63.6509C24.0039 63.3949 24.0085 63.139 24.0156 62.8831L64.0001 64L24.0016 63.6509Z" fill="#8400FF"/>
<path d="M24.0137 62.9528C24.0204 62.6969 24.0296 62.4412 24.0411 62.1855L63.9999 64L24.0137 62.9528Z" fill="#8800FF"/>
<path d="M24.0381 62.2553C24.0492 61.9995 24.0628 61.7439 24.079 61.4883L64 64L24.0381 62.2553Z" fill="#8C00FF"/>
<path d="M24.0747 61.558C24.0904 61.3026 24.1084 61.0472 24.129 60.792L64.0001 64L24.0747 61.558Z" fill="#9100FF"/>
<path d="M24.1234 60.8617C24.1435 60.6064 24.166 60.3515 24.191 60.0967L64.0001 64L24.1234 60.8617Z" fill="#9500FF"/>
<path d="M24.1841 60.1661C24.2086 59.9113 24.2356 59.6567 24.2651 59.4025L64 64L24.1841 60.1661Z" fill="#9900FF"/>
<path d="M24.2572 59.4718C24.2862 59.2174 24.3175 58.9634 24.3514 58.7097L64 63.9999L24.2572 59.4718Z" fill="#9D00FF"/>
<path d="M24.3423 58.7789C24.3757 58.5251 24.4115 58.2716 24.4497 58.0186L64 64L24.3423 58.7789Z" fill="#A200FF"/>
<path d="M24.4395 58.0877C24.4773 57.8345 24.5176 57.5816 24.5603 57.3293L64.0001 64L24.4395 58.0877Z" fill="#A600FF"/>
<path d="M24.5486 57.398C24.5909 57.1456 24.6355 56.8935 24.6826 56.6419L64 64L24.5486 57.398Z" fill="#AA00FF"/>
<path d="M24.6699 56.7106C24.7165 56.4589 24.7656 56.2077 24.8171 55.9568L64.0001 64L24.6699 56.7106Z" fill="#AE00FF"/>
<path d="M24.803 56.0253C24.854 55.7743 24.9074 55.5241 24.9633 55.2742L64 64L24.803 56.0253Z" fill="#B300FF"/>
<path d="M24.9482 55.3423C25.0037 55.0925 25.0615 54.8431 25.1216 54.5942L64.0001 64L24.9482 55.3423Z" fill="#B700FF"/>
<path d="M25.1052 54.6621C25.165 54.4133 25.2272 54.165 25.2917 53.9172L64 64L25.1052 54.6621Z" fill="#BB00FF"/>
<path d="M25.2742 53.9847C25.3382 53.737 25.4047 53.4897 25.4735 53.2432L64 64L25.2742 53.9847Z" fill="#BF00FF"/>
<path d="M25.4548 53.3105C25.5233 53.0638 25.594 52.8177 25.6672 52.5724L64 64L25.4548 53.3105Z" fill="#C400FF"/>
<path d="M25.6472 52.6393C25.7199 52.3939 25.795 52.1492 25.8724 51.9052L64 64L25.6472 52.6393Z" fill="#C800FF"/>
<path d="M25.8513 51.9717C25.9283 51.7275 26.0076 51.4842 26.0893 51.2416L64 64L25.8513 51.9717Z" fill="#CC00FF"/>
<path d="M26.067 51.3077C26.1483 51.065 26.2319 50.8231 26.3177 50.5819L64 64L26.067 51.3077Z" fill="#D000FF"/>
<path d="M26.2944 50.6476C26.3798 50.4063 26.4676 50.1659 26.5577 49.9263L64.0001 64L26.2944 50.6476Z" fill="#D500FF"/>
<path d="M26.5331 49.9917C26.6228 49.7519 26.7147 49.5131 26.809 49.275L64 64L26.5331 49.9917Z" fill="#D900FF"/>
<path d="M26.7833 49.34C26.8771 49.1017 26.9732 48.8645 27.0715 48.6282L64 64L26.7833 49.34Z" fill="#DD00FF"/>
<path d="M27.0449 48.6926C27.1429 48.4561 27.2431 48.2206 27.3456 47.986L64.0001 64L27.0449 48.6926Z" fill="#E100FF"/>
<path d="M27.3176 48.0501C27.4197 47.8152 27.524 47.5815 27.6306 47.3488L64 64L27.3176 48.0501Z" fill="#E600FF"/>
<path d="M27.6017 47.4123C27.7077 47.1793 27.8162 46.9474 27.9268 46.7165L64.0001 64L27.6017 47.4123Z" fill="#EA00FF"/>
<path d="M27.8966 46.7795C28.0069 46.5484 28.1193 46.3185 28.2339 46.0896L64.0001 64L27.8966 46.7795Z" fill="#EE00FF"/>
<path d="M28.2028 46.1521C28.3169 45.923 28.4334 45.695 28.5519 45.4681L64.0001 64L28.2028 46.1521Z" fill="#F200FF"/>
<path d="M28.5197 45.53C28.6378 45.303 28.7582 45.0771 28.8807 44.8523L64.0001 64L28.5197 45.53Z" fill="#F700FF"/>
<path d="M28.8474 44.9136C28.9695 44.6886 29.0938 44.4649 29.2203 44.2424L64.0001 64L28.8474 44.9136Z" fill="#FB00FF"/>
<path d="M29.1858 44.303C29.3118 44.0802 29.4401 43.8587 29.5703 43.6384L64.0001 64L29.1858 44.303Z" fill="#FF00FF"/>
<path d="M29.5349 43.6985C29.6649 43.4779 29.7969 43.2586 29.931 43.0405L64.0001 64L29.5349 43.6985Z" fill="#FF00FB"/>
<path d="M29.8945 43.1C30.0284 42.8818 30.1642 42.6648 30.3021 42.4492L64.0002 64L29.8945 43.1Z" fill="#FF00F7"/>
<path d="M30.2644 42.508C30.4019 42.2921 30.5416 42.0775 30.6832 41.8643L64.0001 64L30.2644 42.508Z" fill="#FF00F2"/>
<path d="M30.6445 41.9224C30.7858 41.709 30.9292 41.4969 31.0746 41.2862L64 63.9999L30.6445 41.9224Z" fill="#FF00EE"/>
<path d="M31.0349 41.3437C31.1799 41.1327 31.3269 40.9232 31.476 40.715L64 63.9999L31.0349 41.3437Z" fill="#FF00EA"/>
<path d="M31.4353 40.7719C31.584 40.5634 31.7347 40.3565 31.8873 40.151L63.9999 64L31.4353 40.7719Z" fill="#FF00E6"/>
<path d="M31.8457 40.2071C31.9979 40.0013 32.1522 39.7969 32.3084 39.5941L64 64L31.8457 40.2071Z" fill="#FF00E1"/>
<path d="M32.266 39.6495C32.4219 39.4465 32.5796 39.2449 32.7394 39.0449L64.0002 64L32.266 39.6495Z" fill="#FF00DD"/>
<path d="M32.6958 39.0994C32.8552 38.899 33.0165 38.7003 33.1796 38.503L64.0001 64L32.6958 39.0994Z" fill="#FF00D9"/>
<path d="M33.1351 38.5568C33.2979 38.3593 33.4627 38.1633 33.6293 37.9691L64.0001 64L33.1351 38.5568Z" fill="#FF00D5"/>
<path d="M33.5837 38.0221C33.75 37.8275 33.9181 37.6344 34.0881 37.4429L64 64L33.5837 38.0221Z" fill="#FF00D0"/>
<path d="M34.0419 37.4952C34.2115 37.3034 34.383 37.1134 34.5562 36.9249L64.0001 64L34.0419 37.4952Z" fill="#FF00CC"/>
<path d="M34.509 36.9764C34.6819 36.7877 34.8567 36.6005 35.0333 36.4152L64.0001 64L34.509 36.9764Z" fill="#FF00C8"/>
<path d="M34.9851 36.4658C35.1613 36.2801 35.3393 36.0961 35.5191 35.9138L64 64L34.9851 36.4658Z" fill="#FF00C4"/>
<path d="M35.47 35.9635C35.6494 35.781 35.8306 35.6002 36.0135 35.421L64 63.9999L35.47 35.9635Z" fill="#FF00BF"/>
<path d="M35.9636 35.4699C36.1462 35.2906 36.3304 35.1128 36.5165 34.937L63.9999 64L35.9636 35.4699Z" fill="#FF00BB"/>
<path d="M36.4658 34.9849C36.6514 34.8087 36.8389 34.6343 37.0279 34.4617L64 63.9999L36.4658 34.9849Z" fill="#FF00B7"/>
<path d="M36.9766 34.5088C37.1653 34.3359 37.3557 34.1648 37.5477 33.9955L64.0001 63.9999L36.9766 34.5088Z" fill="#FF00B3"/>
<path d="M37.4954 34.0417C37.687 33.8721 37.8803 33.7043 38.0754 33.5385L64.0001 64L37.4954 34.0417Z" fill="#FF00AE"/>
<path d="M38.0221 33.5838C38.2168 33.4175 38.413 33.2532 38.6108 33.0907L64 64L38.0221 33.5838Z" fill="#FF00AA"/>
<path d="M38.5569 33.135C38.7544 32.9722 38.9535 32.8112 39.1541 32.6522L64 64L38.5569 33.135Z" fill="#FF00A6"/>
<path d="M39.0995 32.6957C39.2998 32.5363 39.5017 32.3789 39.705 32.2234L64 64L39.0995 32.6957Z" fill="#FF00A2"/>
<path d="M39.6495 32.2658C39.8527 32.11 40.0572 31.9561 40.2633 31.8042L64 64L39.6495 32.2658Z" fill="#FF009D"/>
<path d="M40.2072 31.8457C40.413 31.6935 40.6202 31.5431 40.8289 31.3949L64.0001 64L40.2072 31.8457Z" fill="#FF0099"/>
<path d="M40.772 31.4353C40.9804 31.2867 41.1902 31.1401 41.4014 30.9954L64.0001 64L40.772 31.4353Z" fill="#FF0095"/>
<path d="M41.3439 31.0349C41.5548 30.89 41.7671 30.7471 41.9808 30.6061L64.0001 64L41.3439 31.0349Z" fill="#FF0091"/>
<path d="M41.9226 30.6445C42.1361 30.5033 42.3509 30.364 42.567 30.2269L64.0001 64L41.9226 30.6445Z" fill="#FF008C"/>
<path d="M42.5081 30.2643C42.7239 30.1268 42.9412 29.9913 43.1597 29.8579L64.0001 64L42.5081 30.2643Z" fill="#FF0088"/>
<path d="M43.1001 29.8944C43.3184 29.7606 43.5378 29.629 43.7587 29.4995L64 64L43.1001 29.8944Z" fill="#FF0084"/>
<path d="M43.6986 29.5348C43.9191 29.4048 44.141 29.277 44.364 29.1514L64.0001 64L43.6986 29.5348Z" fill="#FF0080"/>
<path d="M44.3031 29.1858C44.5259 29.0597 44.7499 28.9358 44.9751 28.8141L64.0001 64L44.3031 29.1858Z" fill="#FF007B"/>
<path d="M44.9136 28.8473C45.1385 28.7251 45.3647 28.6051 45.592 28.4873L64 63.9999L44.9136 28.8473Z" fill="#FF0077"/>
<path d="M45.53 28.5196C45.7571 28.4014 45.9853 28.2853 46.2146 28.1716L64 64L45.53 28.5196Z" fill="#FF0073"/>
<path d="M46.1521 28.2026C46.3812 28.0884 46.6113 27.9763 46.8426 27.8666L64 64L46.1521 28.2026Z" fill="#FF006F"/>
<path d="M46.7797 27.8965C47.0107 27.7864 47.2428 27.6784 47.476 27.5726L64.0001 64L46.7797 27.8965Z" fill="#FF006A"/>
<path d="M47.4124 27.6015C47.6453 27.4954 47.8793 27.3915 48.1142 27.2899L64.0001 64L47.4124 27.6015Z" fill="#FF0066"/>
<path d="M48.05 27.3176C48.2849 27.2155 48.5205 27.1156 48.7572 27.0181L64 64L48.05 27.3176Z" fill="#FF0062"/>
<path d="M48.6926 27.0449C48.9292 26.9468 49.1666 26.8512 49.405 26.7578L64 64L48.6926 27.0449Z" fill="#FF005E"/>
<path d="M49.3401 26.7832C49.5783 26.6895 49.8173 26.5979 50.0572 26.5087L64.0001 64L49.3401 26.7832Z" fill="#FF0059"/>
<path d="M49.9917 26.5331C50.2315 26.4434 50.4721 26.3561 50.7135 26.2711L64 64L49.9917 26.5331Z" fill="#FF0055"/>
<path d="M50.6477 26.2944C50.889 26.2089 51.1312 26.1257 51.3741 26.045L64 64L50.6477 26.2944Z" fill="#FF0051"/>
<path d="M51.3079 26.067C51.5507 25.9858 51.7941 25.9069 52.0385 25.8303L64.0001 63.9999L51.3079 26.067Z" fill="#FF004D"/>
<path d="M51.9718 25.8513C52.2159 25.7744 52.4608 25.6997 52.7064 25.6274L64 64L51.9718 25.8513Z" fill="#FF0048"/>
<path d="M52.6395 25.6472C52.8849 25.5745 53.1311 25.5041 53.3778 25.4362L64.0001 64L52.6395 25.6472Z" fill="#FF0044"/>
<path d="M53.3104 25.4548C53.5571 25.3863 53.8044 25.3203 54.0524 25.2566L63.9999 63.9999L53.3104 25.4548Z" fill="#FF0040"/>
<path d="M53.985 25.274C54.2328 25.21 54.4812 25.1483 54.7303 25.0889L64.0001 64L53.985 25.274Z" fill="#FF003C"/>
<path d="M54.6622 25.1052C54.9112 25.0454 55.1606 24.9881 55.4107 24.9331L64.0001 64L54.6622 25.1052Z" fill="#FF0037"/>
<path d="M55.3424 24.9481C55.5924 24.8928 55.8428 24.8398 56.0938 24.7892L64 64L55.3424 24.9481Z" fill="#FF0033"/>
<path d="M56.0253 24.803C56.2761 24.752 56.5274 24.7033 56.7792 24.657L64 64L56.0253 24.803Z" fill="#FF002F"/>
<path d="M56.7106 24.6698C56.9622 24.6231 57.2144 24.5789 57.4669 24.537L64 64L56.7106 24.6698Z" fill="#FF002B"/>
<path d="M57.3981 24.5485C57.6506 24.5062 57.9035 24.4664 58.1567 24.429L64 63.9999L57.3981 24.5485Z" fill="#FF0026"/>
<path d="M58.0876 24.4393C58.3408 24.4015 58.5943 24.3661 58.8482 24.3331L64 63.9999L58.0876 24.4393Z" fill="#FF0022"/>
<path d="M58.7789 24.3421C59.0328 24.3087 59.2868 24.2778 59.5412 24.2493L64 64L58.7789 24.3421Z" fill="#FF001E"/>
<path d="M59.4719 24.2571C59.7263 24.2281 59.9809 24.2016 60.2357 24.1775L64 64L59.4719 24.2571Z" fill="#FF001A"/>
<path d="M60.1663 24.1841C60.4211 24.1595 60.6761 24.1375 60.9313 24.1178L64.0001 64L60.1663 24.1841Z" fill="#FF0015"/>
<path d="M60.8617 24.1233C61.1169 24.1032 61.3723 24.0856 61.6279 24.0703L64.0001 63.9999L60.8617 24.1233Z" fill="#FF0011"/>
<path d="M61.5581 24.0746C61.8137 24.059 62.0692 24.0458 62.325 24.0351L64.0001 64L61.5581 24.0746Z" fill="#FF000D"/>
<path d="M62.2552 24.0381C62.5109 24.0269 62.7668 24.0182 63.0227 24.0119L64 64L62.2552 24.0381Z" fill="#FF0009"/>
<path d="M62.953 24.0137C63.2089 24.007 63.4648 24.0028 63.7208 24.0009L64 63.9999L62.953 24.0137Z" fill="#FF0004"/>
<path d="M64 104C86.0915 104 104 86.0913 104 64C104 41.9085 86.0915 24 64 24C41.9086 24 24 41.9085 24 64C24 86.0913 41.9086 104 64 104Z" fill="url(#paint2_radial_1136_3)"/>
</g>
</g>
</g>
<defs>
<filter id="filter0_ii_1136_3" x="0" y="0" width="128" height="129" filterUnits="userSpaceOnUse" color-interpolation-filters="sRGB">
<feFlood flood-opacity="0" result="BackgroundImageFix"/>
<feBlend mode="normal" in="SourceGraphic" in2="BackgroundImageFix" result="shape"/>
<feColorMatrix in="SourceAlpha" type="matrix" values="0 0 0 0 0 0 0 0 0 0 0 0 0 0 0 0 0 0 127 0" result="hardAlpha"/>
<feOffset dy="-4"/>
<feComposite in2="hardAlpha" operator="arithmetic" k2="-1" k3="1"/>
<feColorMatrix type="matrix" values="0 0 0 0 0 0 0 0 0 0 0 0 0 0 0 0 0 0 0.25 0"/>
<feBlend mode="normal" in2="shape" result="effect1_innerShadow_1136_3"/>
<feColorMatrix in="SourceAlpha" type="matrix" values="0 0 0 0 0 0 0 0 0 0 0 0 0 0 0 0 0 0 127 0" result="hardAlpha"/>
<feMorphology radius="1" operator="erode" in="SourceAlpha" result="effect2_innerShadow_1136_3"/>
<feOffset dy="2"/>
<feComposite in2="hardAlpha" operator="arithmetic" k2="-1" k3="1"/>
<feColorMatrix type="matrix" values="0 0 0 0 1 0 0 0 0 1 0 0 0 0 1 0 0 0 0.25 0"/>
<feBlend mode="normal" in2="effect1_innerShadow_1136_3" result="effect2_innerShadow_1136_3"/>
</filter>
<filter id="filter1_ii_1136_3" x="24" y="21.9999" width="80.0005" height="86.0001" filterUnits="userSpaceOnUse" color-interpolation-filters="sRGB">
<feFlood flood-opacity="0" result="BackgroundImageFix"/>
<feBlend mode="normal" in="SourceGraphic" in2="BackgroundImageFix" result="shape"/>
<feColorMatrix in="SourceAlpha" type="matrix" values="0 0 0 0 0 0 0 0 0 0 0 0 0 0 0 0 0 0 127 0" result="hardAlpha"/>
<feOffset dy="4"/>
<feGaussianBlur stdDeviation="2"/>
<feComposite in2="hardAlpha" operator="arithmetic" k2="-1" k3="1"/>
<feColorMatrix type="matrix" values="0 0 0 0 0 0 0 0 0 0 0 0 0 0 0 0 0 0 0.25 0"/>
<feBlend mode="normal" in2="shape" result="effect1_innerShadow_1136_3"/>
<feColorMatrix in="SourceAlpha" type="matrix" values="0 0 0 0 0 0 0 0 0 0 0 0 0 0 0 0 0 0 127 0" result="hardAlpha"/>
<feMorphology radius="1" operator="erode" in="SourceAlpha" result="effect2_innerShadow_1136_3"/>
<feOffset dy="-2"/>
<feGaussianBlur stdDeviation="1"/>
<feComposite in2="hardAlpha" operator="arithmetic" k2="-1" k3="1"/>
<feColorMatrix type="matrix" values="0 0 0 0 1 0 0 0 0 1 0 0 0 0 1 0 0 0 0.25 0"/>
<feBlend mode="normal" in2="effect1_innerShadow_1136_3" result="effect2_innerShadow_1136_3"/>
</filter>
<linearGradient id="paint0_linear_1136_3" x1="28" y1="1.00583e-07" x2="98" y2="128" gradientUnits="userSpaceOnUse">
<stop/>
<stop offset="1" stop-color="#484848"/>
</linearGradient>
<linearGradient id="paint1_linear_1136_3" x1="19" y1="-5.12227e-07" x2="109" y2="128" gradientUnits="userSpaceOnUse">
<stop stop-color="#D9D9D9"/>
<stop offset="1" stop-color="#828292"/>
</linearGradient>
<radialGradient id="paint2_radial_1136_3" cx="0" cy="0" r="1" gradientUnits="userSpaceOnUse" gradientTransform="translate(64 64) scale(40)">
<stop stop-color="white"/>
<stop offset="1" stop-color="white" stop-opacity="0"/>
</radialGradient>
<clipPath id="clip0_1136_3">
<rect width="128" height="128" fill="white"/>
</clipPath>
</defs>
</svg>
