<svg width="128" height="128" viewBox="0 0 128 128" fill="none" xmlns="http://www.w3.org/2000/svg">
<g filter="url(#filter0_ii_14_5)">
<rect x="12" y="12" width="104" height="104" rx="25" fill="#444444"/>
</g>
<rect x="16" y="16" width="96" height="96" rx="21" stroke="url(#paint0_linear_14_5)" stroke-width="8"/>
<g clip-path="url(#clip0_14_5)" filter="url(#filter1_ii_14_5)">
<path d="M63.6771 27.0014C63.9139 26.9993 64.1507 26.9995 64.3875 27.002L64 64L63.6771 27.0014Z" fill="#FF0000"/>
<path d="M64.3229 27.0014C64.5597 27.0035 64.7964 27.0078 65.0331 27.0144L64 64L64.3229 27.0014Z" fill="#FF0400"/>
<path d="M64.9685 27.0127C65.2052 27.0189 65.4419 27.0273 65.6784 27.0381L64 64L64.9685 27.0127Z" fill="#FF0900"/>
<path d="M65.6139 27.0352C65.8505 27.0455 66.0869 27.0581 66.3232 27.073L64 64L65.6139 27.0352Z" fill="#FF0D00"/>
<path d="M66.2588 27.069C66.4951 27.0835 66.7313 27.1002 66.9674 27.1192L64 64L66.2588 27.069Z" fill="#FF1100"/>
<path d="M66.903 27.1141C67.139 27.1326 67.3749 27.1535 67.6106 27.1766L64 64L66.903 27.1141Z" fill="#FF1500"/>
<path d="M67.5463 27.1703C67.782 27.193 68.0175 27.218 68.2527 27.2452L64 64L67.5463 27.1703Z" fill="#FF1A00"/>
<path d="M68.1885 27.2378C68.4238 27.2646 68.6588 27.2937 68.8935 27.325L64 64L68.1885 27.2378Z" fill="#FF1E00"/>
<path d="M68.8295 27.3165C69.0642 27.3474 69.2987 27.3806 69.5328 27.416L64 64L68.8295 27.3165Z" fill="#FF2200"/>
<path d="M69.4689 27.4064C69.7031 27.4414 69.937 27.4786 70.1704 27.5181L64 64L69.4689 27.4064Z" fill="#FF2600"/>
<path d="M70.1068 27.5074C70.3403 27.5465 70.5735 27.5878 70.8062 27.6314L64 64L70.1068 27.5074Z" fill="#FF2B00"/>
<path d="M70.7427 27.6196C70.9755 27.6627 71.2079 27.7081 71.4399 27.7557L64 64L70.7427 27.6196Z" fill="#FF2F00"/>
<path d="M71.3766 27.7428C71.6086 27.79 71.8402 27.8394 72.0713 27.8911L64 64L71.3766 27.7428Z" fill="#FF3300"/>
<path d="M72.0083 27.877C72.2394 27.9283 72.4701 27.9818 72.7003 28.0374L64 64L72.0083 27.877Z" fill="#FF3700"/>
<path d="M72.6375 28.0223C72.8677 28.0776 73.0974 28.1351 73.3266 28.1948L64 64L72.6375 28.0223Z" fill="#FF3C00"/>
<path d="M73.2641 28.1785C73.4933 28.2378 73.722 28.2993 73.95 28.363L64 64L73.2641 28.1785Z" fill="#FF4000"/>
<path d="M73.8878 28.3457C74.116 28.409 74.3436 28.4744 74.5705 28.5421L64 64L73.8878 28.3457Z" fill="#FF4400"/>
<path d="M74.5086 28.5237C74.7356 28.5909 74.962 28.6603 75.1877 28.7319L64 64L74.5086 28.5237Z" fill="#FF4800"/>
<path d="M75.1261 28.7125C75.3519 28.7837 75.5771 28.857 75.8015 28.9326L64 64L75.1261 28.7125Z" fill="#FF4D00"/>
<path d="M75.7403 28.912C75.9648 28.9872 76.1886 29.0644 76.4117 29.1439L64 64L75.7403 28.912Z" fill="#FF5100"/>
<path d="M76.3509 29.1223C76.5741 29.2013 76.7965 29.2825 77.0181 29.3658L64 64L76.3509 29.1223Z" fill="#FF5500"/>
<path d="M76.9577 29.3431C77.1795 29.426 77.4005 29.5111 77.6206 29.5983L64 64L76.9577 29.3431Z" fill="#FF5900"/>
<path d="M77.5605 29.5745C77.7809 29.6613 78.0003 29.7502 78.2189 29.8412L64 64L77.5605 29.5745Z" fill="#FF5E00"/>
<path d="M78.1593 29.8165C78.3781 29.9071 78.5959 29.9998 78.8129 30.0946L64 64L78.1593 29.8165Z" fill="#FF6200"/>
<path d="M78.7537 30.0688C78.9709 30.1632 79.1871 30.2597 79.4024 30.3583L64 64L78.7537 30.0688Z" fill="#FF6600"/>
<path d="M79.3436 30.3314C79.5591 30.4296 79.7736 30.5299 79.9872 30.6322L64 64L79.3436 30.3314Z" fill="#FF6A00"/>
<path d="M79.9289 30.6043C80.1426 30.7063 80.3554 30.8103 80.5671 30.9163L64 64L79.9289 30.6043Z" fill="#FF6F00"/>
<path d="M80.5093 30.8874C80.7212 30.9931 80.9321 31.1008 81.142 31.2105L64 64L80.5093 30.8874Z" fill="#FF7300"/>
<path d="M81.0847 31.1806C81.2947 31.2899 81.5037 31.4013 81.7116 31.5146L64 64L81.0847 31.1806Z" fill="#FF7700"/>
<path d="M81.6549 31.4838C81.863 31.5967 82.07 31.7117 82.2758 31.8287L64 64L81.6549 31.4838Z" fill="#FF7B00"/>
<path d="M82.2197 31.7968C82.4258 31.9134 82.6307 32.032 82.8345 32.1525L64 64L82.2197 31.7968Z" fill="#FF8000"/>
<path d="M82.7789 32.1197C82.9829 32.2399 83.1858 32.362 83.3875 32.4861L64 64L82.7789 32.1197Z" fill="#FF8400"/>
<path d="M83.3324 32.4523C83.5343 32.576 83.735 32.7017 83.9345 32.8293L64 64L83.3324 32.4523Z" fill="#FF8800"/>
<path d="M83.8801 32.7945C84.0798 32.9217 84.2783 33.0509 84.4755 33.1819L64 64L83.8801 32.7945Z" fill="#FF8C00"/>
<path d="M84.4217 33.1462C84.6191 33.2769 84.8153 33.4095 85.0102 33.544L64 64L84.4217 33.1462Z" fill="#FF9100"/>
<path d="M84.957 33.5073C85.1522 33.6414 85.346 33.7774 85.5386 33.9153L64 64L84.957 33.5073Z" fill="#FF9500"/>
<path d="M85.486 33.8777C85.6788 34.0152 85.8702 34.1546 86.0603 34.2957L64 64L85.486 33.8777Z" fill="#FF9900"/>
<path d="M86.0084 34.2573C86.1988 34.3981 86.3878 34.5408 86.5754 34.6853L64 64L86.0084 34.2573Z" fill="#FF9D00"/>
<path d="M86.5242 34.6459C86.712 34.7901 86.8985 34.936 87.0836 35.0837L64 64L86.5242 34.6459Z" fill="#FFA200"/>
<path d="M87.033 35.0435C87.2183 35.1909 87.4022 35.3401 87.5847 35.491L64 64L87.033 35.0435Z" fill="#FFA600"/>
<path d="M87.5349 35.4499C87.7176 35.6005 87.8989 35.7529 88.0786 35.907L64 64L87.5349 35.4499Z" fill="#FFAA00"/>
<path d="M88.0296 35.865C88.2096 36.0188 88.3882 36.1743 88.5653 36.3315L64 64L88.0296 35.865Z" fill="#FFAE00"/>
<path d="M88.5169 36.2886C88.6943 36.4455 88.8701 36.6041 89.0444 36.7644L64 64L88.5169 36.2886Z" fill="#FFB300"/>
<path d="M88.9968 36.7207C89.1714 36.8807 89.3444 37.0423 89.5159 37.2056L64 64L88.9968 36.7207Z" fill="#FFB700"/>
<path d="M89.4691 37.1611C89.6409 37.3241 89.8111 37.4888 89.9797 37.655L64 64L89.4691 37.1611Z" fill="#FFBB00"/>
<path d="M89.4691 37.1611C89.6409 37.3241 89.8111 37.4888 89.9797 37.655L64 64L89.4691 37.1611Z" fill="#FFBB00"/>
<path d="M89.9336 37.6097C90.1025 37.7757 90.2698 37.9433 90.4355 38.1124L64 64L89.9336 37.6097Z" fill="#FFBF00"/>
<path d="M90.3903 38.0663C90.5562 38.2352 90.7206 38.4057 90.8833 38.5777L64 64L90.3903 38.0663Z" fill="#FFC400"/>
<path d="M90.8388 38.5309C91.0018 38.7026 91.1632 38.8759 91.3228 39.0508L64 64L90.8388 38.5309Z" fill="#FFC800"/>
<path d="M91.2793 39.0032C91.4392 39.1777 91.5975 39.3538 91.7541 39.5315L64 64L91.2793 39.0032Z" fill="#FFCC00"/>
<path d="M91.7114 39.4831C91.8683 39.6604 92.0235 39.8392 92.1769 40.0196L64 64L91.7114 39.4831Z" fill="#FFD000"/>
<path d="M92.135 39.9704C92.2888 40.1505 92.4408 40.332 92.5911 40.515L64 64L92.135 39.9704Z" fill="#FFD500"/>
<path d="M92.5501 40.4651C92.7007 40.6478 92.8496 40.832 92.9967 41.0175L64 64L92.5501 40.4651Z" fill="#FFD900"/>
<path d="M92.9565 40.9669C93.1039 41.1523 93.2495 41.339 93.3933 41.5271L64 64L92.9565 40.9669Z" fill="#FFDD00"/>
<path d="M93.3541 41.4758C93.4982 41.6637 93.6406 41.8529 93.7811 42.0435L64 64L93.3541 41.4758Z" fill="#FFE100"/>
<path d="M93.7427 41.9915C93.8836 42.1819 94.0226 42.3736 94.1597 42.5666L64 64L93.7427 41.9915Z" fill="#FFE600"/>
<path d="M94.1223 42.514C94.2598 42.7068 94.3954 42.9008 94.5292 43.0962L64 64L94.1223 42.514Z" fill="#FFEA00"/>
<path d="M94.4927 43.043C94.6268 43.2381 94.759 43.4345 94.8894 43.6322L64 64L94.4927 43.043Z" fill="#FFEE00"/>
<path d="M94.8538 43.5783C94.9845 43.7758 95.1132 43.9745 95.2401 44.1744L64 64L94.8538 43.5783Z" fill="#FFF200"/>
<path d="M95.2055 44.1199C95.3327 44.3196 95.458 44.5205 95.5814 44.7226L64 64L95.2055 44.1199Z" fill="#FFF700"/>
<path d="M95.5477 44.6676C95.6714 44.8694 95.7932 45.0725 95.913 45.2768L64 64L95.5477 44.6676Z" fill="#FFFB00"/>
<path d="M95.8803 45.2211C96.0004 45.4251 96.1187 45.6303 96.2349 45.8365L64 64L95.8803 45.2211Z" fill="#FFFF00"/>
<path d="M96.2032 45.7803C96.3198 45.9864 96.4344 46.1936 96.547 46.4019L64 64L96.2032 45.7803Z" fill="#FBFF00"/>
<path d="M96.5162 46.3451C96.6292 46.5532 96.7402 46.7624 96.8492 46.9726L64 64L96.5162 46.3451Z" fill="#F7FF00"/>
<path d="M96.8194 46.9153C96.9287 47.1253 97.036 47.3364 97.1413 47.5485L64 64L96.8194 46.9153Z" fill="#F2FF00"/>
<path d="M97.1126 47.4907C97.2182 47.7026 97.3218 47.9155 97.4234 48.1294L64 64L97.1126 47.4907Z" fill="#EEFF00"/>
<path d="M97.3957 48.0711C97.4976 48.2848 97.5975 48.4995 97.6953 48.7151L64 64L97.3957 48.0711Z" fill="#EAFF00"/>
<path d="M97.6686 48.6563C97.7668 48.8718 97.8629 49.0882 97.9569 49.3055L64 64L97.6686 48.6563Z" fill="#E6FF00"/>
<path d="M97.9312 49.2463C98.0256 49.4634 98.118 49.6815 98.2082 49.9004L64 64L97.9312 49.2463Z" fill="#E1FF00"/>
<path d="M98.1836 49.8407C98.2742 50.0595 98.3627 50.2791 98.4491 50.4995L64 64L98.1836 49.8407Z" fill="#DDFF00"/>
<path d="M98.4255 50.4395C98.5123 50.6598 98.5969 50.8809 98.6794 51.1028L64 64L98.4255 50.4395Z" fill="#D9FF00"/>
<path d="M98.6569 51.0423C98.7398 51.2641 98.8206 51.4867 98.8992 51.71L64 64L98.6569 51.0423Z" fill="#D5FF00"/>
<path d="M98.8777 51.6491C98.9568 51.8723 99.0337 52.0963 99.1084 52.321L64 64L98.8777 51.6491Z" fill="#D0FF00"/>
<path d="M99.088 52.2597C99.1631 52.4843 99.2361 52.7095 99.3069 52.9355L64 64L99.088 52.2597Z" fill="#CCFF00"/>
<path d="M99.2875 52.8739C99.3587 53.0997 99.4278 53.3262 99.4946 53.5534L64 64L99.2875 52.8739Z" fill="#C8FF00"/>
<path d="M99.4763 53.4914C99.5436 53.7185 99.6086 53.9461 99.6715 54.1744L64 64L99.4763 53.4914Z" fill="#C4FF00"/>
<path d="M99.6543 54.1122C99.7176 54.3404 99.7787 54.5691 99.8376 54.7985L64 64L99.6543 54.1122Z" fill="#BFFF00"/>
<path d="M99.8214 54.7359C99.8807 54.9652 99.9378 55.195 99.9927 55.4253L64 64L99.8214 54.7359Z" fill="#BBFF00"/>
<path d="M99.9777 55.3625C100.033 55.5927 100.086 55.8235 100.137 56.0548L64 64L99.9777 55.3625Z" fill="#B7FF00"/>
<path d="M100.123 55.9917C100.174 56.2229 100.223 56.4546 100.27 56.6867L64 64L100.123 55.9917Z" fill="#B3FF00"/>
<path d="M100.257 56.6234C100.304 56.8554 100.349 57.0879 100.392 57.3208L64 64L100.257 56.6234Z" fill="#AEFF00"/>
<path d="M100.38 57.2573C100.424 57.4901 100.464 57.7233 100.503 57.9569L64 64L100.38 57.2573Z" fill="#AAFF00"/>
<path d="M100.493 57.8932C100.532 58.1268 100.568 58.3607 100.603 58.5949L64 64L100.493 57.8932Z" fill="#A6FF00"/>
<path d="M100.594 58.5311C100.629 58.7653 100.661 58.9998 100.692 59.2346L64 64L100.594 58.5311Z" fill="#A2FF00"/>
<path d="M100.683 59.1705C100.714 59.4053 100.743 59.6403 100.769 59.8756L64 64L100.683 59.1705Z" fill="#9EFF00"/>
<path d="M100.762 59.8115C100.789 60.0468 100.814 60.2823 100.836 60.518L64 64L100.762 59.8115Z" fill="#99FF00"/>
<path d="M100.83 60.4537C100.852 60.6894 100.873 60.9253 100.891 61.1614L64 64L100.83 60.4537Z" fill="#95FF00"/>
<path d="M100.886 61.097C100.905 61.3331 100.921 61.5693 100.935 61.8057L64 64L100.886 61.097Z" fill="#91FF00"/>
<path d="M100.931 61.7412C100.945 61.9776 100.958 62.214 100.968 62.4506L64 64L100.931 61.7412Z" fill="#8CFF00"/>
<path d="M100.965 62.3861C100.975 62.6226 100.983 62.8593 100.989 63.096L64 64L100.965 62.3861Z" fill="#88FF00"/>
<path d="M100.987 63.0314C100.994 63.2682 100.997 63.5049 100.999 63.7417L64 64L100.987 63.0314Z" fill="#84FF00"/>
<path d="M100.999 63.6771C101.001 63.9139 101.001 64.1507 100.998 64.3875L64.0001 64L100.999 63.6771Z" fill="#80FF00"/>
<path d="M100.999 64.3229C100.997 64.5597 100.992 64.7964 100.986 65.0331L64 64L100.999 64.3229Z" fill="#7BFF00"/>
<path d="M100.987 64.9685C100.981 65.2053 100.973 65.4419 100.962 65.6784L64 64L100.987 64.9685Z" fill="#77FF00"/>
<path d="M100.965 65.6139C100.954 65.8505 100.942 66.0869 100.927 66.3232L64 64L100.965 65.6139Z" fill="#73FF00"/>
<path d="M100.931 66.2588C100.917 66.4951 100.9 66.7313 100.881 66.9674L64 64L100.931 66.2588Z" fill="#6FFF00"/>
<path d="M100.886 66.903C100.867 67.139 100.847 67.3749 100.823 67.6106L64 64L100.886 66.903Z" fill="#6AFF00"/>
<path d="M100.83 67.5463C100.807 67.782 100.782 68.0175 100.755 68.2527L64 64L100.83 67.5463Z" fill="#66FF00"/>
<path d="M100.762 68.1885C100.735 68.4238 100.706 68.6588 100.675 68.8935L64 64L100.762 68.1885Z" fill="#62FF00"/>
<path d="M100.683 68.8295C100.653 69.0642 100.619 69.2987 100.584 69.5328L64 64L100.683 68.8295Z" fill="#5EFF00"/>
<path d="M100.594 69.4689C100.559 69.7031 100.521 69.937 100.482 70.1704L64 64L100.594 69.4689Z" fill="#59FF00"/>
<path d="M100.493 70.1068C100.454 70.3403 100.412 70.5735 100.369 70.8062L64 64L100.493 70.1068Z" fill="#55FF00"/>
<path d="M100.38 70.7427C100.337 70.9755 100.292 71.2079 100.244 71.4399L64 64L100.38 70.7427Z" fill="#51FF00"/>
<path d="M100.257 71.3766C100.21 71.6086 100.161 71.8402 100.109 72.0713L64 64L100.257 71.3766Z" fill="#4DFF00"/>
<path d="M100.123 72.0083C100.072 72.2394 100.018 72.4701 99.9626 72.7003L64 64L100.123 72.0083Z" fill="#48FF00"/>
<path d="M99.9777 72.6375C99.9224 72.8677 99.8649 73.0974 99.8053 73.3266L64 64L99.9777 72.6375Z" fill="#44FF00"/>
<path d="M99.8215 73.2641C99.7622 73.4933 99.7007 73.722 99.637 73.95L64 64L99.8215 73.2641Z" fill="#40FF00"/>
<path d="M99.6543 73.8878C99.5911 74.116 99.5256 74.3436 99.4579 74.5705L64 64L99.6543 73.8878Z" fill="#3CFF00"/>
<path d="M99.4763 74.5086C99.4091 74.7356 99.3397 74.962 99.2681 75.1877L64 64L99.4763 74.5086Z" fill="#37FF00"/>
<path d="M99.2875 75.1261C99.2163 75.3519 99.1429 75.5771 99.0674 75.8015L64 64L99.2875 75.1261Z" fill="#33FF00"/>
<path d="M99.088 75.7403C99.0128 75.9648 98.9355 76.1886 98.8561 76.4117L64 64L99.088 75.7403Z" fill="#2FFF00"/>
<path d="M98.8777 76.3509C98.7987 76.5741 98.7175 76.7965 98.6342 77.0181L64 64L98.8777 76.3509Z" fill="#2BFF00"/>
<path d="M98.6569 76.9577C98.5739 77.1795 98.4889 77.4005 98.4017 77.6206L64 64L98.6569 76.9577Z" fill="#26FF00"/>
<path d="M98.4254 77.5605C98.3386 77.7809 98.2498 78.0003 98.1588 78.2189L64 64L98.4254 77.5605Z" fill="#22FF00"/>
<path d="M98.1835 78.1593C98.0929 78.3781 98.0002 78.5959 97.9054 78.8129L64 64L98.1835 78.1593Z" fill="#1EFF00"/>
<path d="M97.9312 78.7537C97.8368 78.9709 97.7403 79.1871 97.6417 79.4024L64 64L97.9312 78.7537Z" fill="#1AFF00"/>
<path d="M97.6686 79.3436C97.5704 79.5591 97.4701 79.7736 97.3678 79.9872L64 64L97.6686 79.3436Z" fill="#15FF00"/>
<path d="M97.3956 79.9289C97.2937 80.1426 97.1897 80.3554 97.0837 80.5671L64 64L97.3956 79.9289Z" fill="#11FF00"/>
<path d="M97.1126 80.5093C97.0069 80.7212 96.8992 80.9321 96.7895 81.142L64 64L97.1126 80.5093Z" fill="#0DFF00"/>
<path d="M96.8194 81.0847C96.7101 81.2947 96.5987 81.5037 96.4854 81.7116L64 64L96.8194 81.0847Z" fill="#09FF00"/>
<path d="M96.5163 81.6549C96.4033 81.863 96.2883 82.07 96.1713 82.2758L64 64L96.5163 81.6549Z" fill="#04FF00"/>
<path d="M96.2032 82.2197C96.0866 82.4258 95.968 82.6307 95.8475 82.8345L64 64L96.2032 82.2197Z" fill="#00FF00"/>
<path d="M95.8803 82.7789C95.7601 82.9829 95.638 83.1858 95.5139 83.3875L64 64L95.8803 82.7789Z" fill="#00FF04"/>
<path d="M95.5477 83.3324C95.424 83.5343 95.2983 83.735 95.1708 83.9345L64 64L95.5477 83.3324Z" fill="#00FF09"/>
<path d="M95.2055 83.8801C95.0783 84.0798 94.9491 84.2783 94.8181 84.4755L64 64L95.2055 83.8801Z" fill="#00FF0D"/>
<path d="M94.8538 84.4217C94.7231 84.6191 94.5905 84.8153 94.4561 85.0102L64 64L94.8538 84.4217Z" fill="#00FF11"/>
<path d="M94.4927 84.957C94.3585 85.1522 94.2226 85.346 94.0847 85.5386L64 64L94.4927 84.957Z" fill="#00FF15"/>
<path d="M94.1223 85.486C93.9848 85.6788 93.8454 85.8702 93.7042 86.0603L64 64L94.1223 85.486Z" fill="#00FF1A"/>
<path d="M93.7427 86.0084C93.6019 86.1988 93.4592 86.3878 93.3147 86.5754L64 64L93.7427 86.0084Z" fill="#00FF1E"/>
<path d="M93.3541 86.5242C93.2099 86.712 93.064 86.8985 92.9163 87.0836L64 64L93.3541 86.5242Z" fill="#00FF22"/>
<path d="M92.9565 87.033C92.8091 87.2183 92.6599 87.4022 92.509 87.5847L64 64L92.9565 87.033Z" fill="#00FF26"/>
<path d="M92.5501 87.5349C92.3995 87.7176 92.2471 87.8989 92.093 88.0786L64 64L92.5501 87.5349Z" fill="#00FF2B"/>
<path d="M92.135 88.0296C91.9812 88.2096 91.8257 88.3882 91.6685 88.5653L64 64L92.135 88.0296Z" fill="#00FF2F"/>
<path d="M91.7114 88.5169C91.5545 88.6943 91.3959 88.8701 91.2356 89.0444L64 64L91.7114 88.5169Z" fill="#00FF33"/>
<path d="M91.2793 88.9968C91.1193 89.1714 90.9576 89.3444 90.7944 89.5159L64 64L91.2793 88.9968Z" fill="#00FF37"/>
<path d="M90.8388 89.4691C90.6759 89.6409 90.5112 89.8111 90.345 89.9797L64 64L90.8388 89.4691Z" fill="#00FF3C"/>
<path d="M90.3903 89.9336C90.2243 90.1025 90.0567 90.2698 89.8876 90.4355L64 64L90.3903 89.9336Z" fill="#00FF40"/>
<path d="M89.9336 90.3903C89.7648 90.5562 89.5943 90.7206 89.4222 90.8833L64 64L89.9336 90.3903Z" fill="#00FF44"/>
<path d="M89.4691 90.8388C89.2974 91.0018 89.124 91.1632 88.9492 91.3228L64 64L89.4691 90.8388Z" fill="#00FF48"/>
<path d="M88.9968 91.2793C88.8223 91.4392 88.6462 91.5975 88.4685 91.7541L64 64L88.9968 91.2793Z" fill="#00FF4D"/>
<path d="M88.5169 91.7114C88.3396 91.8683 88.1608 92.0234 87.9804 92.1769L64 64L88.5169 91.7114Z" fill="#00FF51"/>
<path d="M88.0296 92.135C87.8495 92.2888 87.668 92.4408 87.485 92.5911L64 64L88.0296 92.135Z" fill="#00FF55"/>
<path d="M87.5349 92.5501C87.3522 92.7007 87.168 92.8496 86.9825 92.9967L64 64L87.5349 92.5501Z" fill="#00FF59"/>
<path d="M87.033 92.9565C86.8477 93.1039 86.661 93.2495 86.4729 93.3933L64 64L87.033 92.9565Z" fill="#00FF5E"/>
<path d="M86.5242 93.3541C86.3363 93.4982 86.1471 93.6406 85.9565 93.7811L64 64L86.5242 93.3541Z" fill="#00FF62"/>
<path d="M86.0084 93.7427C85.8181 93.8836 85.6264 94.0226 85.4334 94.1597L64 64L86.0084 93.7427Z" fill="#00FF66"/>
<path d="M85.486 94.1223C85.2932 94.2598 85.0991 94.3954 84.9038 94.5292L64 64L85.486 94.1223Z" fill="#00FF6A"/>
<path d="M84.957 94.4927C84.7619 94.6268 84.5655 94.759 84.3678 94.8894L64 64L84.957 94.4927Z" fill="#00FF6F"/>
<path d="M84.4217 94.8538C84.2242 94.9845 84.0255 95.1132 83.8256 95.2401L64 64L84.4217 94.8538Z" fill="#00FF73"/>
<path d="M83.8801 95.2055C83.6804 95.3327 83.4795 95.458 83.2774 95.5814L64 64L83.8801 95.2055Z" fill="#00FF77"/>
<path d="M83.3324 95.5477C83.1306 95.6714 82.9275 95.7932 82.7232 95.913L64 64L83.3324 95.5477Z" fill="#00FF7B"/>
<path d="M82.7789 95.8803C82.5749 96.0004 82.3697 96.1187 82.1634 96.2349L64 64L82.7789 95.8803Z" fill="#00FF80"/>
<path d="M82.2197 96.2032C82.0136 96.3198 81.8064 96.4344 81.5981 96.547L64 64L82.2197 96.2032Z" fill="#00FF84"/>
<path d="M81.6549 96.5162C81.4468 96.6292 81.2376 96.7402 81.0274 96.8492L64 64L81.6549 96.5162Z" fill="#00FF88"/>
<path d="M81.0847 96.8194C80.8747 96.9287 80.6636 97.036 80.4515 97.1413L64 64L81.0847 96.8194Z" fill="#00FF8C"/>
<path d="M80.5093 97.1126C80.2974 97.2182 80.0845 97.3218 79.8706 97.4234L64 64L80.5093 97.1126Z" fill="#00FF91"/>
<path d="M79.9289 97.3957C79.7152 97.4976 79.5005 97.5975 79.2849 97.6953L64 64L79.9289 97.3957Z" fill="#00FF95"/>
<path d="M79.3437 97.6686C79.1282 97.7668 78.9118 97.8629 78.6945 97.9569L64 64L79.3437 97.6686Z" fill="#00FF99"/>
<path d="M78.7537 97.9312C78.5366 98.0256 78.3185 98.118 78.0996 98.2082L64 64L78.7537 97.9312Z" fill="#00FF9D"/>
<path d="M78.1593 98.1836C77.9405 98.2742 77.7209 98.3627 77.5004 98.4491L64 64L78.1593 98.1836Z" fill="#00FFA2"/>
<path d="M77.5605 98.4255C77.3402 98.5123 77.1191 98.5969 76.8972 98.6795L64 64L77.5605 98.4255Z" fill="#00FFA6"/>
<path d="M76.9577 98.6569C76.7359 98.7398 76.5133 98.8206 76.29 98.8992L64 64L76.9577 98.6569Z" fill="#00FFAA"/>
<path d="M76.3509 98.8777C76.1277 98.9568 75.9037 99.0337 75.679 99.1084L64 64L76.3509 98.8777Z" fill="#00FFAE"/>
<path d="M75.7403 99.088C75.5157 99.1631 75.2905 99.2361 75.0645 99.3069L64 64L75.7403 99.088Z" fill="#00FFB3"/>
<path d="M75.1261 99.2875C74.9003 99.3587 74.6738 99.4278 74.4466 99.4946L64 64L75.1261 99.2875Z" fill="#00FFB7"/>
<path d="M74.5086 99.4763C74.2815 99.5436 74.0539 99.6086 73.8256 99.6715L64 64L74.5086 99.4763Z" fill="#00FFBB"/>
<path d="M73.8878 99.6543C73.6596 99.7176 73.4309 99.7787 73.2015 99.8376L64 64L73.8878 99.6543Z" fill="#00FFBF"/>
<path d="M73.2641 99.8214C73.0348 99.8807 72.805 99.9378 72.5747 99.9927L64 64L73.2641 99.8214Z" fill="#00FFC4"/>
<path d="M72.6375 99.9777C72.4072 100.033 72.1765 100.086 71.9452 100.137L64 64L72.6375 99.9777Z" fill="#00FFC8"/>
<path d="M72.0083 100.123C71.7771 100.174 71.5454 100.223 71.3133 100.27L64 64L72.0083 100.123Z" fill="#00FFCC"/>
<path d="M71.3766 100.257C71.1446 100.304 70.9121 100.349 70.6792 100.392L64 64L71.3766 100.257Z" fill="#00FFD0"/>
<path d="M70.7427 100.38C70.5099 100.424 70.2767 100.464 70.0431 100.503L64 64L70.7427 100.38Z" fill="#00FFD5"/>
<path d="M70.1068 100.493C69.8732 100.532 69.6393 100.568 69.4051 100.603L64 64L70.1068 100.493Z" fill="#00FFD9"/>
<path d="M69.469 100.594C69.2348 100.629 69.0003 100.661 68.7654 100.692L64 64L69.469 100.594Z" fill="#00FFDD"/>
<path d="M68.8295 100.683C68.5947 100.714 68.3597 100.743 68.1243 100.769L64 64L68.8295 100.683Z" fill="#00FFE1"/>
<path d="M68.1885 100.762C67.9533 100.789 67.7177 100.814 67.482 100.836L64 64L68.1885 100.762Z" fill="#00FFE6"/>
<path d="M67.5463 100.83C67.3106 100.852 67.0747 100.873 66.8386 100.891L64 64L67.5463 100.83Z" fill="#00FFEA"/>
<path d="M66.903 100.886C66.6669 100.905 66.4307 100.921 66.1943 100.935L64 64L66.903 100.886Z" fill="#00FFEE"/>
<path d="M66.2588 100.931C66.0225 100.945 65.786 100.958 65.5494 100.968L64 64L66.2588 100.931Z" fill="#00FFF2"/>
<path d="M65.6139 100.965C65.3774 100.975 65.1407 100.983 64.904 100.989L64 64L65.6139 100.965Z" fill="#00FFF7"/>
<path d="M64.9685 100.987C64.7318 100.994 64.4951 100.997 64.2583 100.999L64 64L64.9685 100.987Z" fill="#00FFFB"/>
<path d="M64.3229 100.999C64.0861 101.001 63.8494 101 63.6126 100.998L64 64.0001L64.3229 100.999Z" fill="#00FFFF"/>
<path d="M63.6771 100.999C63.4404 100.997 63.2036 100.992 62.9669 100.986L64 64L63.6771 100.999Z" fill="#00FBFF"/>
<path d="M63.0315 100.987C62.7948 100.981 62.5581 100.973 62.3216 100.962L64 64L63.0315 100.987Z" fill="#00F7FF"/>
<path d="M62.3861 100.965C62.1495 100.954 61.9131 100.942 61.6768 100.927L64 64L62.3861 100.965Z" fill="#00F2FF"/>
<path d="M61.7412 100.931C61.5049 100.917 61.2687 100.9 61.0327 100.881L64 64L61.7412 100.931Z" fill="#00EEFF"/>
<path d="M61.097 100.886C60.8609 100.867 60.6251 100.847 60.3894 100.823L64 64L61.097 100.886Z" fill="#00EAFF"/>
<path d="M60.4537 100.83C60.218 100.807 59.9825 100.782 59.7473 100.755L64 64L60.4537 100.83Z" fill="#00E6FF"/>
<path d="M59.8115 100.762C59.5762 100.735 59.3412 100.706 59.1065 100.675L64 64L59.8115 100.762Z" fill="#00E1FF"/>
<path d="M59.1706 100.683C58.9358 100.653 58.7013 100.619 58.4672 100.584L64 64L59.1706 100.683Z" fill="#00DDFF"/>
<path d="M58.5311 100.594C58.2969 100.559 58.0631 100.521 57.8296 100.482L64 64L58.5311 100.594Z" fill="#00D9FF"/>
<path d="M57.8933 100.493C57.6597 100.454 57.4266 100.412 57.1938 100.369L64 64L57.8933 100.493Z" fill="#00D5FF"/>
<path d="M57.2573 100.38C57.0245 100.337 56.7921 100.292 56.5601 100.244L64 64L57.2573 100.38Z" fill="#00D0FF"/>
<path d="M56.6234 100.257C56.3914 100.21 56.1598 100.161 55.9287 100.109L64 64L56.6234 100.257Z" fill="#00CCFF"/>
<path d="M55.9917 100.123C55.7606 100.072 55.5299 100.018 55.2997 99.9626L64 64L55.9917 100.123Z" fill="#00C8FF"/>
<path d="M55.3625 99.9777C55.1323 99.9224 54.9026 99.8649 54.6734 99.8052L64 64L55.3625 99.9777Z" fill="#00C4FF"/>
<path d="M54.736 99.8215C54.5067 99.7622 54.278 99.7007 54.05 99.637L64 64L54.736 99.8215Z" fill="#00BFFF"/>
<path d="M54.1122 99.6543C53.884 99.591 53.6565 99.5256 53.4295 99.4579L64 64L54.1122 99.6543Z" fill="#00BBFF"/>
<path d="M53.4914 99.4763C53.2644 99.4091 53.038 99.3397 52.8123 99.2681L64 64L53.4914 99.4763Z" fill="#00B7FF"/>
<path d="M52.8739 99.2875C52.6481 99.2163 52.4229 99.1429 52.1985 99.0674L64 64L52.8739 99.2875Z" fill="#00B3FF"/>
<path d="M52.2598 99.088C52.0352 99.0128 51.8114 98.9355 51.5883 98.8561L64 64L52.2598 99.088Z" fill="#00AEFF"/>
<path d="M51.6492 98.8777C51.426 98.7987 51.2035 98.7175 50.9819 98.6342L64 64L51.6492 98.8777Z" fill="#00AAFF"/>
<path d="M51.0424 98.6569C50.8206 98.5739 50.5996 98.4889 50.3794 98.4017L64 64L51.0424 98.6569Z" fill="#00A6FF"/>
<path d="M50.4395 98.4254C50.2192 98.3387 49.9997 98.2498 49.7811 98.1588L64 64L50.4395 98.4254Z" fill="#00A2FF"/>
<path d="M49.8407 98.1835C49.622 98.0929 49.4041 98.0002 49.1871 97.9054L64 64L49.8407 98.1835Z" fill="#009DFF"/>
<path d="M49.2463 97.9312C49.0292 97.8368 48.8129 97.7403 48.5976 97.6417L64 64L49.2463 97.9312Z" fill="#0099FF"/>
<path d="M48.6564 97.6686C48.4409 97.5704 48.2264 97.4701 48.0128 97.3678L64 64L48.6564 97.6686Z" fill="#0095FF"/>
<path d="M48.0711 97.3956C47.8574 97.2937 47.6446 97.1897 47.4329 97.0837L64 64L48.0711 97.3956Z" fill="#0091FF"/>
<path d="M47.4907 97.1126C47.2788 97.0069 47.0679 96.8992 46.8581 96.7895L64 64L47.4907 97.1126Z" fill="#008CFF"/>
<path d="M46.9153 96.8194C46.7053 96.7101 46.4963 96.5987 46.2884 96.4854L64 64L46.9153 96.8194Z" fill="#0088FF"/>
<path d="M46.3451 96.5163C46.137 96.4033 45.93 96.2883 45.7242 96.1713L64 64L46.3451 96.5163Z" fill="#0084FF"/>
<path d="M45.7803 96.2032C45.5742 96.0866 45.3693 95.968 45.1655 95.8475L64 64L45.7803 96.2032Z" fill="#0080FF"/>
<path d="M45.2211 95.8803C45.0171 95.7601 44.8142 95.638 44.6125 95.5139L64 64L45.2211 95.8803Z" fill="#007BFF"/>
<path d="M44.6676 95.5477C44.4657 95.424 44.265 95.2983 44.0655 95.1707L64 64L44.6676 95.5477Z" fill="#0077FF"/>
<path d="M44.1199 95.2055C43.9202 95.0783 43.7217 94.9491 43.5245 94.8181L64 64L44.1199 95.2055Z" fill="#0072FF"/>
<path d="M43.5784 94.8538C43.3809 94.7231 43.1847 94.5905 42.9898 94.4561L64 64L43.5784 94.8538Z" fill="#006FFF"/>
<path d="M43.043 94.4927C42.8478 94.3585 42.654 94.2226 42.4615 94.0847L64 64L43.043 94.4927Z" fill="#006AFF"/>
<path d="M42.514 94.1223C42.3212 93.9848 42.1298 93.8454 41.9397 93.7042L64 64L42.514 94.1223Z" fill="#0066FF"/>
<path d="M41.9916 93.7427C41.8012 93.6019 41.6123 93.4592 41.4247 93.3147L64 64L41.9916 93.7427Z" fill="#0062FF"/>
<path d="M41.4758 93.3541C41.288 93.2099 41.1015 93.064 40.9165 92.9163L64 64L41.4758 93.3541Z" fill="#005EFF"/>
<path d="M40.967 92.9565C40.7816 92.8091 40.5978 92.6599 40.4153 92.509L64 64L40.967 92.9565Z" fill="#0059FF"/>
<path d="M40.4651 92.5501C40.2824 92.3995 40.1011 92.2471 39.9214 92.093L64 64L40.4651 92.5501Z" fill="#0055FF"/>
<path d="M39.9704 92.135C39.7904 91.9812 39.6118 91.8257 39.4348 91.6685L64 64L39.9704 92.135Z" fill="#0051FF"/>
<path d="M39.4831 91.7114C39.3057 91.5545 39.1299 91.3959 38.9556 91.2356L64 64L39.4831 91.7114Z" fill="#004DFF"/>
<path d="M39.0032 91.2793C38.8286 91.1193 38.6555 90.9576 38.4841 90.7944L64 64L39.0032 91.2793Z" fill="#0048FF"/>
<path d="M38.5309 90.8388C38.3591 90.6759 38.1889 90.5112 38.0203 90.345L64 64L38.5309 90.8388Z" fill="#0044FF"/>
<path d="M38.0664 90.3903C37.8975 90.2243 37.7302 90.0567 37.5645 89.8876L64 64L38.0664 90.3903Z" fill="#0040FF"/>
<path d="M37.6097 89.9337C37.4438 89.7648 37.2794 89.5943 37.1167 89.4222L64 64L37.6097 89.9337Z" fill="#003CFF"/>
<path d="M37.1612 89.4691C36.9982 89.2974 36.8368 89.124 36.6772 88.9492L64 64L37.1612 89.4691Z" fill="#0037FF"/>
<path d="M36.7208 88.9968C36.5608 88.8223 36.4025 88.6462 36.2459 88.4685L64 64L36.7208 88.9968Z" fill="#0033FF"/>
<path d="M36.2886 88.5169C36.1317 88.3396 35.9766 88.1608 35.8231 87.9804L64 64L36.2886 88.5169Z" fill="#002FFF"/>
<path d="M35.865 88.0296C35.7112 87.8495 35.5592 87.668 35.4089 87.485L64 64L35.865 88.0296Z" fill="#002BFF"/>
<path d="M35.4499 87.5349C35.2993 87.3522 35.1504 87.168 35.0034 86.9825L64 64L35.4499 87.5349Z" fill="#0026FF"/>
<path d="M35.0435 87.033C34.8961 86.8477 34.7505 86.661 34.6067 86.4729L64 64L35.0435 87.033Z" fill="#0022FF"/>
<path d="M34.6459 86.5242C34.5018 86.3363 34.3594 86.1471 34.2189 85.9565L64 64L34.6459 86.5242Z" fill="#001EFF"/>
<path d="M34.2573 86.0085C34.1165 85.8181 33.9774 85.6264 33.8403 85.4334L64 64L34.2573 86.0085Z" fill="#001AFF"/>
<path d="M33.8777 85.486C33.7402 85.2932 33.6046 85.0992 33.4708 84.9038L64 64L33.8777 85.486Z" fill="#0015FF"/>
<path d="M33.5073 84.957C33.3732 84.7619 33.241 84.5655 33.1106 84.3678L64 64L33.5073 84.957Z" fill="#0011FF"/>
<path d="M33.1462 84.4217C33.0156 84.2242 32.8868 84.0255 32.7599 83.8256L64 64L33.1462 84.4217Z" fill="#000DFF"/>
<path d="M32.7945 83.8801C32.6673 83.6804 32.542 83.4795 32.4186 83.2774L64 64L32.7945 83.8801Z" fill="#0009FF"/>
<path d="M32.4523 83.3324C32.3286 83.1306 32.2068 82.9275 32.087 82.7232L64 64L32.4523 83.3324Z" fill="#0004FF"/>
<path d="M32.1197 82.7789C31.9996 82.5749 31.8813 82.3697 31.7651 82.1634L64 64L32.1197 82.7789Z" fill="#0000FF"/>
<path d="M31.7968 82.2197C31.6802 82.0136 31.5656 81.8064 31.453 81.5981L64 64L31.7968 82.2197Z" fill="#0400FF"/>
<path d="M31.4838 81.6549C31.3708 81.4468 31.2598 81.2376 31.1508 81.0274L64 64L31.4838 81.6549Z" fill="#0900FF"/>
<path d="M31.1806 81.0847C31.0713 80.8747 30.964 80.6636 30.8587 80.4515L64 64L31.1806 81.0847Z" fill="#0D00FF"/>
<path d="M30.8874 80.5093C30.7818 80.2974 30.6782 80.0845 30.5766 79.8706L64 64L30.8874 80.5093Z" fill="#1100FF"/>
<path d="M30.6044 79.9289C30.5024 79.7152 30.4025 79.5005 30.3047 79.2849L64 64L30.6044 79.9289Z" fill="#1500FF"/>
<path d="M30.3314 79.3437C30.2333 79.1282 30.1371 78.9118 30.0431 78.6945L64 64L30.3314 79.3437Z" fill="#1A00FF"/>
<path d="M30.0688 78.7537C29.9744 78.5366 29.882 78.3185 29.7918 78.0996L64 64L30.0688 78.7537Z" fill="#1E00FF"/>
<path d="M29.8165 78.1593C29.7258 77.9405 29.6373 77.7209 29.5509 77.5004L64 64L29.8165 78.1593Z" fill="#2200FF"/>
<path d="M29.5746 77.5605C29.4878 77.3402 29.4031 77.1191 29.3206 76.8972L64 64L29.5746 77.5605Z" fill="#2600FF"/>
<path d="M29.3431 76.9577C29.2602 76.7359 29.1794 76.5133 29.1008 76.29L64 64L29.3431 76.9577Z" fill="#2B00FF"/>
<path d="M29.1223 76.3509C29.0432 76.1276 28.9663 75.9037 28.8916 75.679L64 64L29.1223 76.3509Z" fill="#2F00FF"/>
<path d="M28.912 75.7403C28.8369 75.5157 28.7639 75.2905 28.6931 75.0645L64 64L28.912 75.7403Z" fill="#3300FF"/>
<path d="M28.7125 75.1261C28.6413 74.9003 28.5723 74.6738 28.5054 74.4466L64 64L28.7125 75.1261Z" fill="#3700FF"/>
<path d="M28.5237 74.5086C28.4564 74.2815 28.3914 74.0539 28.3285 73.8256L64 64L28.5237 74.5086Z" fill="#3C00FF"/>
<path d="M28.3457 73.8878C28.2824 73.6596 28.2213 73.4309 28.1624 73.2015L64 64L28.3457 73.8878Z" fill="#4000FF"/>
<path d="M28.1785 73.2641C28.1193 73.0348 28.0622 72.805 28.0073 72.5747L64 64L28.1785 73.2641Z" fill="#4400FF"/>
<path d="M28.0223 72.6375C27.967 72.4072 27.914 72.1765 27.8631 71.9452L64 64L28.0223 72.6375Z" fill="#4800FF"/>
<path d="M27.8771 72.0083C27.8258 71.7771 27.7768 71.5454 27.73 71.3133L64 64L27.8771 72.0083Z" fill="#4D00FF"/>
<path d="M27.7428 71.3766C27.6956 71.1446 27.6506 70.9121 27.6078 70.6792L64 64L27.7428 71.3766Z" fill="#5100FF"/>
<path d="M27.6196 70.7427C27.5764 70.5099 27.5355 70.2767 27.4968 70.0431L64 64L27.6196 70.7427Z" fill="#5500FF"/>
<path d="M27.5075 70.1068C27.4684 69.8732 27.4315 69.6393 27.3969 69.4051L64 64L27.5075 70.1068Z" fill="#5900FF"/>
<path d="M27.4064 69.469C27.3714 69.2348 27.3387 69.0002 27.3082 68.7654L64 64L27.4064 69.469Z" fill="#5E00FF"/>
<path d="M27.3165 68.8295C27.2856 68.5947 27.257 68.3597 27.2306 68.1243L64 64L27.3165 68.8295Z" fill="#6200FF"/>
<path d="M27.2378 68.1885C27.211 67.9533 27.1865 67.7177 27.1642 67.482L64 64L27.2378 68.1885Z" fill="#6600FF"/>
<path d="M27.1704 67.5463C27.1477 67.3106 27.1272 67.0747 27.1091 66.8386L64 64L27.1704 67.5463Z" fill="#6A00FF"/>
<path d="M27.1141 66.903C27.0955 66.6669 27.0792 66.4307 27.0651 66.1943L64 64L27.1141 66.903Z" fill="#6F00FF"/>
<path d="M27.069 66.2588C27.0546 66.0225 27.0424 65.786 27.0325 65.5494L64 64L27.069 66.2588Z" fill="#7300FF"/>
<path d="M27.0352 65.6139C27.0249 65.3774 27.0168 65.1407 27.011 64.904L64 64L27.0352 65.6139Z" fill="#7700FF"/>
<path d="M27.0127 64.9685C27.0065 64.7318 27.0026 64.4951 27.0009 64.2583L64 64L27.0127 64.9685Z" fill="#7B00FF"/>
<path d="M27.0014 64.3229C26.9993 64.0861 26.9995 63.8493 27.002 63.6125L64 64L27.0014 64.3229Z" fill="#8000FF"/>
<path d="M27.0014 63.6771C27.0035 63.4403 27.0078 63.2036 27.0144 62.9669L64 64L27.0014 63.6771Z" fill="#8400FF"/>
<path d="M27.0127 63.0314C27.0189 62.7947 27.0274 62.5581 27.0381 62.3216L64 64L27.0127 63.0314Z" fill="#8800FF"/>
<path d="M27.0352 62.3861C27.0455 62.1495 27.0581 61.9131 27.073 61.6767L64 64L27.0352 62.3861Z" fill="#8C00FF"/>
<path d="M27.069 61.7412C27.0835 61.5049 27.1002 61.2687 27.1192 61.0326L64 64L27.069 61.7412Z" fill="#9100FF"/>
<path d="M27.1141 61.097C27.1327 60.8609 27.1535 60.6251 27.1766 60.3894L64 64L27.1141 61.097Z" fill="#9500FF"/>
<path d="M27.1703 60.4537C27.193 60.218 27.218 59.9825 27.2452 59.7473L64 64L27.1703 60.4537Z" fill="#9900FF"/>
<path d="M27.2379 59.8115C27.2647 59.5762 27.2937 59.3412 27.325 59.1065L64 64L27.2379 59.8115Z" fill="#9D00FF"/>
<path d="M27.3166 59.1705C27.3475 58.9358 27.3806 58.7013 27.416 58.4672L64 64L27.3166 59.1705Z" fill="#A200FF"/>
<path d="M27.4064 58.5311C27.4414 58.2969 27.4787 58.063 27.5182 57.8296L64 64L27.4064 58.5311Z" fill="#A600FF"/>
<path d="M27.5074 57.8932C27.5465 57.6597 27.5878 57.4265 27.6314 57.1938L64 64L27.5074 57.8932Z" fill="#AA00FF"/>
<path d="M27.6196 57.2573C27.6627 57.0245 27.7081 56.7921 27.7557 56.5601L64 64L27.6196 57.2573Z" fill="#AE00FF"/>
<path d="M27.7428 56.6234C27.79 56.3913 27.8394 56.1598 27.8911 55.9287L64 64L27.7428 56.6234Z" fill="#B300FF"/>
<path d="M27.877 55.9917C27.9283 55.7606 27.9818 55.5299 28.0374 55.2997L64 64L27.877 55.9917Z" fill="#B700FF"/>
<path d="M28.0223 55.3625C28.0776 55.1323 28.1351 54.9026 28.1948 54.6734L64 64L28.0223 55.3625Z" fill="#BB00FF"/>
<path d="M28.1786 54.7359C28.2378 54.5067 28.2993 54.278 28.363 54.05L64 64L28.1786 54.7359Z" fill="#BF00FF"/>
<path d="M28.3457 54.1122C28.409 53.884 28.4744 53.6564 28.5421 53.4295L64 64L28.3457 54.1122Z" fill="#C400FF"/>
<path d="M28.5237 53.4914C28.5909 53.2644 28.6604 53.038 28.732 52.8123L64 64L28.5237 53.4914Z" fill="#C800FF"/>
<path d="M28.7125 52.8739C28.7837 52.648 28.8571 52.4229 28.9326 52.1985L64 64L28.7125 52.8739Z" fill="#CC00FF"/>
<path d="M28.912 52.2597C28.9872 52.0352 29.0645 51.8114 29.1439 51.5883L64 64L28.912 52.2597Z" fill="#D000FF"/>
<path d="M29.1223 51.6491C29.2013 51.4259 29.2825 51.2035 29.3658 50.9819L64 64L29.1223 51.6491Z" fill="#D500FF"/>
<path d="M29.3431 51.0423C29.4261 50.8205 29.5111 50.5996 29.5983 50.3794L64 64L29.3431 51.0423Z" fill="#D900FF"/>
<path d="M29.5746 50.4395C29.6613 50.2191 29.7502 49.9997 29.8412 49.7811L64 64L29.5746 50.4395Z" fill="#DD00FF"/>
<path d="M29.8165 49.8407C29.9071 49.6219 29.9998 49.4041 30.0946 49.1871L64 64L29.8165 49.8407Z" fill="#E100FF"/>
<path d="M30.0688 49.2463C30.1632 49.0291 30.2597 48.8129 30.3583 48.5976L64 64L30.0688 49.2463Z" fill="#E600FF"/>
<path d="M30.3315 48.6564C30.4296 48.4409 30.5299 48.2264 30.6322 48.0128L64 64L30.3315 48.6564Z" fill="#EA00FF"/>
<path d="M30.6043 48.0711C30.7063 47.8573 30.8103 47.6446 30.9163 47.4329L64 64L30.6043 48.0711Z" fill="#EE00FF"/>
<path d="M30.8875 47.4907C30.9931 47.2788 31.1008 47.0679 31.2105 46.858L64 64L30.8875 47.4907Z" fill="#F200FF"/>
<path d="M31.1806 46.9153C31.2899 46.7053 31.4013 46.4963 31.5146 46.2884L64 64L31.1806 46.9153Z" fill="#F700FF"/>
<path d="M31.4838 46.3451C31.5967 46.137 31.7117 45.93 31.8287 45.7242L64 64L31.4838 46.3451Z" fill="#FB00FF"/>
<path d="M31.7968 45.7803C31.9134 45.5742 32.032 45.3693 32.1525 45.1655L64 64L31.7968 45.7803Z" fill="#FF00FF"/>
<path d="M32.1197 45.2211C32.2399 45.0171 32.362 44.8142 32.4861 44.6125L64 64L32.1197 45.2211Z" fill="#FF00FB"/>
<path d="M32.4523 44.6675C32.5761 44.4657 32.7017 44.265 32.8293 44.0655L64 64L32.4523 44.6675Z" fill="#FF00F7"/>
<path d="M32.7945 44.1199C32.9217 43.9202 33.0509 43.7217 33.1819 43.5245L64 64L32.7945 44.1199Z" fill="#FF00F2"/>
<path d="M33.1462 43.5783C33.2769 43.3809 33.4095 43.1847 33.544 42.9898L64 64L33.1462 43.5783Z" fill="#FF00EE"/>
<path d="M33.5073 43.043C33.6414 42.8478 33.7774 42.654 33.9153 42.4614L64 64L33.5073 43.043Z" fill="#FF00EA"/>
<path d="M33.8777 42.514C34.0152 42.3212 34.1546 42.1298 34.2958 41.9397L64 64L33.8777 42.514Z" fill="#FF00E6"/>
<path d="M34.2573 41.9916C34.3981 41.8012 34.5408 41.6122 34.6853 41.4246L64 64L34.2573 41.9916Z" fill="#FF00E1"/>
<path d="M34.6459 41.4758C34.7901 41.288 34.936 41.1015 35.0838 40.9165L64 64L34.6459 41.4758Z" fill="#FF00DD"/>
<path d="M35.0435 40.967C35.1909 40.7816 35.3401 40.5978 35.491 40.4153L64 64L35.0435 40.967Z" fill="#FF00D9"/>
<path d="M35.4499 40.4651C35.6005 40.2824 35.7529 40.1011 35.907 39.9214L64 64L35.4499 40.4651Z" fill="#FF00D5"/>
<path d="M35.865 39.9704C36.0188 39.7904 36.1743 39.6118 36.3315 39.4347L64 64L35.865 39.9704Z" fill="#FF00D0"/>
<path d="M36.2886 39.4831C36.4455 39.3057 36.6041 39.1299 36.7644 38.9556L64 64L36.2886 39.4831Z" fill="#FF00CC"/>
<path d="M36.7208 39.0032C36.8807 38.8286 37.0424 38.6555 37.2057 38.4841L64 64L36.7208 39.0032Z" fill="#FF00C8"/>
<path d="M37.1612 38.5309C37.3242 38.3591 37.4888 38.1889 37.6551 38.0203L64 64L37.1612 38.5309Z" fill="#FF00C4"/>
<path d="M37.6097 38.0663C37.7757 37.8975 37.9433 37.7302 38.1125 37.5645L64 64L37.6097 38.0663Z" fill="#FF00BF"/>
<path d="M38.0664 37.6097C38.2353 37.4438 38.4057 37.2794 38.5778 37.1167L64 64L38.0664 37.6097Z" fill="#FF00BB"/>
<path d="M38.5309 37.1611C38.7026 36.9981 38.876 36.8368 39.0508 36.6771L64 64L38.5309 37.1611Z" fill="#FF00B7"/>
<path d="M39.0032 36.7207C39.1778 36.5608 39.3539 36.4025 39.5315 36.2459L64 64L39.0032 36.7207Z" fill="#FF00B3"/>
<path d="M39.4831 36.2886C39.6604 36.1317 39.8392 35.9765 40.0196 35.8231L64 64L39.4831 36.2886Z" fill="#FF00AE"/>
<path d="M39.9704 35.865C40.1505 35.7112 40.332 35.5592 40.515 35.4089L64 64L39.9704 35.865Z" fill="#FF00AA"/>
<path d="M40.4651 35.4499C40.6478 35.2993 40.832 35.1504 41.0175 35.0033L64 64L40.4651 35.4499Z" fill="#FF00A6"/>
<path d="M40.967 35.0435C41.1523 34.8961 41.339 34.7505 41.5271 34.6067L64 64L40.967 35.0435Z" fill="#FF00A2"/>
<path d="M41.4758 34.6459C41.6637 34.5018 41.8529 34.3594 42.0435 34.2189L64 64L41.4758 34.6459Z" fill="#FF009D"/>
<path d="M41.9915 34.2573C42.1819 34.1165 42.3736 33.9774 42.5666 33.8403L64 64L41.9915 34.2573Z" fill="#FF0099"/>
<path d="M42.514 33.8777C42.7068 33.7402 42.9009 33.6046 43.0962 33.4708L64 64L42.514 33.8777Z" fill="#FF0095"/>
<path d="M43.043 33.5073C43.2381 33.3732 43.4345 33.241 43.6322 33.1106L64 64L43.043 33.5073Z" fill="#FF0091"/>
<path d="M43.5783 33.1462C43.7758 33.0155 43.9745 32.8867 44.1744 32.7599L64 64L43.5783 33.1462Z" fill="#FF008C"/>
<path d="M44.1199 32.7945C44.3196 32.6673 44.5206 32.542 44.7227 32.4186L64 64L44.1199 32.7945Z" fill="#FF0088"/>
<path d="M44.6676 32.4523C44.8695 32.3286 45.0725 32.2068 45.2768 32.087L64 64L44.6676 32.4523Z" fill="#FF0084"/>
<path d="M45.2211 32.1197C45.4251 31.9995 45.6303 31.8813 45.8366 31.7651L64 64L45.2211 32.1197Z" fill="#FF0080"/>
<path d="M45.7803 31.7968C45.9864 31.6802 46.1936 31.5656 46.4019 31.453L64 64L45.7803 31.7968Z" fill="#FF007B"/>
<path d="M46.3451 31.4838C46.5532 31.3708 46.7624 31.2598 46.9726 31.1508L64 64L46.3451 31.4838Z" fill="#FF0077"/>
<path d="M46.9153 31.1806C47.1253 31.0713 47.3364 30.9639 47.5485 30.8587L64 64L46.9153 31.1806Z" fill="#FF0073"/>
<path d="M47.4907 30.8874C47.7026 30.7818 47.9155 30.6781 48.1294 30.5766L64 64L47.4907 30.8874Z" fill="#FF006F"/>
<path d="M48.0711 30.6043C48.2848 30.5024 48.4995 30.4025 48.7152 30.3047L64 64L48.0711 30.6043Z" fill="#FF006A"/>
<path d="M48.6563 30.3314C48.8718 30.2332 49.0882 30.1371 49.3055 30.0431L64 64L48.6563 30.3314Z" fill="#FF0066"/>
<path d="M49.2463 30.0688C49.4635 29.9744 49.6815 29.882 49.9004 29.7918L64 64L49.2463 30.0688Z" fill="#FF0062"/>
<path d="M49.8407 29.8165C50.0595 29.7258 50.2791 29.6373 50.4996 29.5509L64 64L49.8407 29.8165Z" fill="#FF005E"/>
<path d="M50.4395 29.5745C50.6598 29.4878 50.8809 29.4031 51.1028 29.3206L64 64L50.4395 29.5745Z" fill="#FF0059"/>
<path d="M51.0423 29.3431C51.2641 29.2602 51.4867 29.1794 51.71 29.1008L64 64L51.0423 29.3431Z" fill="#FF0055"/>
<path d="M51.6491 29.1223C51.8723 29.0432 52.0963 28.9663 52.321 28.8916L64 64L51.6491 29.1223Z" fill="#FF0051"/>
<path d="M52.2597 28.912C52.4843 28.8369 52.7095 28.7639 52.9355 28.6931L64 64L52.2597 28.912Z" fill="#FF004D"/>
<path d="M52.8739 28.7125C53.0997 28.6413 53.3262 28.5722 53.5534 28.5054L64 64L52.8739 28.7125Z" fill="#FF0048"/>
<path d="M53.4915 28.5237C53.7185 28.4564 53.9462 28.3913 54.1744 28.3285L64 64L53.4915 28.5237Z" fill="#FF0044"/>
<path d="M54.1122 28.3457C54.3404 28.2824 54.5691 28.2213 54.7985 28.1624L64 64L54.1122 28.3457Z" fill="#FF0040"/>
<path d="M54.736 28.1785C54.9652 28.1193 55.195 28.0622 55.4254 28.0073L64 64L54.736 28.1785Z" fill="#FF003C"/>
<path d="M55.3625 28.0223C55.5928 27.967 55.8235 27.914 56.0548 27.8631L64 64L55.3625 28.0223Z" fill="#FF0037"/>
<path d="M55.9917 27.877C56.2229 27.8258 56.4546 27.7768 56.6867 27.73L64 64L55.9917 27.877Z" fill="#FF0033"/>
<path d="M56.6234 27.7428C56.8554 27.6956 57.0879 27.6506 57.3208 27.6078L64 64L56.6234 27.7428Z" fill="#FF002F"/>
<path d="M57.2573 27.6196C57.4901 27.5764 57.7233 27.5355 57.9569 27.4968L64 64L57.2573 27.6196Z" fill="#FF002B"/>
<path d="M57.8932 27.5074C58.1268 27.4683 58.3607 27.4315 58.5949 27.3969L64 64L57.8932 27.5074Z" fill="#FF0026"/>
<path d="M58.5311 27.4064C58.7653 27.3714 58.9998 27.3387 59.2346 27.3082L64 64L58.5311 27.4064Z" fill="#FF0022"/>
<path d="M59.1705 27.3165C59.4053 27.2856 59.6403 27.257 59.8756 27.2306L64 64L59.1705 27.3165Z" fill="#FF001E"/>
<path d="M59.8115 27.2378C60.0468 27.211 60.2823 27.1865 60.518 27.1642L64 64L59.8115 27.2378Z" fill="#FF001A"/>
<path d="M60.4537 27.1703C60.6894 27.1476 60.9253 27.1272 61.1614 27.109L64 64L60.4537 27.1703Z" fill="#FF0015"/>
<path d="M61.097 27.1141C61.3331 27.0955 61.5693 27.0792 61.8057 27.0651L64 64L61.097 27.1141Z" fill="#FF0011"/>
<path d="M61.7412 27.069C61.9776 27.0546 62.214 27.0424 62.4506 27.0325L64 64L61.7412 27.069Z" fill="#FF000D"/>
<path d="M62.3861 27.0352C62.6226 27.0249 62.8593 27.0168 63.096 27.011L64 64L62.3861 27.0352Z" fill="#FF0009"/>
<path d="M63.0315 27.0127C63.2682 27.0065 63.5049 27.0026 63.7417 27.0009L64 64L63.0315 27.0127Z" fill="#FF0004"/>
<path d="M64 101C84.4346 101 101 84.4345 101 64C101 43.5654 84.4346 27 64 27C43.5655 27 27 43.5654 27 64C27 84.4345 43.5655 101 64 101Z" fill="url(#paint1_radial_14_5)"/>
</g>
<defs>
<filter id="filter0_ii_14_5" x="12" y="8" width="104" height="112" filterUnits="userSpaceOnUse" color-interpolation-filters="sRGB">
<feFlood flood-opacity="0" result="BackgroundImageFix"/>
<feBlend mode="normal" in="SourceGraphic" in2="BackgroundImageFix" result="shape"/>
<feColorMatrix in="SourceAlpha" type="matrix" values="0 0 0 0 0 0 0 0 0 0 0 0 0 0 0 0 0 0 127 0" result="hardAlpha"/>
<feOffset dy="12"/>
<feGaussianBlur stdDeviation="2"/>
<feComposite in2="hardAlpha" operator="arithmetic" k2="-1" k3="1"/>
<feColorMatrix type="matrix" values="0 0 0 0 0 0 0 0 0 0 0 0 0 0 0 0 0 0 0.25 0"/>
<feBlend mode="normal" in2="shape" result="effect1_innerShadow_14_5"/>
<feColorMatrix in="SourceAlpha" type="matrix" values="0 0 0 0 0 0 0 0 0 0 0 0 0 0 0 0 0 0 127 0" result="hardAlpha"/>
<feOffset dy="-12"/>
<feGaussianBlur stdDeviation="2"/>
<feComposite in2="hardAlpha" operator="arithmetic" k2="-1" k3="1"/>
<feColorMatrix type="matrix" values="0 0 0 0 1 0 0 0 0 1 0 0 0 0 1 0 0 0 0.25 0"/>
<feBlend mode="normal" in2="effect1_innerShadow_14_5" result="effect2_innerShadow_14_5"/>
</filter>
<filter id="filter1_ii_14_5" x="27" y="23" width="74" height="80" filterUnits="userSpaceOnUse" color-interpolation-filters="sRGB">
<feFlood flood-opacity="0" result="BackgroundImageFix"/>
<feBlend mode="normal" in="SourceGraphic" in2="BackgroundImageFix" result="shape"/>
<feColorMatrix in="SourceAlpha" type="matrix" values="0 0 0 0 0 0 0 0 0 0 0 0 0 0 0 0 0 0 127 0" result="hardAlpha"/>
<feOffset dy="2"/>
<feGaussianBlur stdDeviation="2"/>
<feComposite in2="hardAlpha" operator="arithmetic" k2="-1" k3="1"/>
<feColorMatrix type="matrix" values="0 0 0 0 0 0 0 0 0 0 0 0 0 0 0 0 0 0 0.66 0"/>
<feBlend mode="normal" in2="shape" result="effect1_innerShadow_14_5"/>
<feColorMatrix in="SourceAlpha" type="matrix" values="0 0 0 0 0 0 0 0 0 0 0 0 0 0 0 0 0 0 127 0" result="hardAlpha"/>
<feOffset dy="-4"/>
<feGaussianBlur stdDeviation="2"/>
<feComposite in2="hardAlpha" operator="arithmetic" k2="-1" k3="1"/>
<feColorMatrix type="matrix" values="0 0 0 0 1 0 0 0 0 1 0 0 0 0 1 0 0 0 0.22 0"/>
<feBlend mode="normal" in2="effect1_innerShadow_14_5" result="effect2_innerShadow_14_5"/>
</filter>
<linearGradient id="paint0_linear_14_5" x1="64" y1="12" x2="64" y2="116" gradientUnits="userSpaceOnUse">
<stop stop-color="white"/>
<stop offset="0.520833" stop-color="#DBDBDB"/>
<stop offset="1" stop-color="#A9A9A9"/>
</linearGradient>
<radialGradient id="paint1_radial_14_5" cx="0" cy="0" r="1" gradientUnits="userSpaceOnUse" gradientTransform="translate(64 64) scale(37 37)">
<stop stop-color="white"/>
<stop offset="1" stop-color="white" stop-opacity="0"/>
</radialGradient>
<clipPath id="clip0_14_5">
<rect width="74" height="74" fill="white" transform="translate(27 27)"/>
</clipPath>
</defs>
</svg>
