<?xml version="1.0" encoding="UTF-8"?>
<svg height="16px" viewBox="0 0 16 16" width="16px" xmlns="http://www.w3.org/2000/svg">
    <path d="m 2.75 1 c -0.964844 0 -1.75 0.785156 -1.75 1.75 v 10.5 c 0 0.964844 0.785156 1.75 1.75 1.75 h 10.5 c 0.964844 0 1.75 -0.785156 1.75 -1.75 v -10.5 c 0 -0.964844 -0.785156 -1.75 -1.75 -1.75 z m 7.691406 6.21875 c 0.117188 -0.300781 0.183594 -0.628906 0.183594 -0.96875 c 0 -1.449219 -1.175781 -2.625 -2.625 -2.625 s -2.625 1.175781 -2.625 2.625 c 0 0.339844 0.066406 0.667969 0.183594 0.96875 c -1.113282 0.300781 -1.933594 1.320312 -1.933594 2.53125 c 0 1.449219 1.175781 2.625 2.625 2.625 c 0.671875 0 1.285156 -0.253906 1.75 -0.667969 c 0.464844 0.414063 1.078125 0.667969 1.75 0.667969 c 1.449219 0 2.625 -1.175781 2.625 -2.625 c 0 -1.210938 -0.820312 -2.230469 -1.933594 -2.53125 z m 0 0" fill="#241f31" fill-rule="evenodd"/>
</svg>
